<?xml version="1.0" standalone="no"?><!DOCTYPE svg PUBLIC "-//W3C//DTD SVG 1.1//EN" "http://www.w3.org/Graphics/SVG/1.1/DTD/svg11.dtd"><svg t="1745398078961" class="icon" viewBox="0 0 1024 1024" version="1.1" xmlns="http://www.w3.org/2000/svg" p-id="1516" xmlns:xlink="http://www.w3.org/1999/xlink" width="16" height="16"><path d="M39.497143 365.226667a39.497143 39.497143 0 0 0 39.497143-39.497143V102.4a23.405714 23.405714 0 0 1 23.405714-23.405714h819.2a23.405714 23.405714 0 0 1 23.405714 23.405714v223.329524a39.497143 39.497143 0 1 0 78.994286 0V71.192381A71.192381 71.192381 0 0 0 952.807619 0H71.192381A71.192381 71.192381 0 0 0 0 71.192381v254.537143a39.497143 39.497143 0 0 0 39.497143 39.497143z m499.321905 647.070476a39.497143 39.497143 0 0 1-56.076191 0l-177.980952-177.980953A39.497143 39.497143 0 1 1 360.350476 780.190476l110.689524 110.689524V228.693333a39.497143 39.497143 0 1 1 78.994286 0v660.236191L661.211429 780.190476a39.497143 39.497143 0 0 1 56.07619 56.076191z" fill="#ffffff" p-id="1517"></path></svg>