<svg xmlns="http://www.w3.org/2000/svg" xmlns:xlink="http://www.w3.org/1999/xlink" version="1.1" class="marks" width="358" height="541" viewBox="0 0 358 541"><rect width="358" height="541" fill="white"/><g fill="none" stroke-miterlimit="10" transform="translate(53,10)"><g class="mark-group role-frame root" role="graphics-object" aria-roledescription="group mark container"><g transform="translate(0,0)"><path class="background" aria-hidden="true" d="M0.5,0.5h300v300h-300Z" stroke="#ddd"/><g><g class="mark-group role-axis" aria-hidden="true"><g transform="translate(0.5,0.5)"><path class="background" aria-hidden="true" d="M0,0h0v0h0Z" pointer-events="none"/><g><g class="mark-rule role-axis-grid" pointer-events="none"><line transform="translate(0,300)" x2="300" y2="0" stroke="#ddd" stroke-width="1" opacity="1"/><line transform="translate(0,270)" x2="300" y2="0" stroke="#ddd" stroke-width="1" opacity="1"/><line transform="translate(0,240)" x2="300" y2="0" stroke="#ddd" stroke-width="1" opacity="1"/><line transform="translate(0,210)" x2="300" y2="0" stroke="#ddd" stroke-width="1" opacity="1"/><line transform="translate(0,180)" x2="300" y2="0" stroke="#ddd" stroke-width="1" opacity="1"/><line transform="translate(0,150)" x2="300" y2="0" stroke="#ddd" stroke-width="1" opacity="1"/><line transform="translate(0,120)" x2="300" y2="0" stroke="#ddd" stroke-width="1" opacity="1"/><line transform="translate(0,90)" x2="300" y2="0" stroke="#ddd" stroke-width="1" opacity="1"/><line transform="translate(0,60)" x2="300" y2="0" stroke="#ddd" stroke-width="1" opacity="1"/><line transform="translate(0,30)" x2="300" y2="0" stroke="#ddd" stroke-width="1" opacity="1"/><line transform="translate(0,0)" x2="300" y2="0" stroke="#ddd" stroke-width="1" opacity="1"/></g></g><path class="foreground" aria-hidden="true" d="" pointer-events="none" display="none"/></g></g><g class="mark-group role-axis" role="graphics-symbol" aria-roledescription="axis" aria-label="X-axis titled 'password' for a discrete scale with 15 values: 24b0ee84063c3b017ab1839e01b7280f47f7c7c2, 6d587cec8006e3a40565e1dad2c5b5b12b475b8f, 3e2f7bf1e6acf0d616a8703ee0050fba13bc007f, a48e25a58b3088e9cfdaca61130555ed2c772452, 120ac8a5744f5b710ecaebbd8dd1633e3e33886e, ending with b517a107b5f08fafe9628e88e7263a6f3a4a55c0"><g transform="translate(0.5,300.5)"><path class="background" aria-hidden="true" d="M0,0h0v0h0Z" pointer-events="none"/><g><g class="mark-rule role-axis-tick" pointer-events="none"><line transform="translate(10,0)" x2="0" y2="5" stroke="#888" stroke-width="1" opacity="1"/><line transform="translate(30,0)" x2="0" y2="5" stroke="#888" stroke-width="1" opacity="1"/><line transform="translate(50,0)" x2="0" y2="5" stroke="#888" stroke-width="1" opacity="1"/><line transform="translate(70,0)" x2="0" y2="5" stroke="#888" stroke-width="1" opacity="1"/><line transform="translate(90,0)" x2="0" y2="5" stroke="#888" stroke-width="1" opacity="1"/><line transform="translate(110,0)" x2="0" y2="5" stroke="#888" stroke-width="1" opacity="1"/><line transform="translate(130,0)" x2="0" y2="5" stroke="#888" stroke-width="1" opacity="1"/><line transform="translate(150,0)" x2="0" y2="5" stroke="#888" stroke-width="1" opacity="1"/><line transform="translate(170,0)" x2="0" y2="5" stroke="#888" stroke-width="1" opacity="1"/><line transform="translate(190,0)" x2="0" y2="5" stroke="#888" stroke-width="1" opacity="1"/><line transform="translate(210,0)" x2="0" y2="5" stroke="#888" stroke-width="1" opacity="1"/><line transform="translate(230,0)" x2="0" y2="5" stroke="#888" stroke-width="1" opacity="1"/><line transform="translate(250,0)" x2="0" y2="5" stroke="#888" stroke-width="1" opacity="1"/><line transform="translate(270,0)" x2="0" y2="5" stroke="#888" stroke-width="1" opacity="1"/><line transform="translate(290,0)" x2="0" y2="5" stroke="#888" stroke-width="1" opacity="1"/></g><g class="mark-text role-axis-label" pointer-events="none"><text text-anchor="end" transform="translate(9.5,7) rotate(270) translate(0,3)" font-family="sans-serif" font-size="10px" fill="#000" opacity="1">24b0ee84063c3b017ab18…</text><text text-anchor="end" transform="translate(29.5,7) rotate(270) translate(0,3)" font-family="sans-serif" font-size="10px" fill="#000" opacity="1">6d587cec8006e3a40565e…</text><text text-anchor="end" transform="translate(49.5,7) rotate(270) translate(0,3)" font-family="sans-serif" font-size="10px" fill="#000" opacity="1">3e2f7bf1e6acf0d616a87…</text><text text-anchor="end" transform="translate(69.5,7) rotate(270) translate(0,3)" font-family="sans-serif" font-size="10px" fill="#000" opacity="1">a48e25a58b3088e9cfdac…</text><text text-anchor="end" transform="translate(89.5,7) rotate(270) translate(0,3)" font-family="sans-serif" font-size="10px" fill="#000" opacity="1">120ac8a5744f5b710ecae…</text><text text-anchor="end" transform="translate(109.5,7) rotate(270) translate(0,3)" font-family="sans-serif" font-size="10px" fill="#000" opacity="1">e96c0bcbbbb14747747a5…</text><text text-anchor="end" transform="translate(129.5,7) rotate(270) translate(0,3)" font-family="sans-serif" font-size="10px" fill="#000" opacity="1">d34378200c9b5f72d3039…</text><text text-anchor="end" transform="translate(149.5,7) rotate(270) translate(0,3)" font-family="sans-serif" font-size="10px" fill="#000" opacity="1">6b9979a83b4a9e03ead03…</text><text text-anchor="end" transform="translate(169.5,7) rotate(270) translate(0,3)" font-family="sans-serif" font-size="10px" fill="#000" opacity="1">02d64f11de97436343a0b…</text><text text-anchor="end" transform="translate(189.5,7) rotate(270) translate(0,3)" font-family="sans-serif" font-size="10px" fill="#000" opacity="1">4d8e909ae9b8888c93a2c…</text><text text-anchor="end" transform="translate(209.5,7) rotate(270) translate(0,3)" font-family="sans-serif" font-size="10px" fill="#000" opacity="1">2c196efe8aee23a1b9a7e…</text><text text-anchor="end" transform="translate(229.5,7) rotate(270) translate(0,3)" font-family="sans-serif" font-size="10px" fill="#000" opacity="1">cdaf6c3483f19e2253659…</text><text text-anchor="end" transform="translate(249.5,7) rotate(270) translate(0,3)" font-family="sans-serif" font-size="10px" fill="#000" opacity="1">c40fa148bdd0d2d45cd6e…</text><text text-anchor="end" transform="translate(269.5,7) rotate(270) translate(0,3)" font-family="sans-serif" font-size="10px" fill="#000" opacity="1">4f149f75ecd84afcdf273…</text><text text-anchor="end" transform="translate(289.5,7) rotate(270) translate(0,3)" font-family="sans-serif" font-size="10px" fill="#000" opacity="1">b517a107b5f08fafe9628…</text></g><g class="mark-rule role-axis-domain" pointer-events="none"><line transform="translate(0,0)" x2="300" y2="0" stroke="#888" stroke-width="1" opacity="1"/></g><g class="mark-text role-axis-title" pointer-events="none"><text text-anchor="middle" transform="translate(150,213)" font-family="sans-serif" font-size="11px" font-weight="bold" fill="#000" opacity="1">password</text></g></g><path class="foreground" aria-hidden="true" d="" pointer-events="none" display="none"/></g></g><g class="mark-group role-axis" role="graphics-symbol" aria-roledescription="axis" aria-label="Y-axis titled 'author_tutor_ATB' for a linear scale with values from 0 to 1,000"><g transform="translate(0.5,0.5)"><path class="background" aria-hidden="true" d="M0,0h0v0h0Z" pointer-events="none"/><g><g class="mark-rule role-axis-tick" pointer-events="none"><line transform="translate(0,300)" x2="-5" y2="0" stroke="#888" stroke-width="1" opacity="1"/><line transform="translate(0,270)" x2="-5" y2="0" stroke="#888" stroke-width="1" opacity="1"/><line transform="translate(0,240)" x2="-5" y2="0" stroke="#888" stroke-width="1" opacity="1"/><line transform="translate(0,210)" x2="-5" y2="0" stroke="#888" stroke-width="1" opacity="1"/><line transform="translate(0,180)" x2="-5" y2="0" stroke="#888" stroke-width="1" opacity="1"/><line transform="translate(0,150)" x2="-5" y2="0" stroke="#888" stroke-width="1" opacity="1"/><line transform="translate(0,120)" x2="-5" y2="0" stroke="#888" stroke-width="1" opacity="1"/><line transform="translate(0,90)" x2="-5" y2="0" stroke="#888" stroke-width="1" opacity="1"/><line transform="translate(0,60)" x2="-5" y2="0" stroke="#888" stroke-width="1" opacity="1"/><line transform="translate(0,30)" x2="-5" y2="0" stroke="#888" stroke-width="1" opacity="1"/><line transform="translate(0,0)" x2="-5" y2="0" stroke="#888" stroke-width="1" opacity="1"/></g><g class="mark-text role-axis-label" pointer-events="none"><text text-anchor="end" transform="translate(-7,303)" font-family="sans-serif" font-size="10px" fill="#000" opacity="1">0</text><text text-anchor="end" transform="translate(-7,273)" font-family="sans-serif" font-size="10px" fill="#000" opacity="1">100</text><text text-anchor="end" transform="translate(-7,243)" font-family="sans-serif" font-size="10px" fill="#000" opacity="1">200</text><text text-anchor="end" transform="translate(-7,213)" font-family="sans-serif" font-size="10px" fill="#000" opacity="1">300</text><text text-anchor="end" transform="translate(-7,183)" font-family="sans-serif" font-size="10px" fill="#000" opacity="1">400</text><text text-anchor="end" transform="translate(-7,153)" font-family="sans-serif" font-size="10px" fill="#000" opacity="1">500</text><text text-anchor="end" transform="translate(-7,123)" font-family="sans-serif" font-size="10px" fill="#000" opacity="1">600</text><text text-anchor="end" transform="translate(-7,93.00000000000001)" font-family="sans-serif" font-size="10px" fill="#000" opacity="1">700</text><text text-anchor="end" transform="translate(-7,62.999999999999986)" font-family="sans-serif" font-size="10px" fill="#000" opacity="1">800</text><text text-anchor="end" transform="translate(-7,32.99999999999999)" font-family="sans-serif" font-size="10px" fill="#000" opacity="1">900</text><text text-anchor="end" transform="translate(-7,3)" font-family="sans-serif" font-size="10px" fill="#000" opacity="1">1,000</text></g><g class="mark-rule role-axis-domain" pointer-events="none"><line transform="translate(0,300)" x2="0" y2="-300" stroke="#888" stroke-width="1" opacity="1"/></g><g class="mark-text role-axis-title" pointer-events="none"><text text-anchor="middle" transform="translate(-36.0244140625,150) rotate(-90) translate(0,-2)" font-family="sans-serif" font-size="11px" font-weight="bold" fill="#000" opacity="1">author_tutor_ATB</text></g></g><path class="foreground" aria-hidden="true" d="" pointer-events="none" display="none"/></g></g><g class="mark-rect role-mark marks" role="graphics-object" aria-roledescription="rect mark container"><path aria-label="password: e96c0bcbbbb14747747a56ff4c17354f343a5b4f; author_tutor_ATB: 817" role="graphics-symbol" aria-roledescription="bar" d="M101,54.90000000000001h18v245.1h-18Z" fill="#4c78a8"/><path aria-label="password: c40fa148bdd0d2d45cd6e9ec1e685750fe07f81b; author_tutor_ATB: 331" role="graphics-symbol" aria-roledescription="bar" d="M241,200.70000000000002h18v99.29999999999998h-18Z" fill="#4c78a8"/><path aria-label="password: 4f149f75ecd84afcdf27343509cdd03d81edb119; author_tutor_ATB: 229" role="graphics-symbol" aria-roledescription="bar" d="M261,231.3h18v68.69999999999999h-18Z" fill="#4c78a8"/><path aria-label="password: cdaf6c3483f19e2253659a40a3aab786a3390f78; author_tutor_ATB: 349" role="graphics-symbol" aria-roledescription="bar" d="M221,195.3h18v104.69999999999999h-18Z" fill="#4c78a8"/><path aria-label="password: b517a107b5f08fafe9628e88e7263a6f3a4a55c0; author_tutor_ATB: 159" role="graphics-symbol" aria-roledescription="bar" d="M281,252.29999999999998h18v47.70000000000002h-18Z" fill="#4c78a8"/><path aria-label="password: 120ac8a5744f5b710ecaebbd8dd1633e3e33886e; author_tutor_ATB: 833" role="graphics-symbol" aria-roledescription="bar" d="M81,50.10000000000001h18v249.89999999999998h-18Z" fill="#4c78a8"/><path aria-label="password: 4d8e909ae9b8888c93a2c5f1eccbd0c4ac6a01c3; author_tutor_ATB: 505" role="graphics-symbol" aria-roledescription="bar" d="M181,148.5h18v151.5h-18Z" fill="#4c78a8"/><path aria-label="password: d34378200c9b5f72d3039fa640e7920aaec0fdf2; author_tutor_ATB: 782" role="graphics-symbol" aria-roledescription="bar" d="M121,65.39999999999999h18v234.60000000000002h-18Z" fill="#4c78a8"/><path aria-label="password: 02d64f11de97436343a0beba41bfcf69af61be1e; author_tutor_ATB: 557" role="graphics-symbol" aria-roledescription="bar" d="M161,132.89999999999998h18v167.10000000000002h-18Z" fill="#4c78a8"/><path aria-label="password: 3e2f7bf1e6acf0d616a8703ee0050fba13bc007f; author_tutor_ATB: 869" role="graphics-symbol" aria-roledescription="bar" d="M41,39.300000000000004h18v260.7h-18Z" fill="#4c78a8"/><path aria-label="password: 6b9979a83b4a9e03ead034c8de47f1b013a3d3af; author_tutor_ATB: 613" role="graphics-symbol" aria-roledescription="bar" d="M141,116.10000000000001h18v183.89999999999998h-18Z" fill="#4c78a8"/><path aria-label="password: 24b0ee84063c3b017ab1839e01b7280f47f7c7c2; author_tutor_ATB: 975" role="graphics-symbol" aria-roledescription="bar" d="M1,7.500000000000007h18v292.5h-18Z" fill="#4c78a8"/><path aria-label="password: 6d587cec8006e3a40565e1dad2c5b5b12b475b8f; author_tutor_ATB: 974" role="graphics-symbol" aria-roledescription="bar" d="M21,7.800000000000007h18v292.2h-18Z" fill="#4c78a8"/><path aria-label="password: a48e25a58b3088e9cfdaca61130555ed2c772452; author_tutor_ATB: 847" role="graphics-symbol" aria-roledescription="bar" d="M61,45.900000000000006h18v254.1h-18Z" fill="#4c78a8"/><path aria-label="password: 2c196efe8aee23a1b9a7e752fe63029c5879af6f; author_tutor_ATB: 388" role="graphics-symbol" aria-roledescription="bar" d="M201,183.6h18v116.4h-18Z" fill="#4c78a8"/></g></g><path class="foreground" aria-hidden="true" d="" display="none"/></g></g></g></svg>