<svg xmlns="http://www.w3.org/2000/svg" xmlns:xlink="http://www.w3.org/1999/xlink" version="1.1" class="marks" width="350" height="347" viewBox="0 0 350 347"><rect width="350" height="347" fill="white"/><g fill="none" stroke-miterlimit="10" transform="translate(44,10)"><g class="mark-group role-frame root" role="graphics-object" aria-roledescription="group mark container"><g transform="translate(0,0)"><path class="background" aria-hidden="true" d="M0.5,0.5h300v300h-300Z" stroke="#ddd"/><g><g class="mark-group role-axis" aria-hidden="true"><g transform="translate(0.5,300.5)"><path class="background" aria-hidden="true" d="M0,0h0v0h0Z" pointer-events="none"/><g><g class="mark-rule role-axis-grid" pointer-events="none"><line transform="translate(0,-300)" x2="0" y2="300" stroke="#ddd" stroke-width="1" opacity="1"/><line transform="translate(27,-300)" x2="0" y2="300" stroke="#ddd" stroke-width="1" opacity="1"/><line transform="translate(55,-300)" x2="0" y2="300" stroke="#ddd" stroke-width="1" opacity="1"/><line transform="translate(82,-300)" x2="0" y2="300" stroke="#ddd" stroke-width="1" opacity="1"/><line transform="translate(109,-300)" x2="0" y2="300" stroke="#ddd" stroke-width="1" opacity="1"/><line transform="translate(136,-300)" x2="0" y2="300" stroke="#ddd" stroke-width="1" opacity="1"/><line transform="translate(164,-300)" x2="0" y2="300" stroke="#ddd" stroke-width="1" opacity="1"/><line transform="translate(191,-300)" x2="0" y2="300" stroke="#ddd" stroke-width="1" opacity="1"/><line transform="translate(218,-300)" x2="0" y2="300" stroke="#ddd" stroke-width="1" opacity="1"/><line transform="translate(245,-300)" x2="0" y2="300" stroke="#ddd" stroke-width="1" opacity="1"/><line transform="translate(273,-300)" x2="0" y2="300" stroke="#ddd" stroke-width="1" opacity="1"/><line transform="translate(300,-300)" x2="0" y2="300" stroke="#ddd" stroke-width="1" opacity="1"/></g></g><path class="foreground" aria-hidden="true" d="" pointer-events="none" display="none"/></g></g><g class="mark-group role-axis" aria-hidden="true"><g transform="translate(0.5,0.5)"><path class="background" aria-hidden="true" d="M0,0h0v0h0Z" pointer-events="none"/><g><g class="mark-rule role-axis-grid" pointer-events="none"><line transform="translate(0,300)" x2="300" y2="0" stroke="#ddd" stroke-width="1" opacity="1"/><line transform="translate(0,273)" x2="300" y2="0" stroke="#ddd" stroke-width="1" opacity="1"/><line transform="translate(0,245)" x2="300" y2="0" stroke="#ddd" stroke-width="1" opacity="1"/><line transform="translate(0,218)" x2="300" y2="0" stroke="#ddd" stroke-width="1" opacity="1"/><line transform="translate(0,191)" x2="300" y2="0" stroke="#ddd" stroke-width="1" opacity="1"/><line transform="translate(0,164)" x2="300" y2="0" stroke="#ddd" stroke-width="1" opacity="1"/><line transform="translate(0,136)" x2="300" y2="0" stroke="#ddd" stroke-width="1" opacity="1"/><line transform="translate(0,109)" x2="300" y2="0" stroke="#ddd" stroke-width="1" opacity="1"/><line transform="translate(0,82)" x2="300" y2="0" stroke="#ddd" stroke-width="1" opacity="1"/><line transform="translate(0,55)" x2="300" y2="0" stroke="#ddd" stroke-width="1" opacity="1"/><line transform="translate(0,27)" x2="300" y2="0" stroke="#ddd" stroke-width="1" opacity="1"/><line transform="translate(0,0)" x2="300" y2="0" stroke="#ddd" stroke-width="1" opacity="1"/></g></g><path class="foreground" aria-hidden="true" d="" pointer-events="none" display="none"/></g></g><g class="mark-group role-axis" role="graphics-symbol" aria-roledescription="axis" aria-label="X-axis titled 'MANAGER_ID' for a linear scale with values from 0 to 220"><g transform="translate(0.5,300.5)"><path class="background" aria-hidden="true" d="M0,0h0v0h0Z" pointer-events="none"/><g><g class="mark-rule role-axis-tick" pointer-events="none"><line transform="translate(0,0)" x2="0" y2="5" stroke="#888" stroke-width="1" opacity="1"/><line transform="translate(27,0)" x2="0" y2="5" stroke="#888" stroke-width="1" opacity="1"/><line transform="translate(55,0)" x2="0" y2="5" stroke="#888" stroke-width="1" opacity="1"/><line transform="translate(82,0)" x2="0" y2="5" stroke="#888" stroke-width="1" opacity="1"/><line transform="translate(109,0)" x2="0" y2="5" stroke="#888" stroke-width="1" opacity="1"/><line transform="translate(136,0)" x2="0" y2="5" stroke="#888" stroke-width="1" opacity="1"/><line transform="translate(164,0)" x2="0" y2="5" stroke="#888" stroke-width="1" opacity="1"/><line transform="translate(191,0)" x2="0" y2="5" stroke="#888" stroke-width="1" opacity="1"/><line transform="translate(218,0)" x2="0" y2="5" stroke="#888" stroke-width="1" opacity="1"/><line transform="translate(245,0)" x2="0" y2="5" stroke="#888" stroke-width="1" opacity="1"/><line transform="translate(273,0)" x2="0" y2="5" stroke="#888" stroke-width="1" opacity="1"/><line transform="translate(300,0)" x2="0" y2="5" stroke="#888" stroke-width="1" opacity="1"/></g><g class="mark-text role-axis-label" pointer-events="none"><text text-anchor="start" transform="translate(0,15)" font-family="sans-serif" font-size="10px" fill="#000" opacity="1">0</text><text text-anchor="middle" transform="translate(27.272727272727273,15)" font-family="sans-serif" font-size="10px" fill="#000" opacity="1">20</text><text text-anchor="middle" transform="translate(54.54545454545455,15)" font-family="sans-serif" font-size="10px" fill="#000" opacity="1">40</text><text text-anchor="middle" transform="translate(81.81818181818181,15)" font-family="sans-serif" font-size="10px" fill="#000" opacity="1">60</text><text text-anchor="middle" transform="translate(109.0909090909091,15)" font-family="sans-serif" font-size="10px" fill="#000" opacity="1">80</text><text text-anchor="middle" transform="translate(136.36363636363635,15)" font-family="sans-serif" font-size="10px" fill="#000" opacity="1">100</text><text text-anchor="middle" transform="translate(163.63636363636363,15)" font-family="sans-serif" font-size="10px" fill="#000" opacity="1">120</text><text text-anchor="middle" transform="translate(190.9090909090909,15)" font-family="sans-serif" font-size="10px" fill="#000" opacity="1">140</text><text text-anchor="middle" transform="translate(218.1818181818182,15)" font-family="sans-serif" font-size="10px" fill="#000" opacity="1">160</text><text text-anchor="middle" transform="translate(245.45454545454547,15)" font-family="sans-serif" font-size="10px" fill="#000" opacity="1">180</text><text text-anchor="middle" transform="translate(272.7272727272727,15)" font-family="sans-serif" font-size="10px" fill="#000" opacity="1">200</text><text text-anchor="end" transform="translate(300,15)" font-family="sans-serif" font-size="10px" fill="#000" opacity="1">220</text></g><g class="mark-rule role-axis-domain" pointer-events="none"><line transform="translate(0,0)" x2="300" y2="0" stroke="#888" stroke-width="1" opacity="1"/></g><g class="mark-text role-axis-title" pointer-events="none"><text text-anchor="middle" transform="translate(150,30)" font-family="sans-serif" font-size="11px" font-weight="bold" fill="#000" opacity="1">MANAGER_ID</text></g></g><path class="foreground" aria-hidden="true" d="" pointer-events="none" display="none"/></g></g><g class="mark-group role-axis" role="graphics-symbol" aria-roledescription="axis" aria-label="Y-axis titled 'DEPARTMENT_ID' for a linear scale with values from 0 to 110"><g transform="translate(0.5,0.5)"><path class="background" aria-hidden="true" d="M0,0h0v0h0Z" pointer-events="none"/><g><g class="mark-rule role-axis-tick" pointer-events="none"><line transform="translate(0,300)" x2="-5" y2="0" stroke="#888" stroke-width="1" opacity="1"/><line transform="translate(0,273)" x2="-5" y2="0" stroke="#888" stroke-width="1" opacity="1"/><line transform="translate(0,245)" x2="-5" y2="0" stroke="#888" stroke-width="1" opacity="1"/><line transform="translate(0,218)" x2="-5" y2="0" stroke="#888" stroke-width="1" opacity="1"/><line transform="translate(0,191)" x2="-5" y2="0" stroke="#888" stroke-width="1" opacity="1"/><line transform="translate(0,164)" x2="-5" y2="0" stroke="#888" stroke-width="1" opacity="1"/><line transform="translate(0,136)" x2="-5" y2="0" stroke="#888" stroke-width="1" opacity="1"/><line transform="translate(0,109)" x2="-5" y2="0" stroke="#888" stroke-width="1" opacity="1"/><line transform="translate(0,82)" x2="-5" y2="0" stroke="#888" stroke-width="1" opacity="1"/><line transform="translate(0,55)" x2="-5" y2="0" stroke="#888" stroke-width="1" opacity="1"/><line transform="translate(0,27)" x2="-5" y2="0" stroke="#888" stroke-width="1" opacity="1"/><line transform="translate(0,0)" x2="-5" y2="0" stroke="#888" stroke-width="1" opacity="1"/></g><g class="mark-text role-axis-label" pointer-events="none"><text text-anchor="end" transform="translate(-7,303)" font-family="sans-serif" font-size="10px" fill="#000" opacity="1">0</text><text text-anchor="end" transform="translate(-7,275.7272727272727)" font-family="sans-serif" font-size="10px" fill="#000" opacity="1">10</text><text text-anchor="end" transform="translate(-7,248.45454545454544)" font-family="sans-serif" font-size="10px" fill="#000" opacity="1">20</text><text text-anchor="end" transform="translate(-7,221.1818181818182)" font-family="sans-serif" font-size="10px" fill="#000" opacity="1">30</text><text text-anchor="end" transform="translate(-7,193.9090909090909)" font-family="sans-serif" font-size="10px" fill="#000" opacity="1">40</text><text text-anchor="end" transform="translate(-7,166.63636363636363)" font-family="sans-serif" font-size="10px" fill="#000" opacity="1">50</text><text text-anchor="end" transform="translate(-7,139.36363636363637)" font-family="sans-serif" font-size="10px" fill="#000" opacity="1">60</text><text text-anchor="end" transform="translate(-7,112.0909090909091)" font-family="sans-serif" font-size="10px" fill="#000" opacity="1">70</text><text text-anchor="end" transform="translate(-7,84.81818181818181)" font-family="sans-serif" font-size="10px" fill="#000" opacity="1">80</text><text text-anchor="end" transform="translate(-7,57.54545454545453)" font-family="sans-serif" font-size="10px" fill="#000" opacity="1">90</text><text text-anchor="end" transform="translate(-7,30.27272727272728)" font-family="sans-serif" font-size="10px" fill="#000" opacity="1">100</text><text text-anchor="end" transform="translate(-7,3)" font-family="sans-serif" font-size="10px" fill="#000" opacity="1">110</text></g><g class="mark-rule role-axis-domain" pointer-events="none"><line transform="translate(0,300)" x2="0" y2="-300" stroke="#888" stroke-width="1" opacity="1"/></g><g class="mark-text role-axis-title" pointer-events="none"><text text-anchor="middle" transform="translate(-27.6845703125,150) rotate(-90) translate(0,-2)" font-family="sans-serif" font-size="11px" font-weight="bold" fill="#000" opacity="1">DEPARTMENT_ID</text></g></g><path class="foreground" aria-hidden="true" d="" pointer-events="none" display="none"/></g></g><g class="mark-symbol role-mark marks" role="graphics-object" aria-roledescription="symbol mark container"><path aria-label="MANAGER_ID: 0; DEPARTMENT_ID: 90" role="graphics-symbol" aria-roledescription="point" transform="translate(0,54.54545454545453)" d="M2.739,0A2.739,2.739,0,1,1,-2.739,0A2.739,2.739,0,1,1,2.739,0" stroke="#4c78a8" stroke-width="2" opacity="0.7"/><path aria-label="MANAGER_ID: 100; DEPARTMENT_ID: 90" role="graphics-symbol" aria-roledescription="point" transform="translate(136.36363636363635,54.54545454545453)" d="M2.739,0A2.739,2.739,0,1,1,-2.739,0A2.739,2.739,0,1,1,2.739,0" stroke="#4c78a8" stroke-width="2" opacity="0.7"/><path aria-label="MANAGER_ID: 100; DEPARTMENT_ID: 90" role="graphics-symbol" aria-roledescription="point" transform="translate(136.36363636363635,54.54545454545453)" d="M2.739,0A2.739,2.739,0,1,1,-2.739,0A2.739,2.739,0,1,1,2.739,0" stroke="#4c78a8" stroke-width="2" opacity="0.7"/><path aria-label="MANAGER_ID: 102; DEPARTMENT_ID: 60" role="graphics-symbol" aria-roledescription="point" transform="translate(139.0909090909091,136.36363636363637)" d="M2.739,0A2.739,2.739,0,1,1,-2.739,0A2.739,2.739,0,1,1,2.739,0" stroke="#4c78a8" stroke-width="2" opacity="0.7"/><path aria-label="MANAGER_ID: 103; DEPARTMENT_ID: 60" role="graphics-symbol" aria-roledescription="point" transform="translate(140.45454545454547,136.36363636363637)" d="M2.739,0A2.739,2.739,0,1,1,-2.739,0A2.739,2.739,0,1,1,2.739,0" stroke="#4c78a8" stroke-width="2" opacity="0.7"/><path aria-label="MANAGER_ID: 103; DEPARTMENT_ID: 60" role="graphics-symbol" aria-roledescription="point" transform="translate(140.45454545454547,136.36363636363637)" d="M2.739,0A2.739,2.739,0,1,1,-2.739,0A2.739,2.739,0,1,1,2.739,0" stroke="#4c78a8" stroke-width="2" opacity="0.7"/><path aria-label="MANAGER_ID: 103; DEPARTMENT_ID: 60" role="graphics-symbol" aria-roledescription="point" transform="translate(140.45454545454547,136.36363636363637)" d="M2.739,0A2.739,2.739,0,1,1,-2.739,0A2.739,2.739,0,1,1,2.739,0" stroke="#4c78a8" stroke-width="2" opacity="0.7"/><path aria-label="MANAGER_ID: 103; DEPARTMENT_ID: 60" role="graphics-symbol" aria-roledescription="point" transform="translate(140.45454545454547,136.36363636363637)" d="M2.739,0A2.739,2.739,0,1,1,-2.739,0A2.739,2.739,0,1,1,2.739,0" stroke="#4c78a8" stroke-width="2" opacity="0.7"/><path aria-label="MANAGER_ID: 101; DEPARTMENT_ID: 100" role="graphics-symbol" aria-roledescription="point" transform="translate(137.72727272727272,27.27272727272728)" d="M2.739,0A2.739,2.739,0,1,1,-2.739,0A2.739,2.739,0,1,1,2.739,0" stroke="#4c78a8" stroke-width="2" opacity="0.7"/><path aria-label="MANAGER_ID: 108; DEPARTMENT_ID: 100" role="graphics-symbol" aria-roledescription="point" transform="translate(147.27272727272728,27.27272727272728)" d="M2.739,0A2.739,2.739,0,1,1,-2.739,0A2.739,2.739,0,1,1,2.739,0" stroke="#4c78a8" stroke-width="2" opacity="0.7"/><path aria-label="MANAGER_ID: 108; DEPARTMENT_ID: 100" role="graphics-symbol" aria-roledescription="point" transform="translate(147.27272727272728,27.27272727272728)" d="M2.739,0A2.739,2.739,0,1,1,-2.739,0A2.739,2.739,0,1,1,2.739,0" stroke="#4c78a8" stroke-width="2" opacity="0.7"/><path aria-label="MANAGER_ID: 108; DEPARTMENT_ID: 100" role="graphics-symbol" aria-roledescription="point" transform="translate(147.27272727272728,27.27272727272728)" d="M2.739,0A2.739,2.739,0,1,1,-2.739,0A2.739,2.739,0,1,1,2.739,0" stroke="#4c78a8" stroke-width="2" opacity="0.7"/><path aria-label="MANAGER_ID: 108; DEPARTMENT_ID: 100" role="graphics-symbol" aria-roledescription="point" transform="translate(147.27272727272728,27.27272727272728)" d="M2.739,0A2.739,2.739,0,1,1,-2.739,0A2.739,2.739,0,1,1,2.739,0" stroke="#4c78a8" stroke-width="2" opacity="0.7"/><path aria-label="MANAGER_ID: 108; DEPARTMENT_ID: 100" role="graphics-symbol" aria-roledescription="point" transform="translate(147.27272727272728,27.27272727272728)" d="M2.739,0A2.739,2.739,0,1,1,-2.739,0A2.739,2.739,0,1,1,2.739,0" stroke="#4c78a8" stroke-width="2" opacity="0.7"/><path aria-label="MANAGER_ID: 100; DEPARTMENT_ID: 30" role="graphics-symbol" aria-roledescription="point" transform="translate(136.36363636363635,218.1818181818182)" d="M2.739,0A2.739,2.739,0,1,1,-2.739,0A2.739,2.739,0,1,1,2.739,0" stroke="#4c78a8" stroke-width="2" opacity="0.7"/><path aria-label="MANAGER_ID: 114; DEPARTMENT_ID: 30" role="graphics-symbol" aria-roledescription="point" transform="translate(155.45454545454547,218.1818181818182)" d="M2.739,0A2.739,2.739,0,1,1,-2.739,0A2.739,2.739,0,1,1,2.739,0" stroke="#4c78a8" stroke-width="2" opacity="0.7"/><path aria-label="MANAGER_ID: 114; DEPARTMENT_ID: 30" role="graphics-symbol" aria-roledescription="point" transform="translate(155.45454545454547,218.1818181818182)" d="M2.739,0A2.739,2.739,0,1,1,-2.739,0A2.739,2.739,0,1,1,2.739,0" stroke="#4c78a8" stroke-width="2" opacity="0.7"/><path aria-label="MANAGER_ID: 114; DEPARTMENT_ID: 30" role="graphics-symbol" aria-roledescription="point" transform="translate(155.45454545454547,218.1818181818182)" d="M2.739,0A2.739,2.739,0,1,1,-2.739,0A2.739,2.739,0,1,1,2.739,0" stroke="#4c78a8" stroke-width="2" opacity="0.7"/><path aria-label="MANAGER_ID: 114; DEPARTMENT_ID: 30" role="graphics-symbol" aria-roledescription="point" transform="translate(155.45454545454547,218.1818181818182)" d="M2.739,0A2.739,2.739,0,1,1,-2.739,0A2.739,2.739,0,1,1,2.739,0" stroke="#4c78a8" stroke-width="2" opacity="0.7"/><path aria-label="MANAGER_ID: 114; DEPARTMENT_ID: 30" role="graphics-symbol" aria-roledescription="point" transform="translate(155.45454545454547,218.1818181818182)" d="M2.739,0A2.739,2.739,0,1,1,-2.739,0A2.739,2.739,0,1,1,2.739,0" stroke="#4c78a8" stroke-width="2" opacity="0.7"/><path aria-label="MANAGER_ID: 100; DEPARTMENT_ID: 50" role="graphics-symbol" aria-roledescription="point" transform="translate(136.36363636363635,163.63636363636363)" d="M2.739,0A2.739,2.739,0,1,1,-2.739,0A2.739,2.739,0,1,1,2.739,0" stroke="#4c78a8" stroke-width="2" opacity="0.7"/><path aria-label="MANAGER_ID: 100; DEPARTMENT_ID: 50" role="graphics-symbol" aria-roledescription="point" transform="translate(136.36363636363635,163.63636363636363)" d="M2.739,0A2.739,2.739,0,1,1,-2.739,0A2.739,2.739,0,1,1,2.739,0" stroke="#4c78a8" stroke-width="2" opacity="0.7"/><path aria-label="MANAGER_ID: 100; DEPARTMENT_ID: 50" role="graphics-symbol" aria-roledescription="point" transform="translate(136.36363636363635,163.63636363636363)" d="M2.739,0A2.739,2.739,0,1,1,-2.739,0A2.739,2.739,0,1,1,2.739,0" stroke="#4c78a8" stroke-width="2" opacity="0.7"/><path aria-label="MANAGER_ID: 100; DEPARTMENT_ID: 50" role="graphics-symbol" aria-roledescription="point" transform="translate(136.36363636363635,163.63636363636363)" d="M2.739,0A2.739,2.739,0,1,1,-2.739,0A2.739,2.739,0,1,1,2.739,0" stroke="#4c78a8" stroke-width="2" opacity="0.7"/><path aria-label="MANAGER_ID: 100; DEPARTMENT_ID: 50" role="graphics-symbol" aria-roledescription="point" transform="translate(136.36363636363635,163.63636363636363)" d="M2.739,0A2.739,2.739,0,1,1,-2.739,0A2.739,2.739,0,1,1,2.739,0" stroke="#4c78a8" stroke-width="2" opacity="0.7"/><path aria-label="MANAGER_ID: 120; DEPARTMENT_ID: 50" role="graphics-symbol" aria-roledescription="point" transform="translate(163.63636363636363,163.63636363636363)" d="M2.739,0A2.739,2.739,0,1,1,-2.739,0A2.739,2.739,0,1,1,2.739,0" stroke="#4c78a8" stroke-width="2" opacity="0.7"/><path aria-label="MANAGER_ID: 120; DEPARTMENT_ID: 50" role="graphics-symbol" aria-roledescription="point" transform="translate(163.63636363636363,163.63636363636363)" d="M2.739,0A2.739,2.739,0,1,1,-2.739,0A2.739,2.739,0,1,1,2.739,0" stroke="#4c78a8" stroke-width="2" opacity="0.7"/><path aria-label="MANAGER_ID: 120; DEPARTMENT_ID: 50" role="graphics-symbol" aria-roledescription="point" transform="translate(163.63636363636363,163.63636363636363)" d="M2.739,0A2.739,2.739,0,1,1,-2.739,0A2.739,2.739,0,1,1,2.739,0" stroke="#4c78a8" stroke-width="2" opacity="0.7"/><path aria-label="MANAGER_ID: 120; DEPARTMENT_ID: 50" role="graphics-symbol" aria-roledescription="point" transform="translate(163.63636363636363,163.63636363636363)" d="M2.739,0A2.739,2.739,0,1,1,-2.739,0A2.739,2.739,0,1,1,2.739,0" stroke="#4c78a8" stroke-width="2" opacity="0.7"/><path aria-label="MANAGER_ID: 121; DEPARTMENT_ID: 50" role="graphics-symbol" aria-roledescription="point" transform="translate(165,163.63636363636363)" d="M2.739,0A2.739,2.739,0,1,1,-2.739,0A2.739,2.739,0,1,1,2.739,0" stroke="#4c78a8" stroke-width="2" opacity="0.7"/><path aria-label="MANAGER_ID: 121; DEPARTMENT_ID: 50" role="graphics-symbol" aria-roledescription="point" transform="translate(165,163.63636363636363)" d="M2.739,0A2.739,2.739,0,1,1,-2.739,0A2.739,2.739,0,1,1,2.739,0" stroke="#4c78a8" stroke-width="2" opacity="0.7"/><path aria-label="MANAGER_ID: 121; DEPARTMENT_ID: 50" role="graphics-symbol" aria-roledescription="point" transform="translate(165,163.63636363636363)" d="M2.739,0A2.739,2.739,0,1,1,-2.739,0A2.739,2.739,0,1,1,2.739,0" stroke="#4c78a8" stroke-width="2" opacity="0.7"/><path aria-label="MANAGER_ID: 121; DEPARTMENT_ID: 50" role="graphics-symbol" aria-roledescription="point" transform="translate(165,163.63636363636363)" d="M2.739,0A2.739,2.739,0,1,1,-2.739,0A2.739,2.739,0,1,1,2.739,0" stroke="#4c78a8" stroke-width="2" opacity="0.7"/><path aria-label="MANAGER_ID: 122; DEPARTMENT_ID: 50" role="graphics-symbol" aria-roledescription="point" transform="translate(166.36363636363637,163.63636363636363)" d="M2.739,0A2.739,2.739,0,1,1,-2.739,0A2.739,2.739,0,1,1,2.739,0" stroke="#4c78a8" stroke-width="2" opacity="0.7"/><path aria-label="MANAGER_ID: 122; DEPARTMENT_ID: 50" role="graphics-symbol" aria-roledescription="point" transform="translate(166.36363636363637,163.63636363636363)" d="M2.739,0A2.739,2.739,0,1,1,-2.739,0A2.739,2.739,0,1,1,2.739,0" stroke="#4c78a8" stroke-width="2" opacity="0.7"/><path aria-label="MANAGER_ID: 122; DEPARTMENT_ID: 50" role="graphics-symbol" aria-roledescription="point" transform="translate(166.36363636363637,163.63636363636363)" d="M2.739,0A2.739,2.739,0,1,1,-2.739,0A2.739,2.739,0,1,1,2.739,0" stroke="#4c78a8" stroke-width="2" opacity="0.7"/><path aria-label="MANAGER_ID: 122; DEPARTMENT_ID: 50" role="graphics-symbol" aria-roledescription="point" transform="translate(166.36363636363637,163.63636363636363)" d="M2.739,0A2.739,2.739,0,1,1,-2.739,0A2.739,2.739,0,1,1,2.739,0" stroke="#4c78a8" stroke-width="2" opacity="0.7"/><path aria-label="MANAGER_ID: 123; DEPARTMENT_ID: 50" role="graphics-symbol" aria-roledescription="point" transform="translate(167.72727272727272,163.63636363636363)" d="M2.739,0A2.739,2.739,0,1,1,-2.739,0A2.739,2.739,0,1,1,2.739,0" stroke="#4c78a8" stroke-width="2" opacity="0.7"/><path aria-label="MANAGER_ID: 123; DEPARTMENT_ID: 50" role="graphics-symbol" aria-roledescription="point" transform="translate(167.72727272727272,163.63636363636363)" d="M2.739,0A2.739,2.739,0,1,1,-2.739,0A2.739,2.739,0,1,1,2.739,0" stroke="#4c78a8" stroke-width="2" opacity="0.7"/><path aria-label="MANAGER_ID: 123; DEPARTMENT_ID: 50" role="graphics-symbol" aria-roledescription="point" transform="translate(167.72727272727272,163.63636363636363)" d="M2.739,0A2.739,2.739,0,1,1,-2.739,0A2.739,2.739,0,1,1,2.739,0" stroke="#4c78a8" stroke-width="2" opacity="0.7"/><path aria-label="MANAGER_ID: 123; DEPARTMENT_ID: 50" role="graphics-symbol" aria-roledescription="point" transform="translate(167.72727272727272,163.63636363636363)" d="M2.739,0A2.739,2.739,0,1,1,-2.739,0A2.739,2.739,0,1,1,2.739,0" stroke="#4c78a8" stroke-width="2" opacity="0.7"/><path aria-label="MANAGER_ID: 124; DEPARTMENT_ID: 50" role="graphics-symbol" aria-roledescription="point" transform="translate(169.0909090909091,163.63636363636363)" d="M2.739,0A2.739,2.739,0,1,1,-2.739,0A2.739,2.739,0,1,1,2.739,0" stroke="#4c78a8" stroke-width="2" opacity="0.7"/><path aria-label="MANAGER_ID: 124; DEPARTMENT_ID: 50" role="graphics-symbol" aria-roledescription="point" transform="translate(169.0909090909091,163.63636363636363)" d="M2.739,0A2.739,2.739,0,1,1,-2.739,0A2.739,2.739,0,1,1,2.739,0" stroke="#4c78a8" stroke-width="2" opacity="0.7"/><path aria-label="MANAGER_ID: 124; DEPARTMENT_ID: 50" role="graphics-symbol" aria-roledescription="point" transform="translate(169.0909090909091,163.63636363636363)" d="M2.739,0A2.739,2.739,0,1,1,-2.739,0A2.739,2.739,0,1,1,2.739,0" stroke="#4c78a8" stroke-width="2" opacity="0.7"/><path aria-label="MANAGER_ID: 124; DEPARTMENT_ID: 50" role="graphics-symbol" aria-roledescription="point" transform="translate(169.0909090909091,163.63636363636363)" d="M2.739,0A2.739,2.739,0,1,1,-2.739,0A2.739,2.739,0,1,1,2.739,0" stroke="#4c78a8" stroke-width="2" opacity="0.7"/><path aria-label="MANAGER_ID: 100; DEPARTMENT_ID: 80" role="graphics-symbol" aria-roledescription="point" transform="translate(136.36363636363635,81.81818181818181)" d="M2.739,0A2.739,2.739,0,1,1,-2.739,0A2.739,2.739,0,1,1,2.739,0" stroke="#4c78a8" stroke-width="2" opacity="0.7"/><path aria-label="MANAGER_ID: 100; DEPARTMENT_ID: 80" role="graphics-symbol" aria-roledescription="point" transform="translate(136.36363636363635,81.81818181818181)" d="M2.739,0A2.739,2.739,0,1,1,-2.739,0A2.739,2.739,0,1,1,2.739,0" stroke="#4c78a8" stroke-width="2" opacity="0.7"/><path aria-label="MANAGER_ID: 100; DEPARTMENT_ID: 80" role="graphics-symbol" aria-roledescription="point" transform="translate(136.36363636363635,81.81818181818181)" d="M2.739,0A2.739,2.739,0,1,1,-2.739,0A2.739,2.739,0,1,1,2.739,0" stroke="#4c78a8" stroke-width="2" opacity="0.7"/><path aria-label="MANAGER_ID: 100; DEPARTMENT_ID: 80" role="graphics-symbol" aria-roledescription="point" transform="translate(136.36363636363635,81.81818181818181)" d="M2.739,0A2.739,2.739,0,1,1,-2.739,0A2.739,2.739,0,1,1,2.739,0" stroke="#4c78a8" stroke-width="2" opacity="0.7"/><path aria-label="MANAGER_ID: 100; DEPARTMENT_ID: 80" role="graphics-symbol" aria-roledescription="point" transform="translate(136.36363636363635,81.81818181818181)" d="M2.739,0A2.739,2.739,0,1,1,-2.739,0A2.739,2.739,0,1,1,2.739,0" stroke="#4c78a8" stroke-width="2" opacity="0.7"/><path aria-label="MANAGER_ID: 145; DEPARTMENT_ID: 80" role="graphics-symbol" aria-roledescription="point" transform="translate(197.72727272727272,81.81818181818181)" d="M2.739,0A2.739,2.739,0,1,1,-2.739,0A2.739,2.739,0,1,1,2.739,0" stroke="#4c78a8" stroke-width="2" opacity="0.7"/><path aria-label="MANAGER_ID: 145; DEPARTMENT_ID: 80" role="graphics-symbol" aria-roledescription="point" transform="translate(197.72727272727272,81.81818181818181)" d="M2.739,0A2.739,2.739,0,1,1,-2.739,0A2.739,2.739,0,1,1,2.739,0" stroke="#4c78a8" stroke-width="2" opacity="0.7"/><path aria-label="MANAGER_ID: 145; DEPARTMENT_ID: 80" role="graphics-symbol" aria-roledescription="point" transform="translate(197.72727272727272,81.81818181818181)" d="M2.739,0A2.739,2.739,0,1,1,-2.739,0A2.739,2.739,0,1,1,2.739,0" stroke="#4c78a8" stroke-width="2" opacity="0.7"/><path aria-label="MANAGER_ID: 145; DEPARTMENT_ID: 80" role="graphics-symbol" aria-roledescription="point" transform="translate(197.72727272727272,81.81818181818181)" d="M2.739,0A2.739,2.739,0,1,1,-2.739,0A2.739,2.739,0,1,1,2.739,0" stroke="#4c78a8" stroke-width="2" opacity="0.7"/><path aria-label="MANAGER_ID: 145; DEPARTMENT_ID: 80" role="graphics-symbol" aria-roledescription="point" transform="translate(197.72727272727272,81.81818181818181)" d="M2.739,0A2.739,2.739,0,1,1,-2.739,0A2.739,2.739,0,1,1,2.739,0" stroke="#4c78a8" stroke-width="2" opacity="0.7"/><path aria-label="MANAGER_ID: 145; DEPARTMENT_ID: 80" role="graphics-symbol" aria-roledescription="point" transform="translate(197.72727272727272,81.81818181818181)" d="M2.739,0A2.739,2.739,0,1,1,-2.739,0A2.739,2.739,0,1,1,2.739,0" stroke="#4c78a8" stroke-width="2" opacity="0.7"/><path aria-label="MANAGER_ID: 146; DEPARTMENT_ID: 80" role="graphics-symbol" aria-roledescription="point" transform="translate(199.0909090909091,81.81818181818181)" d="M2.739,0A2.739,2.739,0,1,1,-2.739,0A2.739,2.739,0,1,1,2.739,0" stroke="#4c78a8" stroke-width="2" opacity="0.7"/><path aria-label="MANAGER_ID: 146; DEPARTMENT_ID: 80" role="graphics-symbol" aria-roledescription="point" transform="translate(199.0909090909091,81.81818181818181)" d="M2.739,0A2.739,2.739,0,1,1,-2.739,0A2.739,2.739,0,1,1,2.739,0" stroke="#4c78a8" stroke-width="2" opacity="0.7"/><path aria-label="MANAGER_ID: 146; DEPARTMENT_ID: 80" role="graphics-symbol" aria-roledescription="point" transform="translate(199.0909090909091,81.81818181818181)" d="M2.739,0A2.739,2.739,0,1,1,-2.739,0A2.739,2.739,0,1,1,2.739,0" stroke="#4c78a8" stroke-width="2" opacity="0.7"/><path aria-label="MANAGER_ID: 146; DEPARTMENT_ID: 80" role="graphics-symbol" aria-roledescription="point" transform="translate(199.0909090909091,81.81818181818181)" d="M2.739,0A2.739,2.739,0,1,1,-2.739,0A2.739,2.739,0,1,1,2.739,0" stroke="#4c78a8" stroke-width="2" opacity="0.7"/><path aria-label="MANAGER_ID: 146; DEPARTMENT_ID: 80" role="graphics-symbol" aria-roledescription="point" transform="translate(199.0909090909091,81.81818181818181)" d="M2.739,0A2.739,2.739,0,1,1,-2.739,0A2.739,2.739,0,1,1,2.739,0" stroke="#4c78a8" stroke-width="2" opacity="0.7"/><path aria-label="MANAGER_ID: 146; DEPARTMENT_ID: 80" role="graphics-symbol" aria-roledescription="point" transform="translate(199.0909090909091,81.81818181818181)" d="M2.739,0A2.739,2.739,0,1,1,-2.739,0A2.739,2.739,0,1,1,2.739,0" stroke="#4c78a8" stroke-width="2" opacity="0.7"/><path aria-label="MANAGER_ID: 147; DEPARTMENT_ID: 80" role="graphics-symbol" aria-roledescription="point" transform="translate(200.45454545454547,81.81818181818181)" d="M2.739,0A2.739,2.739,0,1,1,-2.739,0A2.739,2.739,0,1,1,2.739,0" stroke="#4c78a8" stroke-width="2" opacity="0.7"/><path aria-label="MANAGER_ID: 147; DEPARTMENT_ID: 80" role="graphics-symbol" aria-roledescription="point" transform="translate(200.45454545454547,81.81818181818181)" d="M2.739,0A2.739,2.739,0,1,1,-2.739,0A2.739,2.739,0,1,1,2.739,0" stroke="#4c78a8" stroke-width="2" opacity="0.7"/><path aria-label="MANAGER_ID: 147; DEPARTMENT_ID: 80" role="graphics-symbol" aria-roledescription="point" transform="translate(200.45454545454547,81.81818181818181)" d="M2.739,0A2.739,2.739,0,1,1,-2.739,0A2.739,2.739,0,1,1,2.739,0" stroke="#4c78a8" stroke-width="2" opacity="0.7"/><path aria-label="MANAGER_ID: 147; DEPARTMENT_ID: 80" role="graphics-symbol" aria-roledescription="point" transform="translate(200.45454545454547,81.81818181818181)" d="M2.739,0A2.739,2.739,0,1,1,-2.739,0A2.739,2.739,0,1,1,2.739,0" stroke="#4c78a8" stroke-width="2" opacity="0.7"/><path aria-label="MANAGER_ID: 147; DEPARTMENT_ID: 80" role="graphics-symbol" aria-roledescription="point" transform="translate(200.45454545454547,81.81818181818181)" d="M2.739,0A2.739,2.739,0,1,1,-2.739,0A2.739,2.739,0,1,1,2.739,0" stroke="#4c78a8" stroke-width="2" opacity="0.7"/><path aria-label="MANAGER_ID: 147; DEPARTMENT_ID: 80" role="graphics-symbol" aria-roledescription="point" transform="translate(200.45454545454547,81.81818181818181)" d="M2.739,0A2.739,2.739,0,1,1,-2.739,0A2.739,2.739,0,1,1,2.739,0" stroke="#4c78a8" stroke-width="2" opacity="0.7"/><path aria-label="MANAGER_ID: 148; DEPARTMENT_ID: 80" role="graphics-symbol" aria-roledescription="point" transform="translate(201.8181818181818,81.81818181818181)" d="M2.739,0A2.739,2.739,0,1,1,-2.739,0A2.739,2.739,0,1,1,2.739,0" stroke="#4c78a8" stroke-width="2" opacity="0.7"/><path aria-label="MANAGER_ID: 148; DEPARTMENT_ID: 80" role="graphics-symbol" aria-roledescription="point" transform="translate(201.8181818181818,81.81818181818181)" d="M2.739,0A2.739,2.739,0,1,1,-2.739,0A2.739,2.739,0,1,1,2.739,0" stroke="#4c78a8" stroke-width="2" opacity="0.7"/><path aria-label="MANAGER_ID: 148; DEPARTMENT_ID: 80" role="graphics-symbol" aria-roledescription="point" transform="translate(201.8181818181818,81.81818181818181)" d="M2.739,0A2.739,2.739,0,1,1,-2.739,0A2.739,2.739,0,1,1,2.739,0" stroke="#4c78a8" stroke-width="2" opacity="0.7"/><path aria-label="MANAGER_ID: 148; DEPARTMENT_ID: 80" role="graphics-symbol" aria-roledescription="point" transform="translate(201.8181818181818,81.81818181818181)" d="M2.739,0A2.739,2.739,0,1,1,-2.739,0A2.739,2.739,0,1,1,2.739,0" stroke="#4c78a8" stroke-width="2" opacity="0.7"/><path aria-label="MANAGER_ID: 148; DEPARTMENT_ID: 80" role="graphics-symbol" aria-roledescription="point" transform="translate(201.8181818181818,81.81818181818181)" d="M2.739,0A2.739,2.739,0,1,1,-2.739,0A2.739,2.739,0,1,1,2.739,0" stroke="#4c78a8" stroke-width="2" opacity="0.7"/><path aria-label="MANAGER_ID: 148; DEPARTMENT_ID: 80" role="graphics-symbol" aria-roledescription="point" transform="translate(201.8181818181818,81.81818181818181)" d="M2.739,0A2.739,2.739,0,1,1,-2.739,0A2.739,2.739,0,1,1,2.739,0" stroke="#4c78a8" stroke-width="2" opacity="0.7"/><path aria-label="MANAGER_ID: 149; DEPARTMENT_ID: 80" role="graphics-symbol" aria-roledescription="point" transform="translate(203.1818181818182,81.81818181818181)" d="M2.739,0A2.739,2.739,0,1,1,-2.739,0A2.739,2.739,0,1,1,2.739,0" stroke="#4c78a8" stroke-width="2" opacity="0.7"/><path aria-label="MANAGER_ID: 149; DEPARTMENT_ID: 80" role="graphics-symbol" aria-roledescription="point" transform="translate(203.1818181818182,81.81818181818181)" d="M2.739,0A2.739,2.739,0,1,1,-2.739,0A2.739,2.739,0,1,1,2.739,0" stroke="#4c78a8" stroke-width="2" opacity="0.7"/><path aria-label="MANAGER_ID: 149; DEPARTMENT_ID: 80" role="graphics-symbol" aria-roledescription="point" transform="translate(203.1818181818182,81.81818181818181)" d="M2.739,0A2.739,2.739,0,1,1,-2.739,0A2.739,2.739,0,1,1,2.739,0" stroke="#4c78a8" stroke-width="2" opacity="0.7"/><path aria-label="MANAGER_ID: 149; DEPARTMENT_ID: 80" role="graphics-symbol" aria-roledescription="point" transform="translate(203.1818181818182,81.81818181818181)" d="M2.739,0A2.739,2.739,0,1,1,-2.739,0A2.739,2.739,0,1,1,2.739,0" stroke="#4c78a8" stroke-width="2" opacity="0.7"/><path aria-label="MANAGER_ID: 149; DEPARTMENT_ID: 0" role="graphics-symbol" aria-roledescription="point" transform="translate(203.1818181818182,300)" d="M2.739,0A2.739,2.739,0,1,1,-2.739,0A2.739,2.739,0,1,1,2.739,0" stroke="#4c78a8" stroke-width="2" opacity="0.7"/><path aria-label="MANAGER_ID: 149; DEPARTMENT_ID: 80" role="graphics-symbol" aria-roledescription="point" transform="translate(203.1818181818182,81.81818181818181)" d="M2.739,0A2.739,2.739,0,1,1,-2.739,0A2.739,2.739,0,1,1,2.739,0" stroke="#4c78a8" stroke-width="2" opacity="0.7"/><path aria-label="MANAGER_ID: 120; DEPARTMENT_ID: 50" role="graphics-symbol" aria-roledescription="point" transform="translate(163.63636363636363,163.63636363636363)" d="M2.739,0A2.739,2.739,0,1,1,-2.739,0A2.739,2.739,0,1,1,2.739,0" stroke="#4c78a8" stroke-width="2" opacity="0.7"/><path aria-label="MANAGER_ID: 120; DEPARTMENT_ID: 50" role="graphics-symbol" aria-roledescription="point" transform="translate(163.63636363636363,163.63636363636363)" d="M2.739,0A2.739,2.739,0,1,1,-2.739,0A2.739,2.739,0,1,1,2.739,0" stroke="#4c78a8" stroke-width="2" opacity="0.7"/><path aria-label="MANAGER_ID: 120; DEPARTMENT_ID: 50" role="graphics-symbol" aria-roledescription="point" transform="translate(163.63636363636363,163.63636363636363)" d="M2.739,0A2.739,2.739,0,1,1,-2.739,0A2.739,2.739,0,1,1,2.739,0" stroke="#4c78a8" stroke-width="2" opacity="0.7"/><path aria-label="MANAGER_ID: 120; DEPARTMENT_ID: 50" role="graphics-symbol" aria-roledescription="point" transform="translate(163.63636363636363,163.63636363636363)" d="M2.739,0A2.739,2.739,0,1,1,-2.739,0A2.739,2.739,0,1,1,2.739,0" stroke="#4c78a8" stroke-width="2" opacity="0.7"/><path aria-label="MANAGER_ID: 121; DEPARTMENT_ID: 50" role="graphics-symbol" aria-roledescription="point" transform="translate(165,163.63636363636363)" d="M2.739,0A2.739,2.739,0,1,1,-2.739,0A2.739,2.739,0,1,1,2.739,0" stroke="#4c78a8" stroke-width="2" opacity="0.7"/><path aria-label="MANAGER_ID: 121; DEPARTMENT_ID: 50" role="graphics-symbol" aria-roledescription="point" transform="translate(165,163.63636363636363)" d="M2.739,0A2.739,2.739,0,1,1,-2.739,0A2.739,2.739,0,1,1,2.739,0" stroke="#4c78a8" stroke-width="2" opacity="0.7"/><path aria-label="MANAGER_ID: 121; DEPARTMENT_ID: 50" role="graphics-symbol" aria-roledescription="point" transform="translate(165,163.63636363636363)" d="M2.739,0A2.739,2.739,0,1,1,-2.739,0A2.739,2.739,0,1,1,2.739,0" stroke="#4c78a8" stroke-width="2" opacity="0.7"/><path aria-label="MANAGER_ID: 121; DEPARTMENT_ID: 50" role="graphics-symbol" aria-roledescription="point" transform="translate(165,163.63636363636363)" d="M2.739,0A2.739,2.739,0,1,1,-2.739,0A2.739,2.739,0,1,1,2.739,0" stroke="#4c78a8" stroke-width="2" opacity="0.7"/><path aria-label="MANAGER_ID: 122; DEPARTMENT_ID: 50" role="graphics-symbol" aria-roledescription="point" transform="translate(166.36363636363637,163.63636363636363)" d="M2.739,0A2.739,2.739,0,1,1,-2.739,0A2.739,2.739,0,1,1,2.739,0" stroke="#4c78a8" stroke-width="2" opacity="0.7"/><path aria-label="MANAGER_ID: 122; DEPARTMENT_ID: 50" role="graphics-symbol" aria-roledescription="point" transform="translate(166.36363636363637,163.63636363636363)" d="M2.739,0A2.739,2.739,0,1,1,-2.739,0A2.739,2.739,0,1,1,2.739,0" stroke="#4c78a8" stroke-width="2" opacity="0.7"/><path aria-label="MANAGER_ID: 122; DEPARTMENT_ID: 50" role="graphics-symbol" aria-roledescription="point" transform="translate(166.36363636363637,163.63636363636363)" d="M2.739,0A2.739,2.739,0,1,1,-2.739,0A2.739,2.739,0,1,1,2.739,0" stroke="#4c78a8" stroke-width="2" opacity="0.7"/><path aria-label="MANAGER_ID: 122; DEPARTMENT_ID: 50" role="graphics-symbol" aria-roledescription="point" transform="translate(166.36363636363637,163.63636363636363)" d="M2.739,0A2.739,2.739,0,1,1,-2.739,0A2.739,2.739,0,1,1,2.739,0" stroke="#4c78a8" stroke-width="2" opacity="0.7"/><path aria-label="MANAGER_ID: 123; DEPARTMENT_ID: 50" role="graphics-symbol" aria-roledescription="point" transform="translate(167.72727272727272,163.63636363636363)" d="M2.739,0A2.739,2.739,0,1,1,-2.739,0A2.739,2.739,0,1,1,2.739,0" stroke="#4c78a8" stroke-width="2" opacity="0.7"/><path aria-label="MANAGER_ID: 123; DEPARTMENT_ID: 50" role="graphics-symbol" aria-roledescription="point" transform="translate(167.72727272727272,163.63636363636363)" d="M2.739,0A2.739,2.739,0,1,1,-2.739,0A2.739,2.739,0,1,1,2.739,0" stroke="#4c78a8" stroke-width="2" opacity="0.7"/><path aria-label="MANAGER_ID: 123; DEPARTMENT_ID: 50" role="graphics-symbol" aria-roledescription="point" transform="translate(167.72727272727272,163.63636363636363)" d="M2.739,0A2.739,2.739,0,1,1,-2.739,0A2.739,2.739,0,1,1,2.739,0" stroke="#4c78a8" stroke-width="2" opacity="0.7"/><path aria-label="MANAGER_ID: 123; DEPARTMENT_ID: 50" role="graphics-symbol" aria-roledescription="point" transform="translate(167.72727272727272,163.63636363636363)" d="M2.739,0A2.739,2.739,0,1,1,-2.739,0A2.739,2.739,0,1,1,2.739,0" stroke="#4c78a8" stroke-width="2" opacity="0.7"/><path aria-label="MANAGER_ID: 124; DEPARTMENT_ID: 50" role="graphics-symbol" aria-roledescription="point" transform="translate(169.0909090909091,163.63636363636363)" d="M2.739,0A2.739,2.739,0,1,1,-2.739,0A2.739,2.739,0,1,1,2.739,0" stroke="#4c78a8" stroke-width="2" opacity="0.7"/><path aria-label="MANAGER_ID: 124; DEPARTMENT_ID: 50" role="graphics-symbol" aria-roledescription="point" transform="translate(169.0909090909091,163.63636363636363)" d="M2.739,0A2.739,2.739,0,1,1,-2.739,0A2.739,2.739,0,1,1,2.739,0" stroke="#4c78a8" stroke-width="2" opacity="0.7"/><path aria-label="MANAGER_ID: 124; DEPARTMENT_ID: 50" role="graphics-symbol" aria-roledescription="point" transform="translate(169.0909090909091,163.63636363636363)" d="M2.739,0A2.739,2.739,0,1,1,-2.739,0A2.739,2.739,0,1,1,2.739,0" stroke="#4c78a8" stroke-width="2" opacity="0.7"/><path aria-label="MANAGER_ID: 124; DEPARTMENT_ID: 50" role="graphics-symbol" aria-roledescription="point" transform="translate(169.0909090909091,163.63636363636363)" d="M2.739,0A2.739,2.739,0,1,1,-2.739,0A2.739,2.739,0,1,1,2.739,0" stroke="#4c78a8" stroke-width="2" opacity="0.7"/><path aria-label="MANAGER_ID: 101; DEPARTMENT_ID: 10" role="graphics-symbol" aria-roledescription="point" transform="translate(137.72727272727272,272.7272727272727)" d="M2.739,0A2.739,2.739,0,1,1,-2.739,0A2.739,2.739,0,1,1,2.739,0" stroke="#4c78a8" stroke-width="2" opacity="0.7"/><path aria-label="MANAGER_ID: 100; DEPARTMENT_ID: 20" role="graphics-symbol" aria-roledescription="point" transform="translate(136.36363636363635,245.45454545454544)" d="M2.739,0A2.739,2.739,0,1,1,-2.739,0A2.739,2.739,0,1,1,2.739,0" stroke="#4c78a8" stroke-width="2" opacity="0.7"/><path aria-label="MANAGER_ID: 201; DEPARTMENT_ID: 20" role="graphics-symbol" aria-roledescription="point" transform="translate(274.0909090909091,245.45454545454544)" d="M2.739,0A2.739,2.739,0,1,1,-2.739,0A2.739,2.739,0,1,1,2.739,0" stroke="#4c78a8" stroke-width="2" opacity="0.7"/><path aria-label="MANAGER_ID: 101; DEPARTMENT_ID: 70" role="graphics-symbol" aria-roledescription="point" transform="translate(137.72727272727272,109.0909090909091)" d="M2.739,0A2.739,2.739,0,1,1,-2.739,0A2.739,2.739,0,1,1,2.739,0" stroke="#4c78a8" stroke-width="2" opacity="0.7"/><path aria-label="MANAGER_ID: 101; DEPARTMENT_ID: 110" role="graphics-symbol" aria-roledescription="point" transform="translate(137.72727272727272,0)" d="M2.739,0A2.739,2.739,0,1,1,-2.739,0A2.739,2.739,0,1,1,2.739,0" stroke="#4c78a8" stroke-width="2" opacity="0.7"/><path aria-label="MANAGER_ID: 205; DEPARTMENT_ID: 110" role="graphics-symbol" aria-roledescription="point" transform="translate(279.5454545454545,0)" d="M2.739,0A2.739,2.739,0,1,1,-2.739,0A2.739,2.739,0,1,1,2.739,0" stroke="#4c78a8" stroke-width="2" opacity="0.7"/></g></g><path class="foreground" aria-hidden="true" d="" display="none"/></g></g></g></svg>