<svg xmlns="http://www.w3.org/2000/svg" xmlns:xlink="http://www.w3.org/1999/xlink" version="1.1" class="marks" width="369" height="401" viewBox="0 0 369 401"><rect width="369" height="401" fill="white"/><g fill="none" stroke-miterlimit="10" transform="translate(64,5)"><g class="mark-group role-frame root" role="graphics-object" aria-roledescription="group mark container"><g transform="translate(0,0)"><path class="background" aria-hidden="true" d="M0.5,0.5h300v300h-300Z" stroke="#ddd"/><g><g class="mark-group role-axis" aria-hidden="true"><g transform="translate(0.5,0.5)"><path class="background" aria-hidden="true" d="M0,0h0v0h0Z" pointer-events="none"/><g><g class="mark-rule role-axis-grid" pointer-events="none"><line transform="translate(0,300)" x2="300" y2="0" stroke="#ddd" stroke-width="1" opacity="1"/><line transform="translate(0,242)" x2="300" y2="0" stroke="#ddd" stroke-width="1" opacity="1"/><line transform="translate(0,185)" x2="300" y2="0" stroke="#ddd" stroke-width="1" opacity="1"/><line transform="translate(0,127)" x2="300" y2="0" stroke="#ddd" stroke-width="1" opacity="1"/><line transform="translate(0,69)" x2="300" y2="0" stroke="#ddd" stroke-width="1" opacity="1"/><line transform="translate(0,12)" x2="300" y2="0" stroke="#ddd" stroke-width="1" opacity="1"/></g></g><path class="foreground" aria-hidden="true" d="" pointer-events="none" display="none"/></g></g><g class="mark-group role-axis" role="graphics-symbol" aria-roledescription="axis" aria-label="X-axis titled 'JOB_ID' for a discrete scale with 15 values: SA_REP, SH_CLERK, SA_MAN, ST_CLERK, FI_ACCOUNT, ending with MK_REP"><g transform="translate(0.5,300.5)"><path class="background" aria-hidden="true" d="M0,0h0v0h0Z" pointer-events="none"/><g><g class="mark-rule role-axis-tick" pointer-events="none"><line transform="translate(10,0)" x2="0" y2="5" stroke="#888" stroke-width="1" opacity="1"/><line transform="translate(30,0)" x2="0" y2="5" stroke="#888" stroke-width="1" opacity="1"/><line transform="translate(50,0)" x2="0" y2="5" stroke="#888" stroke-width="1" opacity="1"/><line transform="translate(70,0)" x2="0" y2="5" stroke="#888" stroke-width="1" opacity="1"/><line transform="translate(90,0)" x2="0" y2="5" stroke="#888" stroke-width="1" opacity="1"/><line transform="translate(110,0)" x2="0" y2="5" stroke="#888" stroke-width="1" opacity="1"/><line transform="translate(130,0)" x2="0" y2="5" stroke="#888" stroke-width="1" opacity="1"/><line transform="translate(150,0)" x2="0" y2="5" stroke="#888" stroke-width="1" opacity="1"/><line transform="translate(170,0)" x2="0" y2="5" stroke="#888" stroke-width="1" opacity="1"/><line transform="translate(190,0)" x2="0" y2="5" stroke="#888" stroke-width="1" opacity="1"/><line transform="translate(210,0)" x2="0" y2="5" stroke="#888" stroke-width="1" opacity="1"/><line transform="translate(230,0)" x2="0" y2="5" stroke="#888" stroke-width="1" opacity="1"/><line transform="translate(250,0)" x2="0" y2="5" stroke="#888" stroke-width="1" opacity="1"/><line transform="translate(270,0)" x2="0" y2="5" stroke="#888" stroke-width="1" opacity="1"/><line transform="translate(290,0)" x2="0" y2="5" stroke="#888" stroke-width="1" opacity="1"/></g><g class="mark-text role-axis-label" pointer-events="none"><text text-anchor="end" transform="translate(9.5,7) rotate(270) translate(0,3)" font-family="sans-serif" font-size="10px" fill="#000" opacity="1">SA_REP</text><text text-anchor="end" transform="translate(29.5,7) rotate(270) translate(0,3)" font-family="sans-serif" font-size="10px" fill="#000" opacity="1">SH_CLERK</text><text text-anchor="end" transform="translate(49.5,7) rotate(270) translate(0,3)" font-family="sans-serif" font-size="10px" fill="#000" opacity="1">SA_MAN</text><text text-anchor="end" transform="translate(69.5,7) rotate(270) translate(0,3)" font-family="sans-serif" font-size="10px" fill="#000" opacity="1">ST_CLERK</text><text text-anchor="end" transform="translate(89.5,7) rotate(270) translate(0,3)" font-family="sans-serif" font-size="10px" fill="#000" opacity="1">FI_ACCOUNT</text><text text-anchor="end" transform="translate(109.5,7) rotate(270) translate(0,3)" font-family="sans-serif" font-size="10px" fill="#000" opacity="1">IT_PROG</text><text text-anchor="end" transform="translate(129.5,7) rotate(270) translate(0,3)" font-family="sans-serif" font-size="10px" fill="#000" opacity="1">ST_MAN</text><text text-anchor="end" transform="translate(149.5,7) rotate(270) translate(0,3)" font-family="sans-serif" font-size="10px" fill="#000" opacity="1">AD_PRES</text><text text-anchor="end" transform="translate(169.5,7) rotate(270) translate(0,3)" font-family="sans-serif" font-size="10px" fill="#000" opacity="1">PU_CLERK</text><text text-anchor="end" transform="translate(189.5,7) rotate(270) translate(0,3)" font-family="sans-serif" font-size="10px" fill="#000" opacity="1">AC_MGR</text><text text-anchor="end" transform="translate(209.5,7) rotate(270) translate(0,3)" font-family="sans-serif" font-size="10px" fill="#000" opacity="1">FI_MGR</text><text text-anchor="end" transform="translate(229.5,7) rotate(270) translate(0,3)" font-family="sans-serif" font-size="10px" fill="#000" opacity="1">PR_REP</text><text text-anchor="end" transform="translate(249.5,7) rotate(270) translate(0,3)" font-family="sans-serif" font-size="10px" fill="#000" opacity="1">AC_ACCOUNT</text><text text-anchor="end" transform="translate(269.5,7) rotate(270) translate(0,3)" font-family="sans-serif" font-size="10px" fill="#000" opacity="1">HR_REP</text><text text-anchor="end" transform="translate(289.5,7) rotate(270) translate(0,3)" font-family="sans-serif" font-size="10px" fill="#000" opacity="1">MK_REP</text></g><g class="mark-rule role-axis-domain" pointer-events="none"><line transform="translate(0,0)" x2="300" y2="0" stroke="#888" stroke-width="1" opacity="1"/></g><g class="mark-text role-axis-title" pointer-events="none"><text text-anchor="middle" transform="translate(150,88.896484375)" font-family="sans-serif" font-size="11px" font-weight="bold" fill="#000" opacity="1">JOB_ID</text></g></g><path class="foreground" aria-hidden="true" d="" pointer-events="none" display="none"/></g></g><g class="mark-group role-axis" role="graphics-symbol" aria-roledescription="axis" aria-label="Y-axis titled 'SUM(SALARY)' for a linear scale with values from 0 to 260,000"><g transform="translate(0.5,0.5)"><path class="background" aria-hidden="true" d="M0,0h0v0h0Z" pointer-events="none"/><g><g class="mark-rule role-axis-tick" pointer-events="none"><line transform="translate(0,300)" x2="-5" y2="0" stroke="#888" stroke-width="1" opacity="1"/><line transform="translate(0,242)" x2="-5" y2="0" stroke="#888" stroke-width="1" opacity="1"/><line transform="translate(0,185)" x2="-5" y2="0" stroke="#888" stroke-width="1" opacity="1"/><line transform="translate(0,127)" x2="-5" y2="0" stroke="#888" stroke-width="1" opacity="1"/><line transform="translate(0,69)" x2="-5" y2="0" stroke="#888" stroke-width="1" opacity="1"/><line transform="translate(0,12)" x2="-5" y2="0" stroke="#888" stroke-width="1" opacity="1"/></g><g class="mark-text role-axis-label" pointer-events="none"><text text-anchor="end" transform="translate(-7,303)" font-family="sans-serif" font-size="10px" fill="#000" opacity="1">0</text><text text-anchor="end" transform="translate(-7,245.30769230769232)" font-family="sans-serif" font-size="10px" fill="#000" opacity="1">50,000</text><text text-anchor="end" transform="translate(-7,187.6153846153846)" font-family="sans-serif" font-size="10px" fill="#000" opacity="1">100,000</text><text text-anchor="end" transform="translate(-7,129.92307692307693)" font-family="sans-serif" font-size="10px" fill="#000" opacity="1">150,000</text><text text-anchor="end" transform="translate(-7,72.23076923076921)" font-family="sans-serif" font-size="10px" fill="#000" opacity="1">200,000</text><text text-anchor="end" transform="translate(-7,14.538461538461531)" font-family="sans-serif" font-size="10px" fill="#000" opacity="1">250,000</text></g><g class="mark-rule role-axis-domain" pointer-events="none"><line transform="translate(0,300)" x2="0" y2="-300" stroke="#888" stroke-width="1" opacity="1"/></g><g class="mark-text role-axis-title" pointer-events="none"><text text-anchor="middle" transform="translate(-47.1474609375,150) rotate(-90) translate(0,-2)" font-family="sans-serif" font-size="11px" font-weight="bold" fill="#000" opacity="1">SUM(SALARY)</text></g></g><path class="foreground" aria-hidden="true" d="" pointer-events="none" display="none"/></g></g><g class="mark-rect role-mark marks" role="graphics-object" aria-roledescription="rect mark container"><path aria-label="JOB_ID: AC_ACCOUNT; SUM(SALARY): 8300" role="graphics-symbol" aria-roledescription="bar" d="M241,290.4230769230769h18v9.576923076923094h-18Z" fill="#4c78a8"/><path aria-label="JOB_ID: AC_MGR; SUM(SALARY): 12000" role="graphics-symbol" aria-roledescription="bar" d="M181,286.15384615384613h18v13.846153846153868h-18Z" fill="#4c78a8"/><path aria-label="JOB_ID: AD_PRES; SUM(SALARY): 24000" role="graphics-symbol" aria-roledescription="bar" d="M141,272.3076923076923h18v27.69230769230768h-18Z" fill="#4c78a8"/><path aria-label="JOB_ID: FI_ACCOUNT; SUM(SALARY): 39600" role="graphics-symbol" aria-roledescription="bar" d="M81,254.30769230769232h18v45.69230769230768h-18Z" fill="#4c78a8"/><path aria-label="JOB_ID: FI_MGR; SUM(SALARY): 12000" role="graphics-symbol" aria-roledescription="bar" d="M201,286.15384615384613h18v13.846153846153868h-18Z" fill="#4c78a8"/><path aria-label="JOB_ID: HR_REP; SUM(SALARY): 6500" role="graphics-symbol" aria-roledescription="bar" d="M261,292.5h18v7.5h-18Z" fill="#4c78a8"/><path aria-label="JOB_ID: IT_PROG; SUM(SALARY): 28800" role="graphics-symbol" aria-roledescription="bar" d="M101,266.7692307692308h18v33.230769230769226h-18Z" fill="#4c78a8"/><path aria-label="JOB_ID: MK_REP; SUM(SALARY): 6000" role="graphics-symbol" aria-roledescription="bar" d="M281,293.0769230769231h18v6.923076923076906h-18Z" fill="#4c78a8"/><path aria-label="JOB_ID: PR_REP; SUM(SALARY): 10000" role="graphics-symbol" aria-roledescription="bar" d="M221,288.46153846153845h18v11.538461538461547h-18Z" fill="#4c78a8"/><path aria-label="JOB_ID: PU_CLERK; SUM(SALARY): 13900" role="graphics-symbol" aria-roledescription="bar" d="M161,283.96153846153845h18v16.038461538461547h-18Z" fill="#4c78a8"/><path aria-label="JOB_ID: SA_MAN; SUM(SALARY): 61000" role="graphics-symbol" aria-roledescription="bar" d="M41,229.61538461538458h18v70.38461538461542h-18Z" fill="#4c78a8"/><path aria-label="JOB_ID: SA_REP; SUM(SALARY): 241900" role="graphics-symbol" aria-roledescription="bar" d="M1,20.88461538461539h18v279.1153846153846h-18Z" fill="#4c78a8"/><path aria-label="JOB_ID: SH_CLERK; SUM(SALARY): 64300" role="graphics-symbol" aria-roledescription="bar" d="M21,225.8076923076923h18v74.19230769230771h-18Z" fill="#4c78a8"/><path aria-label="JOB_ID: ST_CLERK; SUM(SALARY): 55700" role="graphics-symbol" aria-roledescription="bar" d="M61,235.73076923076923h18v64.26923076923077h-18Z" fill="#4c78a8"/><path aria-label="JOB_ID: ST_MAN; SUM(SALARY): 28500" role="graphics-symbol" aria-roledescription="bar" d="M121,267.1153846153846h18v32.884615384615415h-18Z" fill="#4c78a8"/></g></g><path class="foreground" aria-hidden="true" d="" display="none"/></g></g></g></svg>