<svg xmlns="http://www.w3.org/2000/svg" xmlns:xlink="http://www.w3.org/1999/xlink" version="1.1" class="marks" width="364" height="347" viewBox="0 0 364 347"><rect width="364" height="347" fill="white"/><g fill="none" stroke-miterlimit="10" transform="translate(58,10)"><g class="mark-group role-frame root" role="graphics-object" aria-roledescription="group mark container"><g transform="translate(0,0)"><path class="background" aria-hidden="true" d="M0.5,0.5h300v300h-300Z" stroke="#ddd"/><g><g class="mark-group role-axis" aria-hidden="true"><g transform="translate(0.5,300.5)"><path class="background" aria-hidden="true" d="M0,0h0v0h0Z" pointer-events="none"/><g><g class="mark-rule role-axis-grid" pointer-events="none"><line transform="translate(0,-300)" x2="0" y2="300" stroke="#ddd" stroke-width="1" opacity="1"/><line transform="translate(27,-300)" x2="0" y2="300" stroke="#ddd" stroke-width="1" opacity="1"/><line transform="translate(55,-300)" x2="0" y2="300" stroke="#ddd" stroke-width="1" opacity="1"/><line transform="translate(82,-300)" x2="0" y2="300" stroke="#ddd" stroke-width="1" opacity="1"/><line transform="translate(109,-300)" x2="0" y2="300" stroke="#ddd" stroke-width="1" opacity="1"/><line transform="translate(136,-300)" x2="0" y2="300" stroke="#ddd" stroke-width="1" opacity="1"/><line transform="translate(164,-300)" x2="0" y2="300" stroke="#ddd" stroke-width="1" opacity="1"/><line transform="translate(191,-300)" x2="0" y2="300" stroke="#ddd" stroke-width="1" opacity="1"/><line transform="translate(218,-300)" x2="0" y2="300" stroke="#ddd" stroke-width="1" opacity="1"/><line transform="translate(245,-300)" x2="0" y2="300" stroke="#ddd" stroke-width="1" opacity="1"/><line transform="translate(273,-300)" x2="0" y2="300" stroke="#ddd" stroke-width="1" opacity="1"/><line transform="translate(300,-300)" x2="0" y2="300" stroke="#ddd" stroke-width="1" opacity="1"/></g></g><path class="foreground" aria-hidden="true" d="" pointer-events="none" display="none"/></g></g><g class="mark-group role-axis" aria-hidden="true"><g transform="translate(0.5,0.5)"><path class="background" aria-hidden="true" d="M0,0h0v0h0Z" pointer-events="none"/><g><g class="mark-rule role-axis-grid" pointer-events="none"><line transform="translate(0,300)" x2="300" y2="0" stroke="#ddd" stroke-width="1" opacity="1"/><line transform="translate(0,275)" x2="300" y2="0" stroke="#ddd" stroke-width="1" opacity="1"/><line transform="translate(0,250)" x2="300" y2="0" stroke="#ddd" stroke-width="1" opacity="1"/><line transform="translate(0,225)" x2="300" y2="0" stroke="#ddd" stroke-width="1" opacity="1"/><line transform="translate(0,200)" x2="300" y2="0" stroke="#ddd" stroke-width="1" opacity="1"/><line transform="translate(0,175)" x2="300" y2="0" stroke="#ddd" stroke-width="1" opacity="1"/><line transform="translate(0,150)" x2="300" y2="0" stroke="#ddd" stroke-width="1" opacity="1"/><line transform="translate(0,125)" x2="300" y2="0" stroke="#ddd" stroke-width="1" opacity="1"/><line transform="translate(0,100)" x2="300" y2="0" stroke="#ddd" stroke-width="1" opacity="1"/><line transform="translate(0,75)" x2="300" y2="0" stroke="#ddd" stroke-width="1" opacity="1"/><line transform="translate(0,50)" x2="300" y2="0" stroke="#ddd" stroke-width="1" opacity="1"/><line transform="translate(0,25)" x2="300" y2="0" stroke="#ddd" stroke-width="1" opacity="1"/><line transform="translate(0,0)" x2="300" y2="0" stroke="#ddd" stroke-width="1" opacity="1"/></g></g><path class="foreground" aria-hidden="true" d="" pointer-events="none" display="none"/></g></g><g class="mark-group role-axis" role="graphics-symbol" aria-roledescription="axis" aria-label="X-axis titled 'EMPLOYEE_ID' for a linear scale with values from 0 to 220"><g transform="translate(0.5,300.5)"><path class="background" aria-hidden="true" d="M0,0h0v0h0Z" pointer-events="none"/><g><g class="mark-rule role-axis-tick" pointer-events="none"><line transform="translate(0,0)" x2="0" y2="5" stroke="#888" stroke-width="1" opacity="1"/><line transform="translate(27,0)" x2="0" y2="5" stroke="#888" stroke-width="1" opacity="1"/><line transform="translate(55,0)" x2="0" y2="5" stroke="#888" stroke-width="1" opacity="1"/><line transform="translate(82,0)" x2="0" y2="5" stroke="#888" stroke-width="1" opacity="1"/><line transform="translate(109,0)" x2="0" y2="5" stroke="#888" stroke-width="1" opacity="1"/><line transform="translate(136,0)" x2="0" y2="5" stroke="#888" stroke-width="1" opacity="1"/><line transform="translate(164,0)" x2="0" y2="5" stroke="#888" stroke-width="1" opacity="1"/><line transform="translate(191,0)" x2="0" y2="5" stroke="#888" stroke-width="1" opacity="1"/><line transform="translate(218,0)" x2="0" y2="5" stroke="#888" stroke-width="1" opacity="1"/><line transform="translate(245,0)" x2="0" y2="5" stroke="#888" stroke-width="1" opacity="1"/><line transform="translate(273,0)" x2="0" y2="5" stroke="#888" stroke-width="1" opacity="1"/><line transform="translate(300,0)" x2="0" y2="5" stroke="#888" stroke-width="1" opacity="1"/></g><g class="mark-text role-axis-label" pointer-events="none"><text text-anchor="start" transform="translate(0,15)" font-family="sans-serif" font-size="10px" fill="#000" opacity="1">0</text><text text-anchor="middle" transform="translate(27.272727272727273,15)" font-family="sans-serif" font-size="10px" fill="#000" opacity="1">20</text><text text-anchor="middle" transform="translate(54.54545454545455,15)" font-family="sans-serif" font-size="10px" fill="#000" opacity="1">40</text><text text-anchor="middle" transform="translate(81.81818181818181,15)" font-family="sans-serif" font-size="10px" fill="#000" opacity="1">60</text><text text-anchor="middle" transform="translate(109.0909090909091,15)" font-family="sans-serif" font-size="10px" fill="#000" opacity="1">80</text><text text-anchor="middle" transform="translate(136.36363636363635,15)" font-family="sans-serif" font-size="10px" fill="#000" opacity="1">100</text><text text-anchor="middle" transform="translate(163.63636363636363,15)" font-family="sans-serif" font-size="10px" fill="#000" opacity="1">120</text><text text-anchor="middle" transform="translate(190.9090909090909,15)" font-family="sans-serif" font-size="10px" fill="#000" opacity="1">140</text><text text-anchor="middle" transform="translate(218.1818181818182,15)" font-family="sans-serif" font-size="10px" fill="#000" opacity="1">160</text><text text-anchor="middle" transform="translate(245.45454545454547,15)" font-family="sans-serif" font-size="10px" fill="#000" opacity="1">180</text><text text-anchor="middle" transform="translate(272.7272727272727,15)" font-family="sans-serif" font-size="10px" fill="#000" opacity="1">200</text><text text-anchor="end" transform="translate(300,15)" font-family="sans-serif" font-size="10px" fill="#000" opacity="1">220</text></g><g class="mark-rule role-axis-domain" pointer-events="none"><line transform="translate(0,0)" x2="300" y2="0" stroke="#888" stroke-width="1" opacity="1"/></g><g class="mark-text role-axis-title" pointer-events="none"><text text-anchor="middle" transform="translate(150,30)" font-family="sans-serif" font-size="11px" font-weight="bold" fill="#000" opacity="1">EMPLOYEE_ID</text></g></g><path class="foreground" aria-hidden="true" d="" pointer-events="none" display="none"/></g></g><g class="mark-group role-axis" role="graphics-symbol" aria-roledescription="axis" aria-label="Y-axis titled 'SALARY' for a linear scale with values from 0 to 24,000"><g transform="translate(0.5,0.5)"><path class="background" aria-hidden="true" d="M0,0h0v0h0Z" pointer-events="none"/><g><g class="mark-rule role-axis-tick" pointer-events="none"><line transform="translate(0,300)" x2="-5" y2="0" stroke="#888" stroke-width="1" opacity="1"/><line transform="translate(0,275)" x2="-5" y2="0" stroke="#888" stroke-width="1" opacity="1"/><line transform="translate(0,250)" x2="-5" y2="0" stroke="#888" stroke-width="1" opacity="1"/><line transform="translate(0,225)" x2="-5" y2="0" stroke="#888" stroke-width="1" opacity="1"/><line transform="translate(0,200)" x2="-5" y2="0" stroke="#888" stroke-width="1" opacity="1"/><line transform="translate(0,175)" x2="-5" y2="0" stroke="#888" stroke-width="1" opacity="1"/><line transform="translate(0,150)" x2="-5" y2="0" stroke="#888" stroke-width="1" opacity="1"/><line transform="translate(0,125)" x2="-5" y2="0" stroke="#888" stroke-width="1" opacity="1"/><line transform="translate(0,100)" x2="-5" y2="0" stroke="#888" stroke-width="1" opacity="1"/><line transform="translate(0,75)" x2="-5" y2="0" stroke="#888" stroke-width="1" opacity="1"/><line transform="translate(0,50)" x2="-5" y2="0" stroke="#888" stroke-width="1" opacity="1"/><line transform="translate(0,25)" x2="-5" y2="0" stroke="#888" stroke-width="1" opacity="1"/><line transform="translate(0,0)" x2="-5" y2="0" stroke="#888" stroke-width="1" opacity="1"/></g><g class="mark-text role-axis-label" pointer-events="none"><text text-anchor="end" transform="translate(-7,303)" font-family="sans-serif" font-size="10px" fill="#000" opacity="1">0</text><text text-anchor="end" transform="translate(-7,278)" font-family="sans-serif" font-size="10px" fill="#000" opacity="1">2,000</text><text text-anchor="end" transform="translate(-7,253)" font-family="sans-serif" font-size="10px" fill="#000" opacity="1">4,000</text><text text-anchor="end" transform="translate(-7,228)" font-family="sans-serif" font-size="10px" fill="#000" opacity="1">6,000</text><text text-anchor="end" transform="translate(-7,203.00000000000003)" font-family="sans-serif" font-size="10px" fill="#000" opacity="1">8,000</text><text text-anchor="end" transform="translate(-7,177.99999999999997)" font-family="sans-serif" font-size="10px" fill="#000" opacity="1">10,000</text><text text-anchor="end" transform="translate(-7,153)" font-family="sans-serif" font-size="10px" fill="#000" opacity="1">12,000</text><text text-anchor="end" transform="translate(-7,127.99999999999999)" font-family="sans-serif" font-size="10px" fill="#000" opacity="1">14,000</text><text text-anchor="end" transform="translate(-7,103.00000000000001)" font-family="sans-serif" font-size="10px" fill="#000" opacity="1">16,000</text><text text-anchor="end" transform="translate(-7,78)" font-family="sans-serif" font-size="10px" fill="#000" opacity="1">18,000</text><text text-anchor="end" transform="translate(-7,52.999999999999986)" font-family="sans-serif" font-size="10px" fill="#000" opacity="1">20,000</text><text text-anchor="end" transform="translate(-7,28.00000000000001)" font-family="sans-serif" font-size="10px" fill="#000" opacity="1">22,000</text><text text-anchor="end" transform="translate(-7,3)" font-family="sans-serif" font-size="10px" fill="#000" opacity="1">24,000</text></g><g class="mark-rule role-axis-domain" pointer-events="none"><line transform="translate(0,300)" x2="0" y2="-300" stroke="#888" stroke-width="1" opacity="1"/></g><g class="mark-text role-axis-title" pointer-events="none"><text text-anchor="middle" transform="translate(-41.5859375,150) rotate(-90) translate(0,-2)" font-family="sans-serif" font-size="11px" font-weight="bold" fill="#000" opacity="1">SALARY</text></g></g><path class="foreground" aria-hidden="true" d="" pointer-events="none" display="none"/></g></g><g class="mark-symbol role-mark marks" role="graphics-object" aria-roledescription="symbol mark container"><path aria-label="EMPLOYEE_ID: 100; SALARY: 24000" role="graphics-symbol" aria-roledescription="point" transform="translate(136.36363636363635,0)" d="M2.739,0A2.739,2.739,0,1,1,-2.739,0A2.739,2.739,0,1,1,2.739,0" stroke="#4c78a8" stroke-width="2" opacity="0.7"/><path aria-label="EMPLOYEE_ID: 103; SALARY: 9000" role="graphics-symbol" aria-roledescription="point" transform="translate(140.45454545454547,187.5)" d="M2.739,0A2.739,2.739,0,1,1,-2.739,0A2.739,2.739,0,1,1,2.739,0" stroke="#4c78a8" stroke-width="2" opacity="0.7"/><path aria-label="EMPLOYEE_ID: 104; SALARY: 6000" role="graphics-symbol" aria-roledescription="point" transform="translate(141.8181818181818,225)" d="M2.739,0A2.739,2.739,0,1,1,-2.739,0A2.739,2.739,0,1,1,2.739,0" stroke="#4c78a8" stroke-width="2" opacity="0.7"/><path aria-label="EMPLOYEE_ID: 105; SALARY: 4800" role="graphics-symbol" aria-roledescription="point" transform="translate(143.1818181818182,240)" d="M2.739,0A2.739,2.739,0,1,1,-2.739,0A2.739,2.739,0,1,1,2.739,0" stroke="#4c78a8" stroke-width="2" opacity="0.7"/><path aria-label="EMPLOYEE_ID: 106; SALARY: 4800" role="graphics-symbol" aria-roledescription="point" transform="translate(144.54545454545453,240)" d="M2.739,0A2.739,2.739,0,1,1,-2.739,0A2.739,2.739,0,1,1,2.739,0" stroke="#4c78a8" stroke-width="2" opacity="0.7"/><path aria-label="EMPLOYEE_ID: 107; SALARY: 4200" role="graphics-symbol" aria-roledescription="point" transform="translate(145.9090909090909,247.5)" d="M2.739,0A2.739,2.739,0,1,1,-2.739,0A2.739,2.739,0,1,1,2.739,0" stroke="#4c78a8" stroke-width="2" opacity="0.7"/><path aria-label="EMPLOYEE_ID: 108; SALARY: 12000" role="graphics-symbol" aria-roledescription="point" transform="translate(147.27272727272728,150)" d="M2.739,0A2.739,2.739,0,1,1,-2.739,0A2.739,2.739,0,1,1,2.739,0" stroke="#4c78a8" stroke-width="2" opacity="0.7"/><path aria-label="EMPLOYEE_ID: 109; SALARY: 9000" role="graphics-symbol" aria-roledescription="point" transform="translate(148.63636363636365,187.5)" d="M2.739,0A2.739,2.739,0,1,1,-2.739,0A2.739,2.739,0,1,1,2.739,0" stroke="#4c78a8" stroke-width="2" opacity="0.7"/><path aria-label="EMPLOYEE_ID: 110; SALARY: 8200" role="graphics-symbol" aria-roledescription="point" transform="translate(150,197.5)" d="M2.739,0A2.739,2.739,0,1,1,-2.739,0A2.739,2.739,0,1,1,2.739,0" stroke="#4c78a8" stroke-width="2" opacity="0.7"/><path aria-label="EMPLOYEE_ID: 111; SALARY: 7700" role="graphics-symbol" aria-roledescription="point" transform="translate(151.36363636363635,203.75)" d="M2.739,0A2.739,2.739,0,1,1,-2.739,0A2.739,2.739,0,1,1,2.739,0" stroke="#4c78a8" stroke-width="2" opacity="0.7"/><path aria-label="EMPLOYEE_ID: 112; SALARY: 7800" role="graphics-symbol" aria-roledescription="point" transform="translate(152.72727272727272,202.5)" d="M2.739,0A2.739,2.739,0,1,1,-2.739,0A2.739,2.739,0,1,1,2.739,0" stroke="#4c78a8" stroke-width="2" opacity="0.7"/><path aria-label="EMPLOYEE_ID: 113; SALARY: 6900" role="graphics-symbol" aria-roledescription="point" transform="translate(154.0909090909091,213.75)" d="M2.739,0A2.739,2.739,0,1,1,-2.739,0A2.739,2.739,0,1,1,2.739,0" stroke="#4c78a8" stroke-width="2" opacity="0.7"/><path aria-label="EMPLOYEE_ID: 115; SALARY: 3100" role="graphics-symbol" aria-roledescription="point" transform="translate(156.8181818181818,261.25)" d="M2.739,0A2.739,2.739,0,1,1,-2.739,0A2.739,2.739,0,1,1,2.739,0" stroke="#4c78a8" stroke-width="2" opacity="0.7"/><path aria-label="EMPLOYEE_ID: 116; SALARY: 2900" role="graphics-symbol" aria-roledescription="point" transform="translate(158.18181818181816,263.75)" d="M2.739,0A2.739,2.739,0,1,1,-2.739,0A2.739,2.739,0,1,1,2.739,0" stroke="#4c78a8" stroke-width="2" opacity="0.7"/><path aria-label="EMPLOYEE_ID: 117; SALARY: 2800" role="graphics-symbol" aria-roledescription="point" transform="translate(159.54545454545456,265)" d="M2.739,0A2.739,2.739,0,1,1,-2.739,0A2.739,2.739,0,1,1,2.739,0" stroke="#4c78a8" stroke-width="2" opacity="0.7"/><path aria-label="EMPLOYEE_ID: 118; SALARY: 2600" role="graphics-symbol" aria-roledescription="point" transform="translate(160.9090909090909,267.5)" d="M2.739,0A2.739,2.739,0,1,1,-2.739,0A2.739,2.739,0,1,1,2.739,0" stroke="#4c78a8" stroke-width="2" opacity="0.7"/><path aria-label="EMPLOYEE_ID: 119; SALARY: 2500" role="graphics-symbol" aria-roledescription="point" transform="translate(162.27272727272728,268.75)" d="M2.739,0A2.739,2.739,0,1,1,-2.739,0A2.739,2.739,0,1,1,2.739,0" stroke="#4c78a8" stroke-width="2" opacity="0.7"/><path aria-label="EMPLOYEE_ID: 120; SALARY: 8000" role="graphics-symbol" aria-roledescription="point" transform="translate(163.63636363636363,200.00000000000003)" d="M2.739,0A2.739,2.739,0,1,1,-2.739,0A2.739,2.739,0,1,1,2.739,0" stroke="#4c78a8" stroke-width="2" opacity="0.7"/><path aria-label="EMPLOYEE_ID: 121; SALARY: 8200" role="graphics-symbol" aria-roledescription="point" transform="translate(165,197.5)" d="M2.739,0A2.739,2.739,0,1,1,-2.739,0A2.739,2.739,0,1,1,2.739,0" stroke="#4c78a8" stroke-width="2" opacity="0.7"/><path aria-label="EMPLOYEE_ID: 123; SALARY: 6500" role="graphics-symbol" aria-roledescription="point" transform="translate(167.72727272727272,218.75000000000003)" d="M2.739,0A2.739,2.739,0,1,1,-2.739,0A2.739,2.739,0,1,1,2.739,0" stroke="#4c78a8" stroke-width="2" opacity="0.7"/><path aria-label="EMPLOYEE_ID: 124; SALARY: 5800" role="graphics-symbol" aria-roledescription="point" transform="translate(169.0909090909091,227.5)" d="M2.739,0A2.739,2.739,0,1,1,-2.739,0A2.739,2.739,0,1,1,2.739,0" stroke="#4c78a8" stroke-width="2" opacity="0.7"/><path aria-label="EMPLOYEE_ID: 125; SALARY: 3200" role="graphics-symbol" aria-roledescription="point" transform="translate(170.45454545454547,260)" d="M2.739,0A2.739,2.739,0,1,1,-2.739,0A2.739,2.739,0,1,1,2.739,0" stroke="#4c78a8" stroke-width="2" opacity="0.7"/><path aria-label="EMPLOYEE_ID: 126; SALARY: 2700" role="graphics-symbol" aria-roledescription="point" transform="translate(171.8181818181818,266.25)" d="M2.739,0A2.739,2.739,0,1,1,-2.739,0A2.739,2.739,0,1,1,2.739,0" stroke="#4c78a8" stroke-width="2" opacity="0.7"/><path aria-label="EMPLOYEE_ID: 127; SALARY: 2400" role="graphics-symbol" aria-roledescription="point" transform="translate(173.1818181818182,270)" d="M2.739,0A2.739,2.739,0,1,1,-2.739,0A2.739,2.739,0,1,1,2.739,0" stroke="#4c78a8" stroke-width="2" opacity="0.7"/><path aria-label="EMPLOYEE_ID: 128; SALARY: 2200" role="graphics-symbol" aria-roledescription="point" transform="translate(174.54545454545453,272.5)" d="M2.739,0A2.739,2.739,0,1,1,-2.739,0A2.739,2.739,0,1,1,2.739,0" stroke="#4c78a8" stroke-width="2" opacity="0.7"/><path aria-label="EMPLOYEE_ID: 129; SALARY: 3300" role="graphics-symbol" aria-roledescription="point" transform="translate(175.9090909090909,258.75)" d="M2.739,0A2.739,2.739,0,1,1,-2.739,0A2.739,2.739,0,1,1,2.739,0" stroke="#4c78a8" stroke-width="2" opacity="0.7"/><path aria-label="EMPLOYEE_ID: 130; SALARY: 2800" role="graphics-symbol" aria-roledescription="point" transform="translate(177.27272727272728,265)" d="M2.739,0A2.739,2.739,0,1,1,-2.739,0A2.739,2.739,0,1,1,2.739,0" stroke="#4c78a8" stroke-width="2" opacity="0.7"/><path aria-label="EMPLOYEE_ID: 131; SALARY: 2500" role="graphics-symbol" aria-roledescription="point" transform="translate(178.63636363636363,268.75)" d="M2.739,0A2.739,2.739,0,1,1,-2.739,0A2.739,2.739,0,1,1,2.739,0" stroke="#4c78a8" stroke-width="2" opacity="0.7"/><path aria-label="EMPLOYEE_ID: 132; SALARY: 2100" role="graphics-symbol" aria-roledescription="point" transform="translate(180,273.75)" d="M2.739,0A2.739,2.739,0,1,1,-2.739,0A2.739,2.739,0,1,1,2.739,0" stroke="#4c78a8" stroke-width="2" opacity="0.7"/><path aria-label="EMPLOYEE_ID: 133; SALARY: 3300" role="graphics-symbol" aria-roledescription="point" transform="translate(181.36363636363635,258.75)" d="M2.739,0A2.739,2.739,0,1,1,-2.739,0A2.739,2.739,0,1,1,2.739,0" stroke="#4c78a8" stroke-width="2" opacity="0.7"/><path aria-label="EMPLOYEE_ID: 134; SALARY: 2900" role="graphics-symbol" aria-roledescription="point" transform="translate(182.72727272727275,263.75)" d="M2.739,0A2.739,2.739,0,1,1,-2.739,0A2.739,2.739,0,1,1,2.739,0" stroke="#4c78a8" stroke-width="2" opacity="0.7"/><path aria-label="EMPLOYEE_ID: 135; SALARY: 2400" role="graphics-symbol" aria-roledescription="point" transform="translate(184.0909090909091,270)" d="M2.739,0A2.739,2.739,0,1,1,-2.739,0A2.739,2.739,0,1,1,2.739,0" stroke="#4c78a8" stroke-width="2" opacity="0.7"/><path aria-label="EMPLOYEE_ID: 136; SALARY: 2200" role="graphics-symbol" aria-roledescription="point" transform="translate(185.45454545454544,272.5)" d="M2.739,0A2.739,2.739,0,1,1,-2.739,0A2.739,2.739,0,1,1,2.739,0" stroke="#4c78a8" stroke-width="2" opacity="0.7"/><path aria-label="EMPLOYEE_ID: 137; SALARY: 3600" role="graphics-symbol" aria-roledescription="point" transform="translate(186.8181818181818,255)" d="M2.739,0A2.739,2.739,0,1,1,-2.739,0A2.739,2.739,0,1,1,2.739,0" stroke="#4c78a8" stroke-width="2" opacity="0.7"/><path aria-label="EMPLOYEE_ID: 138; SALARY: 3200" role="graphics-symbol" aria-roledescription="point" transform="translate(188.1818181818182,260)" d="M2.739,0A2.739,2.739,0,1,1,-2.739,0A2.739,2.739,0,1,1,2.739,0" stroke="#4c78a8" stroke-width="2" opacity="0.7"/><path aria-label="EMPLOYEE_ID: 139; SALARY: 2700" role="graphics-symbol" aria-roledescription="point" transform="translate(189.54545454545456,266.25)" d="M2.739,0A2.739,2.739,0,1,1,-2.739,0A2.739,2.739,0,1,1,2.739,0" stroke="#4c78a8" stroke-width="2" opacity="0.7"/><path aria-label="EMPLOYEE_ID: 140; SALARY: 2500" role="graphics-symbol" aria-roledescription="point" transform="translate(190.9090909090909,268.75)" d="M2.739,0A2.739,2.739,0,1,1,-2.739,0A2.739,2.739,0,1,1,2.739,0" stroke="#4c78a8" stroke-width="2" opacity="0.7"/><path aria-label="EMPLOYEE_ID: 141; SALARY: 3500" role="graphics-symbol" aria-roledescription="point" transform="translate(192.27272727272725,256.25)" d="M2.739,0A2.739,2.739,0,1,1,-2.739,0A2.739,2.739,0,1,1,2.739,0" stroke="#4c78a8" stroke-width="2" opacity="0.7"/><path aria-label="EMPLOYEE_ID: 142; SALARY: 3100" role="graphics-symbol" aria-roledescription="point" transform="translate(193.63636363636365,261.25)" d="M2.739,0A2.739,2.739,0,1,1,-2.739,0A2.739,2.739,0,1,1,2.739,0" stroke="#4c78a8" stroke-width="2" opacity="0.7"/><path aria-label="EMPLOYEE_ID: 143; SALARY: 2600" role="graphics-symbol" aria-roledescription="point" transform="translate(195,267.5)" d="M2.739,0A2.739,2.739,0,1,1,-2.739,0A2.739,2.739,0,1,1,2.739,0" stroke="#4c78a8" stroke-width="2" opacity="0.7"/><path aria-label="EMPLOYEE_ID: 144; SALARY: 2500" role="graphics-symbol" aria-roledescription="point" transform="translate(196.36363636363637,268.75)" d="M2.739,0A2.739,2.739,0,1,1,-2.739,0A2.739,2.739,0,1,1,2.739,0" stroke="#4c78a8" stroke-width="2" opacity="0.7"/><path aria-label="EMPLOYEE_ID: 145; SALARY: 14000" role="graphics-symbol" aria-roledescription="point" transform="translate(197.72727272727272,124.99999999999999)" d="M2.739,0A2.739,2.739,0,1,1,-2.739,0A2.739,2.739,0,1,1,2.739,0" stroke="#4c78a8" stroke-width="2" opacity="0.7"/><path aria-label="EMPLOYEE_ID: 146; SALARY: 13500" role="graphics-symbol" aria-roledescription="point" transform="translate(199.0909090909091,131.25)" d="M2.739,0A2.739,2.739,0,1,1,-2.739,0A2.739,2.739,0,1,1,2.739,0" stroke="#4c78a8" stroke-width="2" opacity="0.7"/><path aria-label="EMPLOYEE_ID: 147; SALARY: 12000" role="graphics-symbol" aria-roledescription="point" transform="translate(200.45454545454547,150)" d="M2.739,0A2.739,2.739,0,1,1,-2.739,0A2.739,2.739,0,1,1,2.739,0" stroke="#4c78a8" stroke-width="2" opacity="0.7"/><path aria-label="EMPLOYEE_ID: 148; SALARY: 11000" role="graphics-symbol" aria-roledescription="point" transform="translate(201.8181818181818,162.50000000000003)" d="M2.739,0A2.739,2.739,0,1,1,-2.739,0A2.739,2.739,0,1,1,2.739,0" stroke="#4c78a8" stroke-width="2" opacity="0.7"/><path aria-label="EMPLOYEE_ID: 149; SALARY: 10500" role="graphics-symbol" aria-roledescription="point" transform="translate(203.1818181818182,168.75)" d="M2.739,0A2.739,2.739,0,1,1,-2.739,0A2.739,2.739,0,1,1,2.739,0" stroke="#4c78a8" stroke-width="2" opacity="0.7"/><path aria-label="EMPLOYEE_ID: 150; SALARY: 10000" role="graphics-symbol" aria-roledescription="point" transform="translate(204.54545454545453,174.99999999999997)" d="M2.739,0A2.739,2.739,0,1,1,-2.739,0A2.739,2.739,0,1,1,2.739,0" stroke="#4c78a8" stroke-width="2" opacity="0.7"/><path aria-label="EMPLOYEE_ID: 151; SALARY: 9500" role="graphics-symbol" aria-roledescription="point" transform="translate(205.9090909090909,181.25000000000003)" d="M2.739,0A2.739,2.739,0,1,1,-2.739,0A2.739,2.739,0,1,1,2.739,0" stroke="#4c78a8" stroke-width="2" opacity="0.7"/><path aria-label="EMPLOYEE_ID: 152; SALARY: 9000" role="graphics-symbol" aria-roledescription="point" transform="translate(207.27272727272728,187.5)" d="M2.739,0A2.739,2.739,0,1,1,-2.739,0A2.739,2.739,0,1,1,2.739,0" stroke="#4c78a8" stroke-width="2" opacity="0.7"/><path aria-label="EMPLOYEE_ID: 153; SALARY: 8000" role="graphics-symbol" aria-roledescription="point" transform="translate(208.63636363636363,200.00000000000003)" d="M2.739,0A2.739,2.739,0,1,1,-2.739,0A2.739,2.739,0,1,1,2.739,0" stroke="#4c78a8" stroke-width="2" opacity="0.7"/><path aria-label="EMPLOYEE_ID: 154; SALARY: 7500" role="graphics-symbol" aria-roledescription="point" transform="translate(210,206.25)" d="M2.739,0A2.739,2.739,0,1,1,-2.739,0A2.739,2.739,0,1,1,2.739,0" stroke="#4c78a8" stroke-width="2" opacity="0.7"/><path aria-label="EMPLOYEE_ID: 155; SALARY: 7000" role="graphics-symbol" aria-roledescription="point" transform="translate(211.36363636363637,212.49999999999997)" d="M2.739,0A2.739,2.739,0,1,1,-2.739,0A2.739,2.739,0,1,1,2.739,0" stroke="#4c78a8" stroke-width="2" opacity="0.7"/><path aria-label="EMPLOYEE_ID: 156; SALARY: 10000" role="graphics-symbol" aria-roledescription="point" transform="translate(212.72727272727272,174.99999999999997)" d="M2.739,0A2.739,2.739,0,1,1,-2.739,0A2.739,2.739,0,1,1,2.739,0" stroke="#4c78a8" stroke-width="2" opacity="0.7"/><path aria-label="EMPLOYEE_ID: 157; SALARY: 9500" role="graphics-symbol" aria-roledescription="point" transform="translate(214.0909090909091,181.25000000000003)" d="M2.739,0A2.739,2.739,0,1,1,-2.739,0A2.739,2.739,0,1,1,2.739,0" stroke="#4c78a8" stroke-width="2" opacity="0.7"/><path aria-label="EMPLOYEE_ID: 158; SALARY: 9000" role="graphics-symbol" aria-roledescription="point" transform="translate(215.45454545454544,187.5)" d="M2.739,0A2.739,2.739,0,1,1,-2.739,0A2.739,2.739,0,1,1,2.739,0" stroke="#4c78a8" stroke-width="2" opacity="0.7"/><path aria-label="EMPLOYEE_ID: 159; SALARY: 8000" role="graphics-symbol" aria-roledescription="point" transform="translate(216.81818181818184,200.00000000000003)" d="M2.739,0A2.739,2.739,0,1,1,-2.739,0A2.739,2.739,0,1,1,2.739,0" stroke="#4c78a8" stroke-width="2" opacity="0.7"/><path aria-label="EMPLOYEE_ID: 160; SALARY: 7500" role="graphics-symbol" aria-roledescription="point" transform="translate(218.1818181818182,206.25)" d="M2.739,0A2.739,2.739,0,1,1,-2.739,0A2.739,2.739,0,1,1,2.739,0" stroke="#4c78a8" stroke-width="2" opacity="0.7"/><path aria-label="EMPLOYEE_ID: 161; SALARY: 7000" role="graphics-symbol" aria-roledescription="point" transform="translate(219.54545454545453,212.49999999999997)" d="M2.739,0A2.739,2.739,0,1,1,-2.739,0A2.739,2.739,0,1,1,2.739,0" stroke="#4c78a8" stroke-width="2" opacity="0.7"/><path aria-label="EMPLOYEE_ID: 162; SALARY: 10500" role="graphics-symbol" aria-roledescription="point" transform="translate(220.9090909090909,168.75)" d="M2.739,0A2.739,2.739,0,1,1,-2.739,0A2.739,2.739,0,1,1,2.739,0" stroke="#4c78a8" stroke-width="2" opacity="0.7"/><path aria-label="EMPLOYEE_ID: 163; SALARY: 9500" role="graphics-symbol" aria-roledescription="point" transform="translate(222.27272727272728,181.25000000000003)" d="M2.739,0A2.739,2.739,0,1,1,-2.739,0A2.739,2.739,0,1,1,2.739,0" stroke="#4c78a8" stroke-width="2" opacity="0.7"/><path aria-label="EMPLOYEE_ID: 164; SALARY: 7200" role="graphics-symbol" aria-roledescription="point" transform="translate(223.63636363636365,210)" d="M2.739,0A2.739,2.739,0,1,1,-2.739,0A2.739,2.739,0,1,1,2.739,0" stroke="#4c78a8" stroke-width="2" opacity="0.7"/><path aria-label="EMPLOYEE_ID: 165; SALARY: 6800" role="graphics-symbol" aria-roledescription="point" transform="translate(225,215)" d="M2.739,0A2.739,2.739,0,1,1,-2.739,0A2.739,2.739,0,1,1,2.739,0" stroke="#4c78a8" stroke-width="2" opacity="0.7"/><path aria-label="EMPLOYEE_ID: 166; SALARY: 6400" role="graphics-symbol" aria-roledescription="point" transform="translate(226.36363636363635,220.00000000000003)" d="M2.739,0A2.739,2.739,0,1,1,-2.739,0A2.739,2.739,0,1,1,2.739,0" stroke="#4c78a8" stroke-width="2" opacity="0.7"/><path aria-label="EMPLOYEE_ID: 167; SALARY: 6200" role="graphics-symbol" aria-roledescription="point" transform="translate(227.72727272727272,222.5)" d="M2.739,0A2.739,2.739,0,1,1,-2.739,0A2.739,2.739,0,1,1,2.739,0" stroke="#4c78a8" stroke-width="2" opacity="0.7"/><path aria-label="EMPLOYEE_ID: 168; SALARY: 11500" role="graphics-symbol" aria-roledescription="point" transform="translate(229.0909090909091,156.24999999999997)" d="M2.739,0A2.739,2.739,0,1,1,-2.739,0A2.739,2.739,0,1,1,2.739,0" stroke="#4c78a8" stroke-width="2" opacity="0.7"/><path aria-label="EMPLOYEE_ID: 169; SALARY: 10000" role="graphics-symbol" aria-roledescription="point" transform="translate(230.45454545454547,174.99999999999997)" d="M2.739,0A2.739,2.739,0,1,1,-2.739,0A2.739,2.739,0,1,1,2.739,0" stroke="#4c78a8" stroke-width="2" opacity="0.7"/><path aria-label="EMPLOYEE_ID: 170; SALARY: 9600" role="graphics-symbol" aria-roledescription="point" transform="translate(231.8181818181818,180)" d="M2.739,0A2.739,2.739,0,1,1,-2.739,0A2.739,2.739,0,1,1,2.739,0" stroke="#4c78a8" stroke-width="2" opacity="0.7"/><path aria-label="EMPLOYEE_ID: 171; SALARY: 7400" role="graphics-symbol" aria-roledescription="point" transform="translate(233.18181818181816,207.5)" d="M2.739,0A2.739,2.739,0,1,1,-2.739,0A2.739,2.739,0,1,1,2.739,0" stroke="#4c78a8" stroke-width="2" opacity="0.7"/><path aria-label="EMPLOYEE_ID: 172; SALARY: 7300" role="graphics-symbol" aria-roledescription="point" transform="translate(234.54545454545456,208.75)" d="M2.739,0A2.739,2.739,0,1,1,-2.739,0A2.739,2.739,0,1,1,2.739,0" stroke="#4c78a8" stroke-width="2" opacity="0.7"/><path aria-label="EMPLOYEE_ID: 173; SALARY: 6100" role="graphics-symbol" aria-roledescription="point" transform="translate(235.9090909090909,223.75)" d="M2.739,0A2.739,2.739,0,1,1,-2.739,0A2.739,2.739,0,1,1,2.739,0" stroke="#4c78a8" stroke-width="2" opacity="0.7"/><path aria-label="EMPLOYEE_ID: 174; SALARY: 11000" role="graphics-symbol" aria-roledescription="point" transform="translate(237.27272727272728,162.50000000000003)" d="M2.739,0A2.739,2.739,0,1,1,-2.739,0A2.739,2.739,0,1,1,2.739,0" stroke="#4c78a8" stroke-width="2" opacity="0.7"/><path aria-label="EMPLOYEE_ID: 175; SALARY: 8800" role="graphics-symbol" aria-roledescription="point" transform="translate(238.63636363636363,190)" d="M2.739,0A2.739,2.739,0,1,1,-2.739,0A2.739,2.739,0,1,1,2.739,0" stroke="#4c78a8" stroke-width="2" opacity="0.7"/><path aria-label="EMPLOYEE_ID: 177; SALARY: 8400" role="graphics-symbol" aria-roledescription="point" transform="translate(241.36363636363637,195)" d="M2.739,0A2.739,2.739,0,1,1,-2.739,0A2.739,2.739,0,1,1,2.739,0" stroke="#4c78a8" stroke-width="2" opacity="0.7"/><path aria-label="EMPLOYEE_ID: 178; SALARY: 7000" role="graphics-symbol" aria-roledescription="point" transform="translate(242.72727272727272,212.49999999999997)" d="M2.739,0A2.739,2.739,0,1,1,-2.739,0A2.739,2.739,0,1,1,2.739,0" stroke="#4c78a8" stroke-width="2" opacity="0.7"/><path aria-label="EMPLOYEE_ID: 179; SALARY: 6200" role="graphics-symbol" aria-roledescription="point" transform="translate(244.0909090909091,222.5)" d="M2.739,0A2.739,2.739,0,1,1,-2.739,0A2.739,2.739,0,1,1,2.739,0" stroke="#4c78a8" stroke-width="2" opacity="0.7"/><path aria-label="EMPLOYEE_ID: 180; SALARY: 3200" role="graphics-symbol" aria-roledescription="point" transform="translate(245.45454545454547,260)" d="M2.739,0A2.739,2.739,0,1,1,-2.739,0A2.739,2.739,0,1,1,2.739,0" stroke="#4c78a8" stroke-width="2" opacity="0.7"/><path aria-label="EMPLOYEE_ID: 181; SALARY: 3100" role="graphics-symbol" aria-roledescription="point" transform="translate(246.8181818181818,261.25)" d="M2.739,0A2.739,2.739,0,1,1,-2.739,0A2.739,2.739,0,1,1,2.739,0" stroke="#4c78a8" stroke-width="2" opacity="0.7"/><path aria-label="EMPLOYEE_ID: 182; SALARY: 2500" role="graphics-symbol" aria-roledescription="point" transform="translate(248.1818181818182,268.75)" d="M2.739,0A2.739,2.739,0,1,1,-2.739,0A2.739,2.739,0,1,1,2.739,0" stroke="#4c78a8" stroke-width="2" opacity="0.7"/><path aria-label="EMPLOYEE_ID: 183; SALARY: 2800" role="graphics-symbol" aria-roledescription="point" transform="translate(249.54545454545453,265)" d="M2.739,0A2.739,2.739,0,1,1,-2.739,0A2.739,2.739,0,1,1,2.739,0" stroke="#4c78a8" stroke-width="2" opacity="0.7"/><path aria-label="EMPLOYEE_ID: 184; SALARY: 4200" role="graphics-symbol" aria-roledescription="point" transform="translate(250.9090909090909,247.5)" d="M2.739,0A2.739,2.739,0,1,1,-2.739,0A2.739,2.739,0,1,1,2.739,0" stroke="#4c78a8" stroke-width="2" opacity="0.7"/><path aria-label="EMPLOYEE_ID: 185; SALARY: 4100" role="graphics-symbol" aria-roledescription="point" transform="translate(252.27272727272728,248.74999999999997)" d="M2.739,0A2.739,2.739,0,1,1,-2.739,0A2.739,2.739,0,1,1,2.739,0" stroke="#4c78a8" stroke-width="2" opacity="0.7"/><path aria-label="EMPLOYEE_ID: 186; SALARY: 3400" role="graphics-symbol" aria-roledescription="point" transform="translate(253.63636363636363,257.5)" d="M2.739,0A2.739,2.739,0,1,1,-2.739,0A2.739,2.739,0,1,1,2.739,0" stroke="#4c78a8" stroke-width="2" opacity="0.7"/><path aria-label="EMPLOYEE_ID: 187; SALARY: 3000" role="graphics-symbol" aria-roledescription="point" transform="translate(255,262.5)" d="M2.739,0A2.739,2.739,0,1,1,-2.739,0A2.739,2.739,0,1,1,2.739,0" stroke="#4c78a8" stroke-width="2" opacity="0.7"/><path aria-label="EMPLOYEE_ID: 188; SALARY: 3800" role="graphics-symbol" aria-roledescription="point" transform="translate(256.3636363636364,252.5)" d="M2.739,0A2.739,2.739,0,1,1,-2.739,0A2.739,2.739,0,1,1,2.739,0" stroke="#4c78a8" stroke-width="2" opacity="0.7"/><path aria-label="EMPLOYEE_ID: 189; SALARY: 3600" role="graphics-symbol" aria-roledescription="point" transform="translate(257.72727272727275,255)" d="M2.739,0A2.739,2.739,0,1,1,-2.739,0A2.739,2.739,0,1,1,2.739,0" stroke="#4c78a8" stroke-width="2" opacity="0.7"/><path aria-label="EMPLOYEE_ID: 190; SALARY: 2900" role="graphics-symbol" aria-roledescription="point" transform="translate(259.0909090909091,263.75)" d="M2.739,0A2.739,2.739,0,1,1,-2.739,0A2.739,2.739,0,1,1,2.739,0" stroke="#4c78a8" stroke-width="2" opacity="0.7"/><path aria-label="EMPLOYEE_ID: 191; SALARY: 2500" role="graphics-symbol" aria-roledescription="point" transform="translate(260.45454545454544,268.75)" d="M2.739,0A2.739,2.739,0,1,1,-2.739,0A2.739,2.739,0,1,1,2.739,0" stroke="#4c78a8" stroke-width="2" opacity="0.7"/><path aria-label="EMPLOYEE_ID: 192; SALARY: 4000" role="graphics-symbol" aria-roledescription="point" transform="translate(261.8181818181818,250)" d="M2.739,0A2.739,2.739,0,1,1,-2.739,0A2.739,2.739,0,1,1,2.739,0" stroke="#4c78a8" stroke-width="2" opacity="0.7"/><path aria-label="EMPLOYEE_ID: 193; SALARY: 3900" role="graphics-symbol" aria-roledescription="point" transform="translate(263.1818181818182,251.25)" d="M2.739,0A2.739,2.739,0,1,1,-2.739,0A2.739,2.739,0,1,1,2.739,0" stroke="#4c78a8" stroke-width="2" opacity="0.7"/><path aria-label="EMPLOYEE_ID: 194; SALARY: 3200" role="graphics-symbol" aria-roledescription="point" transform="translate(264.54545454545456,260)" d="M2.739,0A2.739,2.739,0,1,1,-2.739,0A2.739,2.739,0,1,1,2.739,0" stroke="#4c78a8" stroke-width="2" opacity="0.7"/><path aria-label="EMPLOYEE_ID: 195; SALARY: 2800" role="graphics-symbol" aria-roledescription="point" transform="translate(265.9090909090909,265)" d="M2.739,0A2.739,2.739,0,1,1,-2.739,0A2.739,2.739,0,1,1,2.739,0" stroke="#4c78a8" stroke-width="2" opacity="0.7"/><path aria-label="EMPLOYEE_ID: 196; SALARY: 3100" role="graphics-symbol" aria-roledescription="point" transform="translate(267.27272727272725,261.25)" d="M2.739,0A2.739,2.739,0,1,1,-2.739,0A2.739,2.739,0,1,1,2.739,0" stroke="#4c78a8" stroke-width="2" opacity="0.7"/><path aria-label="EMPLOYEE_ID: 197; SALARY: 3000" role="graphics-symbol" aria-roledescription="point" transform="translate(268.6363636363636,262.5)" d="M2.739,0A2.739,2.739,0,1,1,-2.739,0A2.739,2.739,0,1,1,2.739,0" stroke="#4c78a8" stroke-width="2" opacity="0.7"/><path aria-label="EMPLOYEE_ID: 198; SALARY: 2600" role="graphics-symbol" aria-roledescription="point" transform="translate(270,267.5)" d="M2.739,0A2.739,2.739,0,1,1,-2.739,0A2.739,2.739,0,1,1,2.739,0" stroke="#4c78a8" stroke-width="2" opacity="0.7"/><path aria-label="EMPLOYEE_ID: 199; SALARY: 2600" role="graphics-symbol" aria-roledescription="point" transform="translate(271.3636363636364,267.5)" d="M2.739,0A2.739,2.739,0,1,1,-2.739,0A2.739,2.739,0,1,1,2.739,0" stroke="#4c78a8" stroke-width="2" opacity="0.7"/><path aria-label="EMPLOYEE_ID: 202; SALARY: 6000" role="graphics-symbol" aria-roledescription="point" transform="translate(275.45454545454544,225)" d="M2.739,0A2.739,2.739,0,1,1,-2.739,0A2.739,2.739,0,1,1,2.739,0" stroke="#4c78a8" stroke-width="2" opacity="0.7"/><path aria-label="EMPLOYEE_ID: 203; SALARY: 6500" role="graphics-symbol" aria-roledescription="point" transform="translate(276.8181818181818,218.75000000000003)" d="M2.739,0A2.739,2.739,0,1,1,-2.739,0A2.739,2.739,0,1,1,2.739,0" stroke="#4c78a8" stroke-width="2" opacity="0.7"/><path aria-label="EMPLOYEE_ID: 204; SALARY: 10000" role="graphics-symbol" aria-roledescription="point" transform="translate(278.1818181818182,174.99999999999997)" d="M2.739,0A2.739,2.739,0,1,1,-2.739,0A2.739,2.739,0,1,1,2.739,0" stroke="#4c78a8" stroke-width="2" opacity="0.7"/><path aria-label="EMPLOYEE_ID: 205; SALARY: 12000" role="graphics-symbol" aria-roledescription="point" transform="translate(279.5454545454545,150)" d="M2.739,0A2.739,2.739,0,1,1,-2.739,0A2.739,2.739,0,1,1,2.739,0" stroke="#4c78a8" stroke-width="2" opacity="0.7"/><path aria-label="EMPLOYEE_ID: 206; SALARY: 8300" role="graphics-symbol" aria-roledescription="point" transform="translate(280.90909090909093,196.25)" d="M2.739,0A2.739,2.739,0,1,1,-2.739,0A2.739,2.739,0,1,1,2.739,0" stroke="#4c78a8" stroke-width="2" opacity="0.7"/></g></g><path class="foreground" aria-hidden="true" d="" display="none"/></g></g></g></svg>