<svg xmlns="http://www.w3.org/2000/svg" xmlns:xlink="http://www.w3.org/1999/xlink" version="1.1" class="marks" width="353" height="347" viewBox="0 0 353 347"><rect width="353" height="347" fill="white"/><g fill="none" stroke-miterlimit="10" transform="translate(47,10)"><g class="mark-group role-frame root" role="graphics-object" aria-roledescription="group mark container"><g transform="translate(0,0)"><path class="background" aria-hidden="true" d="M0.5,0.5h300v300h-300Z" stroke="#ddd"/><g><g class="mark-group role-axis" aria-hidden="true"><g transform="translate(0.5,300.5)"><path class="background" aria-hidden="true" d="M0,0h0v0h0Z" pointer-events="none"/><g><g class="mark-rule role-axis-grid" pointer-events="none"><line transform="translate(0,-300)" x2="0" y2="300" stroke="#ddd" stroke-width="1" opacity="1"/><line transform="translate(27,-300)" x2="0" y2="300" stroke="#ddd" stroke-width="1" opacity="1"/><line transform="translate(55,-300)" x2="0" y2="300" stroke="#ddd" stroke-width="1" opacity="1"/><line transform="translate(82,-300)" x2="0" y2="300" stroke="#ddd" stroke-width="1" opacity="1"/><line transform="translate(109,-300)" x2="0" y2="300" stroke="#ddd" stroke-width="1" opacity="1"/><line transform="translate(136,-300)" x2="0" y2="300" stroke="#ddd" stroke-width="1" opacity="1"/><line transform="translate(164,-300)" x2="0" y2="300" stroke="#ddd" stroke-width="1" opacity="1"/><line transform="translate(191,-300)" x2="0" y2="300" stroke="#ddd" stroke-width="1" opacity="1"/><line transform="translate(218,-300)" x2="0" y2="300" stroke="#ddd" stroke-width="1" opacity="1"/><line transform="translate(245,-300)" x2="0" y2="300" stroke="#ddd" stroke-width="1" opacity="1"/><line transform="translate(273,-300)" x2="0" y2="300" stroke="#ddd" stroke-width="1" opacity="1"/><line transform="translate(300,-300)" x2="0" y2="300" stroke="#ddd" stroke-width="1" opacity="1"/></g></g><path class="foreground" aria-hidden="true" d="" pointer-events="none" display="none"/></g></g><g class="mark-group role-axis" aria-hidden="true"><g transform="translate(0.5,0.5)"><path class="background" aria-hidden="true" d="M0,0h0v0h0Z" pointer-events="none"/><g><g class="mark-rule role-axis-grid" pointer-events="none"><line transform="translate(0,300)" x2="300" y2="0" stroke="#ddd" stroke-width="1" opacity="1"/><line transform="translate(0,263)" x2="300" y2="0" stroke="#ddd" stroke-width="1" opacity="1"/><line transform="translate(0,225)" x2="300" y2="0" stroke="#ddd" stroke-width="1" opacity="1"/><line transform="translate(0,188)" x2="300" y2="0" stroke="#ddd" stroke-width="1" opacity="1"/><line transform="translate(0,150)" x2="300" y2="0" stroke="#ddd" stroke-width="1" opacity="1"/><line transform="translate(0,113)" x2="300" y2="0" stroke="#ddd" stroke-width="1" opacity="1"/><line transform="translate(0,75)" x2="300" y2="0" stroke="#ddd" stroke-width="1" opacity="1"/><line transform="translate(0,38)" x2="300" y2="0" stroke="#ddd" stroke-width="1" opacity="1"/><line transform="translate(0,0)" x2="300" y2="0" stroke="#ddd" stroke-width="1" opacity="1"/></g></g><path class="foreground" aria-hidden="true" d="" pointer-events="none" display="none"/></g></g><g class="mark-group role-axis" role="graphics-symbol" aria-roledescription="axis" aria-label="X-axis titled 'EMPLOYEE_ID' for a linear scale with values from 0 to 220"><g transform="translate(0.5,300.5)"><path class="background" aria-hidden="true" d="M0,0h0v0h0Z" pointer-events="none"/><g><g class="mark-rule role-axis-tick" pointer-events="none"><line transform="translate(0,0)" x2="0" y2="5" stroke="#888" stroke-width="1" opacity="1"/><line transform="translate(27,0)" x2="0" y2="5" stroke="#888" stroke-width="1" opacity="1"/><line transform="translate(55,0)" x2="0" y2="5" stroke="#888" stroke-width="1" opacity="1"/><line transform="translate(82,0)" x2="0" y2="5" stroke="#888" stroke-width="1" opacity="1"/><line transform="translate(109,0)" x2="0" y2="5" stroke="#888" stroke-width="1" opacity="1"/><line transform="translate(136,0)" x2="0" y2="5" stroke="#888" stroke-width="1" opacity="1"/><line transform="translate(164,0)" x2="0" y2="5" stroke="#888" stroke-width="1" opacity="1"/><line transform="translate(191,0)" x2="0" y2="5" stroke="#888" stroke-width="1" opacity="1"/><line transform="translate(218,0)" x2="0" y2="5" stroke="#888" stroke-width="1" opacity="1"/><line transform="translate(245,0)" x2="0" y2="5" stroke="#888" stroke-width="1" opacity="1"/><line transform="translate(273,0)" x2="0" y2="5" stroke="#888" stroke-width="1" opacity="1"/><line transform="translate(300,0)" x2="0" y2="5" stroke="#888" stroke-width="1" opacity="1"/></g><g class="mark-text role-axis-label" pointer-events="none"><text text-anchor="start" transform="translate(0,15)" font-family="sans-serif" font-size="10px" fill="#000" opacity="1">0</text><text text-anchor="middle" transform="translate(27.272727272727273,15)" font-family="sans-serif" font-size="10px" fill="#000" opacity="1">20</text><text text-anchor="middle" transform="translate(54.54545454545455,15)" font-family="sans-serif" font-size="10px" fill="#000" opacity="1">40</text><text text-anchor="middle" transform="translate(81.81818181818181,15)" font-family="sans-serif" font-size="10px" fill="#000" opacity="1">60</text><text text-anchor="middle" transform="translate(109.0909090909091,15)" font-family="sans-serif" font-size="10px" fill="#000" opacity="1">80</text><text text-anchor="middle" transform="translate(136.36363636363635,15)" font-family="sans-serif" font-size="10px" fill="#000" opacity="1">100</text><text text-anchor="middle" transform="translate(163.63636363636363,15)" font-family="sans-serif" font-size="10px" fill="#000" opacity="1">120</text><text text-anchor="middle" transform="translate(190.9090909090909,15)" font-family="sans-serif" font-size="10px" fill="#000" opacity="1">140</text><text text-anchor="middle" transform="translate(218.1818181818182,15)" font-family="sans-serif" font-size="10px" fill="#000" opacity="1">160</text><text text-anchor="middle" transform="translate(245.45454545454547,15)" font-family="sans-serif" font-size="10px" fill="#000" opacity="1">180</text><text text-anchor="middle" transform="translate(272.7272727272727,15)" font-family="sans-serif" font-size="10px" fill="#000" opacity="1">200</text><text text-anchor="end" transform="translate(300,15)" font-family="sans-serif" font-size="10px" fill="#000" opacity="1">220</text></g><g class="mark-rule role-axis-domain" pointer-events="none"><line transform="translate(0,0)" x2="300" y2="0" stroke="#888" stroke-width="1" opacity="1"/></g><g class="mark-text role-axis-title" pointer-events="none"><text text-anchor="middle" transform="translate(150,30)" font-family="sans-serif" font-size="11px" font-weight="bold" fill="#000" opacity="1">EMPLOYEE_ID</text></g></g><path class="foreground" aria-hidden="true" d="" pointer-events="none" display="none"/></g></g><g class="mark-group role-axis" role="graphics-symbol" aria-roledescription="axis" aria-label="Y-axis titled 'COMMISSION_PCT' for a linear scale with values from 0.0 to 0.4"><g transform="translate(0.5,0.5)"><path class="background" aria-hidden="true" d="M0,0h0v0h0Z" pointer-events="none"/><g><g class="mark-rule role-axis-tick" pointer-events="none"><line transform="translate(0,300)" x2="-5" y2="0" stroke="#888" stroke-width="1" opacity="1"/><line transform="translate(0,263)" x2="-5" y2="0" stroke="#888" stroke-width="1" opacity="1"/><line transform="translate(0,225)" x2="-5" y2="0" stroke="#888" stroke-width="1" opacity="1"/><line transform="translate(0,188)" x2="-5" y2="0" stroke="#888" stroke-width="1" opacity="1"/><line transform="translate(0,150)" x2="-5" y2="0" stroke="#888" stroke-width="1" opacity="1"/><line transform="translate(0,113)" x2="-5" y2="0" stroke="#888" stroke-width="1" opacity="1"/><line transform="translate(0,75)" x2="-5" y2="0" stroke="#888" stroke-width="1" opacity="1"/><line transform="translate(0,38)" x2="-5" y2="0" stroke="#888" stroke-width="1" opacity="1"/><line transform="translate(0,0)" x2="-5" y2="0" stroke="#888" stroke-width="1" opacity="1"/></g><g class="mark-text role-axis-label" pointer-events="none"><text text-anchor="end" transform="translate(-7,303)" font-family="sans-serif" font-size="10px" fill="#000" opacity="1">0.00</text><text text-anchor="end" transform="translate(-7,265.5)" font-family="sans-serif" font-size="10px" fill="#000" opacity="1">0.05</text><text text-anchor="end" transform="translate(-7,228)" font-family="sans-serif" font-size="10px" fill="#000" opacity="1">0.10</text><text text-anchor="end" transform="translate(-7,190.5)" font-family="sans-serif" font-size="10px" fill="#000" opacity="1">0.15</text><text text-anchor="end" transform="translate(-7,153)" font-family="sans-serif" font-size="10px" fill="#000" opacity="1">0.20</text><text text-anchor="end" transform="translate(-7,115.5)" font-family="sans-serif" font-size="10px" fill="#000" opacity="1">0.25</text><text text-anchor="end" transform="translate(-7,78.00000000000003)" font-family="sans-serif" font-size="10px" fill="#000" opacity="1">0.30</text><text text-anchor="end" transform="translate(-7,40.500000000000036)" font-family="sans-serif" font-size="10px" fill="#000" opacity="1">0.35</text><text text-anchor="end" transform="translate(-7,3)" font-family="sans-serif" font-size="10px" fill="#000" opacity="1">0.40</text></g><g class="mark-rule role-axis-domain" pointer-events="none"><line transform="translate(0,300)" x2="0" y2="-300" stroke="#888" stroke-width="1" opacity="1"/></g><g class="mark-text role-axis-title" pointer-events="none"><text text-anchor="middle" transform="translate(-30.462890625,150) rotate(-90) translate(0,-2)" font-family="sans-serif" font-size="11px" font-weight="bold" fill="#000" opacity="1">COMMISSION_PCT</text></g></g><path class="foreground" aria-hidden="true" d="" pointer-events="none" display="none"/></g></g><g class="mark-symbol role-mark marks" role="graphics-object" aria-roledescription="symbol mark container"><path aria-label="EMPLOYEE_ID: 100; COMMISSION_PCT: 0" role="graphics-symbol" aria-roledescription="point" transform="translate(136.36363636363635,300)" d="M2.739,0A2.739,2.739,0,1,1,-2.739,0A2.739,2.739,0,1,1,2.739,0" stroke="#4c78a8" stroke-width="2" opacity="0.7"/><path aria-label="EMPLOYEE_ID: 101; COMMISSION_PCT: 0" role="graphics-symbol" aria-roledescription="point" transform="translate(137.72727272727272,300)" d="M2.739,0A2.739,2.739,0,1,1,-2.739,0A2.739,2.739,0,1,1,2.739,0" stroke="#4c78a8" stroke-width="2" opacity="0.7"/><path aria-label="EMPLOYEE_ID: 102; COMMISSION_PCT: 0" role="graphics-symbol" aria-roledescription="point" transform="translate(139.0909090909091,300)" d="M2.739,0A2.739,2.739,0,1,1,-2.739,0A2.739,2.739,0,1,1,2.739,0" stroke="#4c78a8" stroke-width="2" opacity="0.7"/><path aria-label="EMPLOYEE_ID: 103; COMMISSION_PCT: 0" role="graphics-symbol" aria-roledescription="point" transform="translate(140.45454545454547,300)" d="M2.739,0A2.739,2.739,0,1,1,-2.739,0A2.739,2.739,0,1,1,2.739,0" stroke="#4c78a8" stroke-width="2" opacity="0.7"/><path aria-label="EMPLOYEE_ID: 104; COMMISSION_PCT: 0" role="graphics-symbol" aria-roledescription="point" transform="translate(141.8181818181818,300)" d="M2.739,0A2.739,2.739,0,1,1,-2.739,0A2.739,2.739,0,1,1,2.739,0" stroke="#4c78a8" stroke-width="2" opacity="0.7"/><path aria-label="EMPLOYEE_ID: 105; COMMISSION_PCT: 0" role="graphics-symbol" aria-roledescription="point" transform="translate(143.1818181818182,300)" d="M2.739,0A2.739,2.739,0,1,1,-2.739,0A2.739,2.739,0,1,1,2.739,0" stroke="#4c78a8" stroke-width="2" opacity="0.7"/><path aria-label="EMPLOYEE_ID: 106; COMMISSION_PCT: 0" role="graphics-symbol" aria-roledescription="point" transform="translate(144.54545454545453,300)" d="M2.739,0A2.739,2.739,0,1,1,-2.739,0A2.739,2.739,0,1,1,2.739,0" stroke="#4c78a8" stroke-width="2" opacity="0.7"/><path aria-label="EMPLOYEE_ID: 107; COMMISSION_PCT: 0" role="graphics-symbol" aria-roledescription="point" transform="translate(145.9090909090909,300)" d="M2.739,0A2.739,2.739,0,1,1,-2.739,0A2.739,2.739,0,1,1,2.739,0" stroke="#4c78a8" stroke-width="2" opacity="0.7"/><path aria-label="EMPLOYEE_ID: 108; COMMISSION_PCT: 0" role="graphics-symbol" aria-roledescription="point" transform="translate(147.27272727272728,300)" d="M2.739,0A2.739,2.739,0,1,1,-2.739,0A2.739,2.739,0,1,1,2.739,0" stroke="#4c78a8" stroke-width="2" opacity="0.7"/><path aria-label="EMPLOYEE_ID: 109; COMMISSION_PCT: 0" role="graphics-symbol" aria-roledescription="point" transform="translate(148.63636363636365,300)" d="M2.739,0A2.739,2.739,0,1,1,-2.739,0A2.739,2.739,0,1,1,2.739,0" stroke="#4c78a8" stroke-width="2" opacity="0.7"/><path aria-label="EMPLOYEE_ID: 110; COMMISSION_PCT: 0" role="graphics-symbol" aria-roledescription="point" transform="translate(150,300)" d="M2.739,0A2.739,2.739,0,1,1,-2.739,0A2.739,2.739,0,1,1,2.739,0" stroke="#4c78a8" stroke-width="2" opacity="0.7"/><path aria-label="EMPLOYEE_ID: 111; COMMISSION_PCT: 0" role="graphics-symbol" aria-roledescription="point" transform="translate(151.36363636363635,300)" d="M2.739,0A2.739,2.739,0,1,1,-2.739,0A2.739,2.739,0,1,1,2.739,0" stroke="#4c78a8" stroke-width="2" opacity="0.7"/><path aria-label="EMPLOYEE_ID: 112; COMMISSION_PCT: 0" role="graphics-symbol" aria-roledescription="point" transform="translate(152.72727272727272,300)" d="M2.739,0A2.739,2.739,0,1,1,-2.739,0A2.739,2.739,0,1,1,2.739,0" stroke="#4c78a8" stroke-width="2" opacity="0.7"/><path aria-label="EMPLOYEE_ID: 113; COMMISSION_PCT: 0" role="graphics-symbol" aria-roledescription="point" transform="translate(154.0909090909091,300)" d="M2.739,0A2.739,2.739,0,1,1,-2.739,0A2.739,2.739,0,1,1,2.739,0" stroke="#4c78a8" stroke-width="2" opacity="0.7"/><path aria-label="EMPLOYEE_ID: 114; COMMISSION_PCT: 0" role="graphics-symbol" aria-roledescription="point" transform="translate(155.45454545454547,300)" d="M2.739,0A2.739,2.739,0,1,1,-2.739,0A2.739,2.739,0,1,1,2.739,0" stroke="#4c78a8" stroke-width="2" opacity="0.7"/><path aria-label="EMPLOYEE_ID: 115; COMMISSION_PCT: 0" role="graphics-symbol" aria-roledescription="point" transform="translate(156.8181818181818,300)" d="M2.739,0A2.739,2.739,0,1,1,-2.739,0A2.739,2.739,0,1,1,2.739,0" stroke="#4c78a8" stroke-width="2" opacity="0.7"/><path aria-label="EMPLOYEE_ID: 116; COMMISSION_PCT: 0" role="graphics-symbol" aria-roledescription="point" transform="translate(158.18181818181816,300)" d="M2.739,0A2.739,2.739,0,1,1,-2.739,0A2.739,2.739,0,1,1,2.739,0" stroke="#4c78a8" stroke-width="2" opacity="0.7"/><path aria-label="EMPLOYEE_ID: 117; COMMISSION_PCT: 0" role="graphics-symbol" aria-roledescription="point" transform="translate(159.54545454545456,300)" d="M2.739,0A2.739,2.739,0,1,1,-2.739,0A2.739,2.739,0,1,1,2.739,0" stroke="#4c78a8" stroke-width="2" opacity="0.7"/><path aria-label="EMPLOYEE_ID: 118; COMMISSION_PCT: 0" role="graphics-symbol" aria-roledescription="point" transform="translate(160.9090909090909,300)" d="M2.739,0A2.739,2.739,0,1,1,-2.739,0A2.739,2.739,0,1,1,2.739,0" stroke="#4c78a8" stroke-width="2" opacity="0.7"/><path aria-label="EMPLOYEE_ID: 119; COMMISSION_PCT: 0" role="graphics-symbol" aria-roledescription="point" transform="translate(162.27272727272728,300)" d="M2.739,0A2.739,2.739,0,1,1,-2.739,0A2.739,2.739,0,1,1,2.739,0" stroke="#4c78a8" stroke-width="2" opacity="0.7"/><path aria-label="EMPLOYEE_ID: 120; COMMISSION_PCT: 0" role="graphics-symbol" aria-roledescription="point" transform="translate(163.63636363636363,300)" d="M2.739,0A2.739,2.739,0,1,1,-2.739,0A2.739,2.739,0,1,1,2.739,0" stroke="#4c78a8" stroke-width="2" opacity="0.7"/><path aria-label="EMPLOYEE_ID: 121; COMMISSION_PCT: 0" role="graphics-symbol" aria-roledescription="point" transform="translate(165,300)" d="M2.739,0A2.739,2.739,0,1,1,-2.739,0A2.739,2.739,0,1,1,2.739,0" stroke="#4c78a8" stroke-width="2" opacity="0.7"/><path aria-label="EMPLOYEE_ID: 122; COMMISSION_PCT: 0" role="graphics-symbol" aria-roledescription="point" transform="translate(166.36363636363637,300)" d="M2.739,0A2.739,2.739,0,1,1,-2.739,0A2.739,2.739,0,1,1,2.739,0" stroke="#4c78a8" stroke-width="2" opacity="0.7"/><path aria-label="EMPLOYEE_ID: 123; COMMISSION_PCT: 0" role="graphics-symbol" aria-roledescription="point" transform="translate(167.72727272727272,300)" d="M2.739,0A2.739,2.739,0,1,1,-2.739,0A2.739,2.739,0,1,1,2.739,0" stroke="#4c78a8" stroke-width="2" opacity="0.7"/><path aria-label="EMPLOYEE_ID: 124; COMMISSION_PCT: 0" role="graphics-symbol" aria-roledescription="point" transform="translate(169.0909090909091,300)" d="M2.739,0A2.739,2.739,0,1,1,-2.739,0A2.739,2.739,0,1,1,2.739,0" stroke="#4c78a8" stroke-width="2" opacity="0.7"/><path aria-label="EMPLOYEE_ID: 125; COMMISSION_PCT: 0" role="graphics-symbol" aria-roledescription="point" transform="translate(170.45454545454547,300)" d="M2.739,0A2.739,2.739,0,1,1,-2.739,0A2.739,2.739,0,1,1,2.739,0" stroke="#4c78a8" stroke-width="2" opacity="0.7"/><path aria-label="EMPLOYEE_ID: 126; COMMISSION_PCT: 0" role="graphics-symbol" aria-roledescription="point" transform="translate(171.8181818181818,300)" d="M2.739,0A2.739,2.739,0,1,1,-2.739,0A2.739,2.739,0,1,1,2.739,0" stroke="#4c78a8" stroke-width="2" opacity="0.7"/><path aria-label="EMPLOYEE_ID: 127; COMMISSION_PCT: 0" role="graphics-symbol" aria-roledescription="point" transform="translate(173.1818181818182,300)" d="M2.739,0A2.739,2.739,0,1,1,-2.739,0A2.739,2.739,0,1,1,2.739,0" stroke="#4c78a8" stroke-width="2" opacity="0.7"/><path aria-label="EMPLOYEE_ID: 128; COMMISSION_PCT: 0" role="graphics-symbol" aria-roledescription="point" transform="translate(174.54545454545453,300)" d="M2.739,0A2.739,2.739,0,1,1,-2.739,0A2.739,2.739,0,1,1,2.739,0" stroke="#4c78a8" stroke-width="2" opacity="0.7"/><path aria-label="EMPLOYEE_ID: 129; COMMISSION_PCT: 0" role="graphics-symbol" aria-roledescription="point" transform="translate(175.9090909090909,300)" d="M2.739,0A2.739,2.739,0,1,1,-2.739,0A2.739,2.739,0,1,1,2.739,0" stroke="#4c78a8" stroke-width="2" opacity="0.7"/><path aria-label="EMPLOYEE_ID: 130; COMMISSION_PCT: 0" role="graphics-symbol" aria-roledescription="point" transform="translate(177.27272727272728,300)" d="M2.739,0A2.739,2.739,0,1,1,-2.739,0A2.739,2.739,0,1,1,2.739,0" stroke="#4c78a8" stroke-width="2" opacity="0.7"/><path aria-label="EMPLOYEE_ID: 131; COMMISSION_PCT: 0" role="graphics-symbol" aria-roledescription="point" transform="translate(178.63636363636363,300)" d="M2.739,0A2.739,2.739,0,1,1,-2.739,0A2.739,2.739,0,1,1,2.739,0" stroke="#4c78a8" stroke-width="2" opacity="0.7"/><path aria-label="EMPLOYEE_ID: 132; COMMISSION_PCT: 0" role="graphics-symbol" aria-roledescription="point" transform="translate(180,300)" d="M2.739,0A2.739,2.739,0,1,1,-2.739,0A2.739,2.739,0,1,1,2.739,0" stroke="#4c78a8" stroke-width="2" opacity="0.7"/><path aria-label="EMPLOYEE_ID: 133; COMMISSION_PCT: 0" role="graphics-symbol" aria-roledescription="point" transform="translate(181.36363636363635,300)" d="M2.739,0A2.739,2.739,0,1,1,-2.739,0A2.739,2.739,0,1,1,2.739,0" stroke="#4c78a8" stroke-width="2" opacity="0.7"/><path aria-label="EMPLOYEE_ID: 134; COMMISSION_PCT: 0" role="graphics-symbol" aria-roledescription="point" transform="translate(182.72727272727275,300)" d="M2.739,0A2.739,2.739,0,1,1,-2.739,0A2.739,2.739,0,1,1,2.739,0" stroke="#4c78a8" stroke-width="2" opacity="0.7"/><path aria-label="EMPLOYEE_ID: 135; COMMISSION_PCT: 0" role="graphics-symbol" aria-roledescription="point" transform="translate(184.0909090909091,300)" d="M2.739,0A2.739,2.739,0,1,1,-2.739,0A2.739,2.739,0,1,1,2.739,0" stroke="#4c78a8" stroke-width="2" opacity="0.7"/><path aria-label="EMPLOYEE_ID: 136; COMMISSION_PCT: 0" role="graphics-symbol" aria-roledescription="point" transform="translate(185.45454545454544,300)" d="M2.739,0A2.739,2.739,0,1,1,-2.739,0A2.739,2.739,0,1,1,2.739,0" stroke="#4c78a8" stroke-width="2" opacity="0.7"/><path aria-label="EMPLOYEE_ID: 137; COMMISSION_PCT: 0" role="graphics-symbol" aria-roledescription="point" transform="translate(186.8181818181818,300)" d="M2.739,0A2.739,2.739,0,1,1,-2.739,0A2.739,2.739,0,1,1,2.739,0" stroke="#4c78a8" stroke-width="2" opacity="0.7"/><path aria-label="EMPLOYEE_ID: 138; COMMISSION_PCT: 0" role="graphics-symbol" aria-roledescription="point" transform="translate(188.1818181818182,300)" d="M2.739,0A2.739,2.739,0,1,1,-2.739,0A2.739,2.739,0,1,1,2.739,0" stroke="#4c78a8" stroke-width="2" opacity="0.7"/><path aria-label="EMPLOYEE_ID: 139; COMMISSION_PCT: 0" role="graphics-symbol" aria-roledescription="point" transform="translate(189.54545454545456,300)" d="M2.739,0A2.739,2.739,0,1,1,-2.739,0A2.739,2.739,0,1,1,2.739,0" stroke="#4c78a8" stroke-width="2" opacity="0.7"/><path aria-label="EMPLOYEE_ID: 140; COMMISSION_PCT: 0" role="graphics-symbol" aria-roledescription="point" transform="translate(190.9090909090909,300)" d="M2.739,0A2.739,2.739,0,1,1,-2.739,0A2.739,2.739,0,1,1,2.739,0" stroke="#4c78a8" stroke-width="2" opacity="0.7"/><path aria-label="EMPLOYEE_ID: 141; COMMISSION_PCT: 0" role="graphics-symbol" aria-roledescription="point" transform="translate(192.27272727272725,300)" d="M2.739,0A2.739,2.739,0,1,1,-2.739,0A2.739,2.739,0,1,1,2.739,0" stroke="#4c78a8" stroke-width="2" opacity="0.7"/><path aria-label="EMPLOYEE_ID: 142; COMMISSION_PCT: 0" role="graphics-symbol" aria-roledescription="point" transform="translate(193.63636363636365,300)" d="M2.739,0A2.739,2.739,0,1,1,-2.739,0A2.739,2.739,0,1,1,2.739,0" stroke="#4c78a8" stroke-width="2" opacity="0.7"/><path aria-label="EMPLOYEE_ID: 143; COMMISSION_PCT: 0" role="graphics-symbol" aria-roledescription="point" transform="translate(195,300)" d="M2.739,0A2.739,2.739,0,1,1,-2.739,0A2.739,2.739,0,1,1,2.739,0" stroke="#4c78a8" stroke-width="2" opacity="0.7"/><path aria-label="EMPLOYEE_ID: 144; COMMISSION_PCT: 0" role="graphics-symbol" aria-roledescription="point" transform="translate(196.36363636363637,300)" d="M2.739,0A2.739,2.739,0,1,1,-2.739,0A2.739,2.739,0,1,1,2.739,0" stroke="#4c78a8" stroke-width="2" opacity="0.7"/><path aria-label="EMPLOYEE_ID: 145; COMMISSION_PCT: 0.4" role="graphics-symbol" aria-roledescription="point" transform="translate(197.72727272727272,0)" d="M2.739,0A2.739,2.739,0,1,1,-2.739,0A2.739,2.739,0,1,1,2.739,0" stroke="#4c78a8" stroke-width="2" opacity="0.7"/><path aria-label="EMPLOYEE_ID: 146; COMMISSION_PCT: 0.3" role="graphics-symbol" aria-roledescription="point" transform="translate(199.0909090909091,75.00000000000003)" d="M2.739,0A2.739,2.739,0,1,1,-2.739,0A2.739,2.739,0,1,1,2.739,0" stroke="#4c78a8" stroke-width="2" opacity="0.7"/><path aria-label="EMPLOYEE_ID: 147; COMMISSION_PCT: 0.3" role="graphics-symbol" aria-roledescription="point" transform="translate(200.45454545454547,75.00000000000003)" d="M2.739,0A2.739,2.739,0,1,1,-2.739,0A2.739,2.739,0,1,1,2.739,0" stroke="#4c78a8" stroke-width="2" opacity="0.7"/><path aria-label="EMPLOYEE_ID: 148; COMMISSION_PCT: 0.3" role="graphics-symbol" aria-roledescription="point" transform="translate(201.8181818181818,75.00000000000003)" d="M2.739,0A2.739,2.739,0,1,1,-2.739,0A2.739,2.739,0,1,1,2.739,0" stroke="#4c78a8" stroke-width="2" opacity="0.7"/><path aria-label="EMPLOYEE_ID: 149; COMMISSION_PCT: 0.2" role="graphics-symbol" aria-roledescription="point" transform="translate(203.1818181818182,150)" d="M2.739,0A2.739,2.739,0,1,1,-2.739,0A2.739,2.739,0,1,1,2.739,0" stroke="#4c78a8" stroke-width="2" opacity="0.7"/><path aria-label="EMPLOYEE_ID: 150; COMMISSION_PCT: 0.3" role="graphics-symbol" aria-roledescription="point" transform="translate(204.54545454545453,75.00000000000003)" d="M2.739,0A2.739,2.739,0,1,1,-2.739,0A2.739,2.739,0,1,1,2.739,0" stroke="#4c78a8" stroke-width="2" opacity="0.7"/><path aria-label="EMPLOYEE_ID: 151; COMMISSION_PCT: 0.25" role="graphics-symbol" aria-roledescription="point" transform="translate(205.9090909090909,112.5)" d="M2.739,0A2.739,2.739,0,1,1,-2.739,0A2.739,2.739,0,1,1,2.739,0" stroke="#4c78a8" stroke-width="2" opacity="0.7"/><path aria-label="EMPLOYEE_ID: 152; COMMISSION_PCT: 0.25" role="graphics-symbol" aria-roledescription="point" transform="translate(207.27272727272728,112.5)" d="M2.739,0A2.739,2.739,0,1,1,-2.739,0A2.739,2.739,0,1,1,2.739,0" stroke="#4c78a8" stroke-width="2" opacity="0.7"/><path aria-label="EMPLOYEE_ID: 153; COMMISSION_PCT: 0.2" role="graphics-symbol" aria-roledescription="point" transform="translate(208.63636363636363,150)" d="M2.739,0A2.739,2.739,0,1,1,-2.739,0A2.739,2.739,0,1,1,2.739,0" stroke="#4c78a8" stroke-width="2" opacity="0.7"/><path aria-label="EMPLOYEE_ID: 154; COMMISSION_PCT: 0.2" role="graphics-symbol" aria-roledescription="point" transform="translate(210,150)" d="M2.739,0A2.739,2.739,0,1,1,-2.739,0A2.739,2.739,0,1,1,2.739,0" stroke="#4c78a8" stroke-width="2" opacity="0.7"/><path aria-label="EMPLOYEE_ID: 155; COMMISSION_PCT: 0.15" role="graphics-symbol" aria-roledescription="point" transform="translate(211.36363636363637,187.5)" d="M2.739,0A2.739,2.739,0,1,1,-2.739,0A2.739,2.739,0,1,1,2.739,0" stroke="#4c78a8" stroke-width="2" opacity="0.7"/><path aria-label="EMPLOYEE_ID: 156; COMMISSION_PCT: 0.35" role="graphics-symbol" aria-roledescription="point" transform="translate(212.72727272727272,37.500000000000036)" d="M2.739,0A2.739,2.739,0,1,1,-2.739,0A2.739,2.739,0,1,1,2.739,0" stroke="#4c78a8" stroke-width="2" opacity="0.7"/><path aria-label="EMPLOYEE_ID: 157; COMMISSION_PCT: 0.35" role="graphics-symbol" aria-roledescription="point" transform="translate(214.0909090909091,37.500000000000036)" d="M2.739,0A2.739,2.739,0,1,1,-2.739,0A2.739,2.739,0,1,1,2.739,0" stroke="#4c78a8" stroke-width="2" opacity="0.7"/><path aria-label="EMPLOYEE_ID: 158; COMMISSION_PCT: 0.35" role="graphics-symbol" aria-roledescription="point" transform="translate(215.45454545454544,37.500000000000036)" d="M2.739,0A2.739,2.739,0,1,1,-2.739,0A2.739,2.739,0,1,1,2.739,0" stroke="#4c78a8" stroke-width="2" opacity="0.7"/><path aria-label="EMPLOYEE_ID: 159; COMMISSION_PCT: 0.3" role="graphics-symbol" aria-roledescription="point" transform="translate(216.81818181818184,75.00000000000003)" d="M2.739,0A2.739,2.739,0,1,1,-2.739,0A2.739,2.739,0,1,1,2.739,0" stroke="#4c78a8" stroke-width="2" opacity="0.7"/><path aria-label="EMPLOYEE_ID: 160; COMMISSION_PCT: 0.3" role="graphics-symbol" aria-roledescription="point" transform="translate(218.1818181818182,75.00000000000003)" d="M2.739,0A2.739,2.739,0,1,1,-2.739,0A2.739,2.739,0,1,1,2.739,0" stroke="#4c78a8" stroke-width="2" opacity="0.7"/><path aria-label="EMPLOYEE_ID: 161; COMMISSION_PCT: 0.25" role="graphics-symbol" aria-roledescription="point" transform="translate(219.54545454545453,112.5)" d="M2.739,0A2.739,2.739,0,1,1,-2.739,0A2.739,2.739,0,1,1,2.739,0" stroke="#4c78a8" stroke-width="2" opacity="0.7"/><path aria-label="EMPLOYEE_ID: 162; COMMISSION_PCT: 0.25" role="graphics-symbol" aria-roledescription="point" transform="translate(220.9090909090909,112.5)" d="M2.739,0A2.739,2.739,0,1,1,-2.739,0A2.739,2.739,0,1,1,2.739,0" stroke="#4c78a8" stroke-width="2" opacity="0.7"/><path aria-label="EMPLOYEE_ID: 163; COMMISSION_PCT: 0.15" role="graphics-symbol" aria-roledescription="point" transform="translate(222.27272727272728,187.5)" d="M2.739,0A2.739,2.739,0,1,1,-2.739,0A2.739,2.739,0,1,1,2.739,0" stroke="#4c78a8" stroke-width="2" opacity="0.7"/><path aria-label="EMPLOYEE_ID: 164; COMMISSION_PCT: 0.1" role="graphics-symbol" aria-roledescription="point" transform="translate(223.63636363636365,225)" d="M2.739,0A2.739,2.739,0,1,1,-2.739,0A2.739,2.739,0,1,1,2.739,0" stroke="#4c78a8" stroke-width="2" opacity="0.7"/><path aria-label="EMPLOYEE_ID: 165; COMMISSION_PCT: 0.1" role="graphics-symbol" aria-roledescription="point" transform="translate(225,225)" d="M2.739,0A2.739,2.739,0,1,1,-2.739,0A2.739,2.739,0,1,1,2.739,0" stroke="#4c78a8" stroke-width="2" opacity="0.7"/><path aria-label="EMPLOYEE_ID: 166; COMMISSION_PCT: 0.1" role="graphics-symbol" aria-roledescription="point" transform="translate(226.36363636363635,225)" d="M2.739,0A2.739,2.739,0,1,1,-2.739,0A2.739,2.739,0,1,1,2.739,0" stroke="#4c78a8" stroke-width="2" opacity="0.7"/><path aria-label="EMPLOYEE_ID: 167; COMMISSION_PCT: 0.1" role="graphics-symbol" aria-roledescription="point" transform="translate(227.72727272727272,225)" d="M2.739,0A2.739,2.739,0,1,1,-2.739,0A2.739,2.739,0,1,1,2.739,0" stroke="#4c78a8" stroke-width="2" opacity="0.7"/><path aria-label="EMPLOYEE_ID: 168; COMMISSION_PCT: 0.25" role="graphics-symbol" aria-roledescription="point" transform="translate(229.0909090909091,112.5)" d="M2.739,0A2.739,2.739,0,1,1,-2.739,0A2.739,2.739,0,1,1,2.739,0" stroke="#4c78a8" stroke-width="2" opacity="0.7"/><path aria-label="EMPLOYEE_ID: 169; COMMISSION_PCT: 0.2" role="graphics-symbol" aria-roledescription="point" transform="translate(230.45454545454547,150)" d="M2.739,0A2.739,2.739,0,1,1,-2.739,0A2.739,2.739,0,1,1,2.739,0" stroke="#4c78a8" stroke-width="2" opacity="0.7"/><path aria-label="EMPLOYEE_ID: 170; COMMISSION_PCT: 0.2" role="graphics-symbol" aria-roledescription="point" transform="translate(231.8181818181818,150)" d="M2.739,0A2.739,2.739,0,1,1,-2.739,0A2.739,2.739,0,1,1,2.739,0" stroke="#4c78a8" stroke-width="2" opacity="0.7"/><path aria-label="EMPLOYEE_ID: 171; COMMISSION_PCT: 0.15" role="graphics-symbol" aria-roledescription="point" transform="translate(233.18181818181816,187.5)" d="M2.739,0A2.739,2.739,0,1,1,-2.739,0A2.739,2.739,0,1,1,2.739,0" stroke="#4c78a8" stroke-width="2" opacity="0.7"/><path aria-label="EMPLOYEE_ID: 172; COMMISSION_PCT: 0.15" role="graphics-symbol" aria-roledescription="point" transform="translate(234.54545454545456,187.5)" d="M2.739,0A2.739,2.739,0,1,1,-2.739,0A2.739,2.739,0,1,1,2.739,0" stroke="#4c78a8" stroke-width="2" opacity="0.7"/><path aria-label="EMPLOYEE_ID: 173; COMMISSION_PCT: 0.1" role="graphics-symbol" aria-roledescription="point" transform="translate(235.9090909090909,225)" d="M2.739,0A2.739,2.739,0,1,1,-2.739,0A2.739,2.739,0,1,1,2.739,0" stroke="#4c78a8" stroke-width="2" opacity="0.7"/><path aria-label="EMPLOYEE_ID: 174; COMMISSION_PCT: 0.3" role="graphics-symbol" aria-roledescription="point" transform="translate(237.27272727272728,75.00000000000003)" d="M2.739,0A2.739,2.739,0,1,1,-2.739,0A2.739,2.739,0,1,1,2.739,0" stroke="#4c78a8" stroke-width="2" opacity="0.7"/><path aria-label="EMPLOYEE_ID: 175; COMMISSION_PCT: 0.25" role="graphics-symbol" aria-roledescription="point" transform="translate(238.63636363636363,112.5)" d="M2.739,0A2.739,2.739,0,1,1,-2.739,0A2.739,2.739,0,1,1,2.739,0" stroke="#4c78a8" stroke-width="2" opacity="0.7"/><path aria-label="EMPLOYEE_ID: 176; COMMISSION_PCT: 0.2" role="graphics-symbol" aria-roledescription="point" transform="translate(240,150)" d="M2.739,0A2.739,2.739,0,1,1,-2.739,0A2.739,2.739,0,1,1,2.739,0" stroke="#4c78a8" stroke-width="2" opacity="0.7"/><path aria-label="EMPLOYEE_ID: 177; COMMISSION_PCT: 0.2" role="graphics-symbol" aria-roledescription="point" transform="translate(241.36363636363637,150)" d="M2.739,0A2.739,2.739,0,1,1,-2.739,0A2.739,2.739,0,1,1,2.739,0" stroke="#4c78a8" stroke-width="2" opacity="0.7"/><path aria-label="EMPLOYEE_ID: 178; COMMISSION_PCT: 0.15" role="graphics-symbol" aria-roledescription="point" transform="translate(242.72727272727272,187.5)" d="M2.739,0A2.739,2.739,0,1,1,-2.739,0A2.739,2.739,0,1,1,2.739,0" stroke="#4c78a8" stroke-width="2" opacity="0.7"/><path aria-label="EMPLOYEE_ID: 179; COMMISSION_PCT: 0.1" role="graphics-symbol" aria-roledescription="point" transform="translate(244.0909090909091,225)" d="M2.739,0A2.739,2.739,0,1,1,-2.739,0A2.739,2.739,0,1,1,2.739,0" stroke="#4c78a8" stroke-width="2" opacity="0.7"/><path aria-label="EMPLOYEE_ID: 180; COMMISSION_PCT: 0" role="graphics-symbol" aria-roledescription="point" transform="translate(245.45454545454547,300)" d="M2.739,0A2.739,2.739,0,1,1,-2.739,0A2.739,2.739,0,1,1,2.739,0" stroke="#4c78a8" stroke-width="2" opacity="0.7"/><path aria-label="EMPLOYEE_ID: 181; COMMISSION_PCT: 0" role="graphics-symbol" aria-roledescription="point" transform="translate(246.8181818181818,300)" d="M2.739,0A2.739,2.739,0,1,1,-2.739,0A2.739,2.739,0,1,1,2.739,0" stroke="#4c78a8" stroke-width="2" opacity="0.7"/><path aria-label="EMPLOYEE_ID: 182; COMMISSION_PCT: 0" role="graphics-symbol" aria-roledescription="point" transform="translate(248.1818181818182,300)" d="M2.739,0A2.739,2.739,0,1,1,-2.739,0A2.739,2.739,0,1,1,2.739,0" stroke="#4c78a8" stroke-width="2" opacity="0.7"/><path aria-label="EMPLOYEE_ID: 183; COMMISSION_PCT: 0" role="graphics-symbol" aria-roledescription="point" transform="translate(249.54545454545453,300)" d="M2.739,0A2.739,2.739,0,1,1,-2.739,0A2.739,2.739,0,1,1,2.739,0" stroke="#4c78a8" stroke-width="2" opacity="0.7"/><path aria-label="EMPLOYEE_ID: 184; COMMISSION_PCT: 0" role="graphics-symbol" aria-roledescription="point" transform="translate(250.9090909090909,300)" d="M2.739,0A2.739,2.739,0,1,1,-2.739,0A2.739,2.739,0,1,1,2.739,0" stroke="#4c78a8" stroke-width="2" opacity="0.7"/><path aria-label="EMPLOYEE_ID: 185; COMMISSION_PCT: 0" role="graphics-symbol" aria-roledescription="point" transform="translate(252.27272727272728,300)" d="M2.739,0A2.739,2.739,0,1,1,-2.739,0A2.739,2.739,0,1,1,2.739,0" stroke="#4c78a8" stroke-width="2" opacity="0.7"/><path aria-label="EMPLOYEE_ID: 186; COMMISSION_PCT: 0" role="graphics-symbol" aria-roledescription="point" transform="translate(253.63636363636363,300)" d="M2.739,0A2.739,2.739,0,1,1,-2.739,0A2.739,2.739,0,1,1,2.739,0" stroke="#4c78a8" stroke-width="2" opacity="0.7"/><path aria-label="EMPLOYEE_ID: 187; COMMISSION_PCT: 0" role="graphics-symbol" aria-roledescription="point" transform="translate(255,300)" d="M2.739,0A2.739,2.739,0,1,1,-2.739,0A2.739,2.739,0,1,1,2.739,0" stroke="#4c78a8" stroke-width="2" opacity="0.7"/><path aria-label="EMPLOYEE_ID: 188; COMMISSION_PCT: 0" role="graphics-symbol" aria-roledescription="point" transform="translate(256.3636363636364,300)" d="M2.739,0A2.739,2.739,0,1,1,-2.739,0A2.739,2.739,0,1,1,2.739,0" stroke="#4c78a8" stroke-width="2" opacity="0.7"/><path aria-label="EMPLOYEE_ID: 189; COMMISSION_PCT: 0" role="graphics-symbol" aria-roledescription="point" transform="translate(257.72727272727275,300)" d="M2.739,0A2.739,2.739,0,1,1,-2.739,0A2.739,2.739,0,1,1,2.739,0" stroke="#4c78a8" stroke-width="2" opacity="0.7"/><path aria-label="EMPLOYEE_ID: 190; COMMISSION_PCT: 0" role="graphics-symbol" aria-roledescription="point" transform="translate(259.0909090909091,300)" d="M2.739,0A2.739,2.739,0,1,1,-2.739,0A2.739,2.739,0,1,1,2.739,0" stroke="#4c78a8" stroke-width="2" opacity="0.7"/><path aria-label="EMPLOYEE_ID: 191; COMMISSION_PCT: 0" role="graphics-symbol" aria-roledescription="point" transform="translate(260.45454545454544,300)" d="M2.739,0A2.739,2.739,0,1,1,-2.739,0A2.739,2.739,0,1,1,2.739,0" stroke="#4c78a8" stroke-width="2" opacity="0.7"/><path aria-label="EMPLOYEE_ID: 192; COMMISSION_PCT: 0" role="graphics-symbol" aria-roledescription="point" transform="translate(261.8181818181818,300)" d="M2.739,0A2.739,2.739,0,1,1,-2.739,0A2.739,2.739,0,1,1,2.739,0" stroke="#4c78a8" stroke-width="2" opacity="0.7"/><path aria-label="EMPLOYEE_ID: 193; COMMISSION_PCT: 0" role="graphics-symbol" aria-roledescription="point" transform="translate(263.1818181818182,300)" d="M2.739,0A2.739,2.739,0,1,1,-2.739,0A2.739,2.739,0,1,1,2.739,0" stroke="#4c78a8" stroke-width="2" opacity="0.7"/><path aria-label="EMPLOYEE_ID: 194; COMMISSION_PCT: 0" role="graphics-symbol" aria-roledescription="point" transform="translate(264.54545454545456,300)" d="M2.739,0A2.739,2.739,0,1,1,-2.739,0A2.739,2.739,0,1,1,2.739,0" stroke="#4c78a8" stroke-width="2" opacity="0.7"/><path aria-label="EMPLOYEE_ID: 195; COMMISSION_PCT: 0" role="graphics-symbol" aria-roledescription="point" transform="translate(265.9090909090909,300)" d="M2.739,0A2.739,2.739,0,1,1,-2.739,0A2.739,2.739,0,1,1,2.739,0" stroke="#4c78a8" stroke-width="2" opacity="0.7"/><path aria-label="EMPLOYEE_ID: 196; COMMISSION_PCT: 0" role="graphics-symbol" aria-roledescription="point" transform="translate(267.27272727272725,300)" d="M2.739,0A2.739,2.739,0,1,1,-2.739,0A2.739,2.739,0,1,1,2.739,0" stroke="#4c78a8" stroke-width="2" opacity="0.7"/><path aria-label="EMPLOYEE_ID: 197; COMMISSION_PCT: 0" role="graphics-symbol" aria-roledescription="point" transform="translate(268.6363636363636,300)" d="M2.739,0A2.739,2.739,0,1,1,-2.739,0A2.739,2.739,0,1,1,2.739,0" stroke="#4c78a8" stroke-width="2" opacity="0.7"/><path aria-label="EMPLOYEE_ID: 198; COMMISSION_PCT: 0" role="graphics-symbol" aria-roledescription="point" transform="translate(270,300)" d="M2.739,0A2.739,2.739,0,1,1,-2.739,0A2.739,2.739,0,1,1,2.739,0" stroke="#4c78a8" stroke-width="2" opacity="0.7"/><path aria-label="EMPLOYEE_ID: 199; COMMISSION_PCT: 0" role="graphics-symbol" aria-roledescription="point" transform="translate(271.3636363636364,300)" d="M2.739,0A2.739,2.739,0,1,1,-2.739,0A2.739,2.739,0,1,1,2.739,0" stroke="#4c78a8" stroke-width="2" opacity="0.7"/><path aria-label="EMPLOYEE_ID: 200; COMMISSION_PCT: 0" role="graphics-symbol" aria-roledescription="point" transform="translate(272.7272727272727,300)" d="M2.739,0A2.739,2.739,0,1,1,-2.739,0A2.739,2.739,0,1,1,2.739,0" stroke="#4c78a8" stroke-width="2" opacity="0.7"/><path aria-label="EMPLOYEE_ID: 201; COMMISSION_PCT: 0" role="graphics-symbol" aria-roledescription="point" transform="translate(274.0909090909091,300)" d="M2.739,0A2.739,2.739,0,1,1,-2.739,0A2.739,2.739,0,1,1,2.739,0" stroke="#4c78a8" stroke-width="2" opacity="0.7"/><path aria-label="EMPLOYEE_ID: 202; COMMISSION_PCT: 0" role="graphics-symbol" aria-roledescription="point" transform="translate(275.45454545454544,300)" d="M2.739,0A2.739,2.739,0,1,1,-2.739,0A2.739,2.739,0,1,1,2.739,0" stroke="#4c78a8" stroke-width="2" opacity="0.7"/><path aria-label="EMPLOYEE_ID: 203; COMMISSION_PCT: 0" role="graphics-symbol" aria-roledescription="point" transform="translate(276.8181818181818,300)" d="M2.739,0A2.739,2.739,0,1,1,-2.739,0A2.739,2.739,0,1,1,2.739,0" stroke="#4c78a8" stroke-width="2" opacity="0.7"/><path aria-label="EMPLOYEE_ID: 204; COMMISSION_PCT: 0" role="graphics-symbol" aria-roledescription="point" transform="translate(278.1818181818182,300)" d="M2.739,0A2.739,2.739,0,1,1,-2.739,0A2.739,2.739,0,1,1,2.739,0" stroke="#4c78a8" stroke-width="2" opacity="0.7"/><path aria-label="EMPLOYEE_ID: 205; COMMISSION_PCT: 0" role="graphics-symbol" aria-roledescription="point" transform="translate(279.5454545454545,300)" d="M2.739,0A2.739,2.739,0,1,1,-2.739,0A2.739,2.739,0,1,1,2.739,0" stroke="#4c78a8" stroke-width="2" opacity="0.7"/><path aria-label="EMPLOYEE_ID: 206; COMMISSION_PCT: 0" role="graphics-symbol" aria-roledescription="point" transform="translate(280.90909090909093,300)" d="M2.739,0A2.739,2.739,0,1,1,-2.739,0A2.739,2.739,0,1,1,2.739,0" stroke="#4c78a8" stroke-width="2" opacity="0.7"/></g></g><path class="foreground" aria-hidden="true" d="" display="none"/></g></g></g></svg>