<svg xmlns="http://www.w3.org/2000/svg" xmlns:xlink="http://www.w3.org/1999/xlink" version="1.1" class="marks" width="333" height="358" viewBox="0 0 333 358"><rect width="333" height="358" fill="white"/><g fill="none" stroke-miterlimit="10" transform="translate(72,10)"><g class="mark-group role-frame root" role="graphics-object" aria-roledescription="group mark container"><g transform="translate(0,0)"><path class="background" aria-hidden="true" d="M0.5,0.5h140v300h-140Z" stroke="#ddd"/><g><g class="mark-group role-axis" aria-hidden="true"><g transform="translate(0.5,0.5)"><path class="background" aria-hidden="true" d="M0,0h0v0h0Z" pointer-events="none"/><g><g class="mark-rule role-axis-grid" pointer-events="none"><line transform="translate(0,300)" x2="140" y2="0" stroke="#ddd" stroke-width="1" opacity="1"/><line transform="translate(0,250)" x2="140" y2="0" stroke="#ddd" stroke-width="1" opacity="1"/><line transform="translate(0,200)" x2="140" y2="0" stroke="#ddd" stroke-width="1" opacity="1"/><line transform="translate(0,150)" x2="140" y2="0" stroke="#ddd" stroke-width="1" opacity="1"/><line transform="translate(0,100)" x2="140" y2="0" stroke="#ddd" stroke-width="1" opacity="1"/><line transform="translate(0,50)" x2="140" y2="0" stroke="#ddd" stroke-width="1" opacity="1"/><line transform="translate(0,0)" x2="140" y2="0" stroke="#ddd" stroke-width="1" opacity="1"/></g></g><path class="foreground" aria-hidden="true" d="" pointer-events="none" display="none"/></g></g><g class="mark-group role-axis" role="graphics-symbol" aria-roledescription="axis" aria-label="X-axis titled 'Date_Payment_Made' for a discrete scale with 7 values: Wed, Tue, Thur, Sun, Sat, Mon, Fri"><g transform="translate(0.5,300.5)"><path class="background" aria-hidden="true" d="M0,0h0v0h0Z" pointer-events="none"/><g><g class="mark-rule role-axis-tick" pointer-events="none"><line transform="translate(10,0)" x2="0" y2="5" stroke="#888" stroke-width="1" opacity="1"/><line transform="translate(30,0)" x2="0" y2="5" stroke="#888" stroke-width="1" opacity="1"/><line transform="translate(50,0)" x2="0" y2="5" stroke="#888" stroke-width="1" opacity="1"/><line transform="translate(70,0)" x2="0" y2="5" stroke="#888" stroke-width="1" opacity="1"/><line transform="translate(90,0)" x2="0" y2="5" stroke="#888" stroke-width="1" opacity="1"/><line transform="translate(110,0)" x2="0" y2="5" stroke="#888" stroke-width="1" opacity="1"/><line transform="translate(130,0)" x2="0" y2="5" stroke="#888" stroke-width="1" opacity="1"/></g><g class="mark-text role-axis-label" pointer-events="none"><text text-anchor="end" transform="translate(9.5,7) rotate(270) translate(0,3)" font-family="sans-serif" font-size="10px" fill="#000" opacity="1">Wed</text><text text-anchor="end" transform="translate(29.5,7) rotate(270) translate(0,3)" font-family="sans-serif" font-size="10px" fill="#000" opacity="1">Tue</text><text text-anchor="end" transform="translate(49.5,7) rotate(270) translate(0,3)" font-family="sans-serif" font-size="10px" fill="#000" opacity="1">Thur</text><text text-anchor="end" transform="translate(69.5,7) rotate(270) translate(0,3)" font-family="sans-serif" font-size="10px" fill="#000" opacity="1">Sun</text><text text-anchor="end" transform="translate(89.5,7) rotate(270) translate(0,3)" font-family="sans-serif" font-size="10px" fill="#000" opacity="1">Sat</text><text text-anchor="end" transform="translate(109.5,7) rotate(270) translate(0,3)" font-family="sans-serif" font-size="10px" fill="#000" opacity="1">Mon</text><text text-anchor="end" transform="translate(129.5,7) rotate(270) translate(0,3)" font-family="sans-serif" font-size="10px" fill="#000" opacity="1">Fri</text></g><g class="mark-rule role-axis-domain" pointer-events="none"><line transform="translate(0,0)" x2="140" y2="0" stroke="#888" stroke-width="1" opacity="1"/></g><g class="mark-text role-axis-title" pointer-events="none"><text text-anchor="middle" transform="translate(70,40.5615234375)" font-family="sans-serif" font-size="11px" font-weight="bold" fill="#000" opacity="1">Date_Payment_Made</text></g></g><path class="foreground" aria-hidden="true" d="" pointer-events="none" display="none"/></g></g><g class="mark-group role-axis" role="graphics-symbol" aria-roledescription="axis" aria-label="Y-axis titled 'SUM(Amount_Payment)' for a linear scale with values from 0 to 1,200,000"><g transform="translate(0.5,0.5)"><path class="background" aria-hidden="true" d="M0,0h0v0h0Z" pointer-events="none"/><g><g class="mark-rule role-axis-tick" pointer-events="none"><line transform="translate(0,300)" x2="-5" y2="0" stroke="#888" stroke-width="1" opacity="1"/><line transform="translate(0,250)" x2="-5" y2="0" stroke="#888" stroke-width="1" opacity="1"/><line transform="translate(0,200)" x2="-5" y2="0" stroke="#888" stroke-width="1" opacity="1"/><line transform="translate(0,150)" x2="-5" y2="0" stroke="#888" stroke-width="1" opacity="1"/><line transform="translate(0,100)" x2="-5" y2="0" stroke="#888" stroke-width="1" opacity="1"/><line transform="translate(0,50)" x2="-5" y2="0" stroke="#888" stroke-width="1" opacity="1"/><line transform="translate(0,0)" x2="-5" y2="0" stroke="#888" stroke-width="1" opacity="1"/></g><g class="mark-text role-axis-label" pointer-events="none"><text text-anchor="end" transform="translate(-7,303)" font-family="sans-serif" font-size="10px" fill="#000" opacity="1">0</text><text text-anchor="end" transform="translate(-7,253)" font-family="sans-serif" font-size="10px" fill="#000" opacity="1">200,000</text><text text-anchor="end" transform="translate(-7,203.00000000000003)" font-family="sans-serif" font-size="10px" fill="#000" opacity="1">400,000</text><text text-anchor="end" transform="translate(-7,153)" font-family="sans-serif" font-size="10px" fill="#000" opacity="1">600,000</text><text text-anchor="end" transform="translate(-7,103.00000000000001)" font-family="sans-serif" font-size="10px" fill="#000" opacity="1">800,000</text><text text-anchor="end" transform="translate(-7,52.999999999999986)" font-family="sans-serif" font-size="10px" fill="#000" opacity="1">1,000,000</text><text text-anchor="end" transform="translate(-7,3)" font-family="sans-serif" font-size="10px" fill="#000" opacity="1">1,200,000</text></g><g class="mark-rule role-axis-domain" pointer-events="none"><line transform="translate(0,300)" x2="0" y2="-300" stroke="#888" stroke-width="1" opacity="1"/></g><g class="mark-text role-axis-title" pointer-events="none"><text text-anchor="middle" transform="translate(-55.4873046875,150) rotate(-90) translate(0,-2)" font-family="sans-serif" font-size="11px" font-weight="bold" fill="#000" opacity="1">SUM(Amount_Payment)</text></g></g><path class="foreground" aria-hidden="true" d="" pointer-events="none" display="none"/></g></g><g class="mark-rect role-mark marks" role="graphics-object" aria-roledescription="rect mark container"><path aria-label="Date_Payment_Made: Mon; SUM(Amount_Payment): 0; classify: American Express" role="graphics-symbol" aria-roledescription="bar" d="M101,194.2115h18v0h-18Z" fill="#4c78a8"/><path aria-label="Date_Payment_Made: Tue; SUM(Amount_Payment): 0; classify: American Express" role="graphics-symbol" aria-roledescription="bar" d="M21,300h18v0h-18Z" fill="#4c78a8"/><path aria-label="Date_Payment_Made: Wed; SUM(Amount_Payment): 0; classify: American Express" role="graphics-symbol" aria-roledescription="bar" d="M1,155.114h18v0h-18Z" fill="#4c78a8"/><path aria-label="Date_Payment_Made: Thur; SUM(Amount_Payment): 0; classify: American Express" role="graphics-symbol" aria-roledescription="bar" d="M41,269.18625000000003h18v0h-18Z" fill="#4c78a8"/><path aria-label="Date_Payment_Made: Fri; SUM(Amount_Payment): 177130; classify: American Express" role="graphics-symbol" aria-roledescription="bar" d="M121,195.28499999999997h18v44.282500000000056h-18Z" fill="#4c78a8"/><path aria-label="Date_Payment_Made: Sat; SUM(Amount_Payment): 0; classify: American Express" role="graphics-symbol" aria-roledescription="bar" d="M81,51.4765h18v0h-18Z" fill="#4c78a8"/><path aria-label="Date_Payment_Made: Sun; SUM(Amount_Payment): 0; classify: American Express" role="graphics-symbol" aria-roledescription="bar" d="M61,0.5934999999999913h18v0h-18Z" fill="#4c78a8"/><path aria-label="Date_Payment_Made: Mon; SUM(Amount_Payment): 0; classify: Discover Card" role="graphics-symbol" aria-roledescription="bar" d="M101,194.2115h18v0h-18Z" fill="#f58518"/><path aria-label="Date_Payment_Made: Tue; SUM(Amount_Payment): 0; classify: Discover Card" role="graphics-symbol" aria-roledescription="bar" d="M21,300h18v0h-18Z" fill="#f58518"/><path aria-label="Date_Payment_Made: Wed; SUM(Amount_Payment): 0; classify: Discover Card" role="graphics-symbol" aria-roledescription="bar" d="M1,155.114h18v0h-18Z" fill="#f58518"/><path aria-label="Date_Payment_Made: Thur; SUM(Amount_Payment): 123255; classify: Discover Card" role="graphics-symbol" aria-roledescription="bar" d="M41,269.18625000000003h18v30.81374999999997h-18Z" fill="#f58518"/><path aria-label="Date_Payment_Made: Fri; SUM(Amount_Payment): 0; classify: Discover Card" role="graphics-symbol" aria-roledescription="bar" d="M121,239.56750000000002h18v0h-18Z" fill="#f58518"/><path aria-label="Date_Payment_Made: Sat; SUM(Amount_Payment): 71246; classify: Discover Card" role="graphics-symbol" aria-roledescription="bar" d="M81,51.4765h18v17.81150000000001h-18Z" fill="#f58518"/><path aria-label="Date_Payment_Made: Sun; SUM(Amount_Payment): 38324; classify: Discover Card" role="graphics-symbol" aria-roledescription="bar" d="M61,0.5934999999999913h18v9.581000000000017h-18Z" fill="#f58518"/><path aria-label="Date_Payment_Made: Mon; SUM(Amount_Payment): 423154; classify: MasterCard" role="graphics-symbol" aria-roledescription="bar" d="M101,194.2115h18v105.7885h-18Z" fill="#e45756"/><path aria-label="Date_Payment_Made: Tue; SUM(Amount_Payment): 0; classify: MasterCard" role="graphics-symbol" aria-roledescription="bar" d="M21,300h18v0h-18Z" fill="#e45756"/><path aria-label="Date_Payment_Made: Wed; SUM(Amount_Payment): 407235; classify: MasterCard" role="graphics-symbol" aria-roledescription="bar" d="M1,155.114h18v101.80875h-18Z" fill="#e45756"/><path aria-label="Date_Payment_Made: Thur; SUM(Amount_Payment): 0; classify: MasterCard" role="graphics-symbol" aria-roledescription="bar" d="M41,300h18v0h-18Z" fill="#e45756"/><path aria-label="Date_Payment_Made: Fri; SUM(Amount_Payment): 241730; classify: MasterCard" role="graphics-symbol" aria-roledescription="bar" d="M121,239.56750000000002h18v60.432499999999976h-18Z" fill="#e45756"/><path aria-label="Date_Payment_Made: Sat; SUM(Amount_Payment): 456098; classify: MasterCard" role="graphics-symbol" aria-roledescription="bar" d="M81,69.28800000000001h18v114.02449999999999h-18Z" fill="#e45756"/><path aria-label="Date_Payment_Made: Sun; SUM(Amount_Payment): 1003648; classify: MasterCard" role="graphics-symbol" aria-roledescription="bar" d="M61,10.174500000000009h18v250.91199999999998h-18Z" fill="#e45756"/><path aria-label="Date_Payment_Made: Mon; SUM(Amount_Payment): 0; classify: Visa" role="graphics-symbol" aria-roledescription="bar" d="M101,300h18v0h-18Z" fill="#72b7b2"/><path aria-label="Date_Payment_Made: Tue; SUM(Amount_Payment): 0; classify: Visa" role="graphics-symbol" aria-roledescription="bar" d="M21,300h18v0h-18Z" fill="#72b7b2"/><path aria-label="Date_Payment_Made: Wed; SUM(Amount_Payment): 172309; classify: Visa" role="graphics-symbol" aria-roledescription="bar" d="M1,256.92275h18v43.07724999999999h-18Z" fill="#72b7b2"/><path aria-label="Date_Payment_Made: Thur; SUM(Amount_Payment): 0; classify: Visa" role="graphics-symbol" aria-roledescription="bar" d="M41,300h18v0h-18Z" fill="#72b7b2"/><path aria-label="Date_Payment_Made: Fri; SUM(Amount_Payment): 0; classify: Visa" role="graphics-symbol" aria-roledescription="bar" d="M121,300h18v0h-18Z" fill="#72b7b2"/><path aria-label="Date_Payment_Made: Sat; SUM(Amount_Payment): 466750; classify: Visa" role="graphics-symbol" aria-roledescription="bar" d="M81,183.3125h18v116.6875h-18Z" fill="#72b7b2"/><path aria-label="Date_Payment_Made: Sun; SUM(Amount_Payment): 155654; classify: Visa" role="graphics-symbol" aria-roledescription="bar" d="M61,261.0865h18v38.9135h-18Z" fill="#72b7b2"/></g><g class="mark-group role-legend" role="graphics-symbol" aria-roledescription="legend" aria-label="Symbol legend titled 'classify' for fill color with 4 values: American Express, Discover Card, MasterCard, Visa"><g transform="translate(158,0)"><path class="background" aria-hidden="true" d="M0,0h98v66h-98Z" pointer-events="none"/><g><g class="mark-group role-legend-entry"><g transform="translate(0,16)"><path class="background" aria-hidden="true" d="M0,0h0v0h0Z" pointer-events="none"/><g><g class="mark-group role-scope" role="graphics-object" aria-roledescription="group mark container"><g transform="translate(0,0)"><path class="background" aria-hidden="true" d="M0,0h97.1376953125v11h-97.1376953125Z" pointer-events="none" opacity="1"/><g><g class="mark-symbol role-legend-symbol" pointer-events="none"><path transform="translate(6,6)" d="M-5,-5h10v10h-10Z" fill="#4c78a8" stroke-width="1.5" opacity="1"/></g><g class="mark-text role-legend-label" pointer-events="none"><text text-anchor="start" transform="translate(16,9)" font-family="sans-serif" font-size="10px" fill="#000" opacity="1">American Express</text></g></g><path class="foreground" aria-hidden="true" d="" pointer-events="none" display="none"/></g><g transform="translate(0,13)"><path class="background" aria-hidden="true" d="M0,0h97.1376953125v11h-97.1376953125Z" pointer-events="none" opacity="1"/><g><g class="mark-symbol role-legend-symbol" pointer-events="none"><path transform="translate(6,6)" d="M-5,-5h10v10h-10Z" fill="#f58518" stroke-width="1.5" opacity="1"/></g><g class="mark-text role-legend-label" pointer-events="none"><text text-anchor="start" transform="translate(16,9)" font-family="sans-serif" font-size="10px" fill="#000" opacity="1">Discover Card</text></g></g><path class="foreground" aria-hidden="true" d="" pointer-events="none" display="none"/></g><g transform="translate(0,26)"><path class="background" aria-hidden="true" d="M0,0h97.1376953125v11h-97.1376953125Z" pointer-events="none" opacity="1"/><g><g class="mark-symbol role-legend-symbol" pointer-events="none"><path transform="translate(6,6)" d="M-5,-5h10v10h-10Z" fill="#e45756" stroke-width="1.5" opacity="1"/></g><g class="mark-text role-legend-label" pointer-events="none"><text text-anchor="start" transform="translate(16,9)" font-family="sans-serif" font-size="10px" fill="#000" opacity="1">MasterCard</text></g></g><path class="foreground" aria-hidden="true" d="" pointer-events="none" display="none"/></g><g transform="translate(0,39)"><path class="background" aria-hidden="true" d="M0,0h97.1376953125v11h-97.1376953125Z" pointer-events="none" opacity="1"/><g><g class="mark-symbol role-legend-symbol" pointer-events="none"><path transform="translate(6,6)" d="M-5,-5h10v10h-10Z" fill="#72b7b2" stroke-width="1.5" opacity="1"/></g><g class="mark-text role-legend-label" pointer-events="none"><text text-anchor="start" transform="translate(16,9)" font-family="sans-serif" font-size="10px" fill="#000" opacity="1">Visa</text></g></g><path class="foreground" aria-hidden="true" d="" pointer-events="none" display="none"/></g></g></g><path class="foreground" aria-hidden="true" d="" pointer-events="none" display="none"/></g></g><g class="mark-text role-legend-title" pointer-events="none"><text text-anchor="start" transform="translate(0,9)" font-family="sans-serif" font-size="11px" font-weight="bold" fill="#000" opacity="1">classify</text></g></g><path class="foreground" aria-hidden="true" d="" pointer-events="none" display="none"/></g></g></g><path class="foreground" aria-hidden="true" d="" display="none"/></g></g></g></svg>