<svg xmlns="http://www.w3.org/2000/svg" xmlns:xlink="http://www.w3.org/1999/xlink" version="1.1" class="marks" width="325" height="358" viewBox="0 0 325 358"><rect width="325" height="358" fill="white"/><g fill="none" stroke-miterlimit="10" transform="translate(64,10)"><g class="mark-group role-frame root" role="graphics-object" aria-roledescription="group mark container"><g transform="translate(0,0)"><path class="background" aria-hidden="true" d="M0.5,0.5h140v300h-140Z" stroke="#ddd"/><g><g class="mark-group role-axis" aria-hidden="true"><g transform="translate(0.5,0.5)"><path class="background" aria-hidden="true" d="M0,0h0v0h0Z" pointer-events="none"/><g><g class="mark-rule role-axis-grid" pointer-events="none"><line transform="translate(0,300)" x2="140" y2="0" stroke="#ddd" stroke-width="1" opacity="1"/><line transform="translate(0,263)" x2="140" y2="0" stroke="#ddd" stroke-width="1" opacity="1"/><line transform="translate(0,225)" x2="140" y2="0" stroke="#ddd" stroke-width="1" opacity="1"/><line transform="translate(0,188)" x2="140" y2="0" stroke="#ddd" stroke-width="1" opacity="1"/><line transform="translate(0,150)" x2="140" y2="0" stroke="#ddd" stroke-width="1" opacity="1"/><line transform="translate(0,113)" x2="140" y2="0" stroke="#ddd" stroke-width="1" opacity="1"/><line transform="translate(0,75)" x2="140" y2="0" stroke="#ddd" stroke-width="1" opacity="1"/><line transform="translate(0,38)" x2="140" y2="0" stroke="#ddd" stroke-width="1" opacity="1"/><line transform="translate(0,0)" x2="140" y2="0" stroke="#ddd" stroke-width="1" opacity="1"/></g></g><path class="foreground" aria-hidden="true" d="" pointer-events="none" display="none"/></g></g><g class="mark-group role-axis" role="graphics-symbol" aria-roledescription="axis" aria-label="X-axis titled 'Date_Payment_Made' for a discrete scale with 7 values: Wed, Tue, Thur, Sun, Sat, Mon, Fri"><g transform="translate(0.5,300.5)"><path class="background" aria-hidden="true" d="M0,0h0v0h0Z" pointer-events="none"/><g><g class="mark-rule role-axis-tick" pointer-events="none"><line transform="translate(10,0)" x2="0" y2="5" stroke="#888" stroke-width="1" opacity="1"/><line transform="translate(30,0)" x2="0" y2="5" stroke="#888" stroke-width="1" opacity="1"/><line transform="translate(50,0)" x2="0" y2="5" stroke="#888" stroke-width="1" opacity="1"/><line transform="translate(70,0)" x2="0" y2="5" stroke="#888" stroke-width="1" opacity="1"/><line transform="translate(90,0)" x2="0" y2="5" stroke="#888" stroke-width="1" opacity="1"/><line transform="translate(110,0)" x2="0" y2="5" stroke="#888" stroke-width="1" opacity="1"/><line transform="translate(130,0)" x2="0" y2="5" stroke="#888" stroke-width="1" opacity="1"/></g><g class="mark-text role-axis-label" pointer-events="none"><text text-anchor="end" transform="translate(9.5,7) rotate(270) translate(0,3)" font-family="sans-serif" font-size="10px" fill="#000" opacity="1">Wed</text><text text-anchor="end" transform="translate(29.5,7) rotate(270) translate(0,3)" font-family="sans-serif" font-size="10px" fill="#000" opacity="1">Tue</text><text text-anchor="end" transform="translate(49.5,7) rotate(270) translate(0,3)" font-family="sans-serif" font-size="10px" fill="#000" opacity="1">Thur</text><text text-anchor="end" transform="translate(69.5,7) rotate(270) translate(0,3)" font-family="sans-serif" font-size="10px" fill="#000" opacity="1">Sun</text><text text-anchor="end" transform="translate(89.5,7) rotate(270) translate(0,3)" font-family="sans-serif" font-size="10px" fill="#000" opacity="1">Sat</text><text text-anchor="end" transform="translate(109.5,7) rotate(270) translate(0,3)" font-family="sans-serif" font-size="10px" fill="#000" opacity="1">Mon</text><text text-anchor="end" transform="translate(129.5,7) rotate(270) translate(0,3)" font-family="sans-serif" font-size="10px" fill="#000" opacity="1">Fri</text></g><g class="mark-rule role-axis-domain" pointer-events="none"><line transform="translate(0,0)" x2="140" y2="0" stroke="#888" stroke-width="1" opacity="1"/></g><g class="mark-text role-axis-title" pointer-events="none"><text text-anchor="middle" transform="translate(70,40.5615234375)" font-family="sans-serif" font-size="11px" font-weight="bold" fill="#000" opacity="1">Date_Payment_Made</text></g></g><path class="foreground" aria-hidden="true" d="" pointer-events="none" display="none"/></g></g><g class="mark-group role-axis" role="graphics-symbol" aria-roledescription="axis" aria-label="Y-axis titled 'AVG(Amount_Payment)' for a linear scale with values from 0 to 800,000"><g transform="translate(0.5,0.5)"><path class="background" aria-hidden="true" d="M0,0h0v0h0Z" pointer-events="none"/><g><g class="mark-rule role-axis-tick" pointer-events="none"><line transform="translate(0,300)" x2="-5" y2="0" stroke="#888" stroke-width="1" opacity="1"/><line transform="translate(0,263)" x2="-5" y2="0" stroke="#888" stroke-width="1" opacity="1"/><line transform="translate(0,225)" x2="-5" y2="0" stroke="#888" stroke-width="1" opacity="1"/><line transform="translate(0,188)" x2="-5" y2="0" stroke="#888" stroke-width="1" opacity="1"/><line transform="translate(0,150)" x2="-5" y2="0" stroke="#888" stroke-width="1" opacity="1"/><line transform="translate(0,113)" x2="-5" y2="0" stroke="#888" stroke-width="1" opacity="1"/><line transform="translate(0,75)" x2="-5" y2="0" stroke="#888" stroke-width="1" opacity="1"/><line transform="translate(0,38)" x2="-5" y2="0" stroke="#888" stroke-width="1" opacity="1"/><line transform="translate(0,0)" x2="-5" y2="0" stroke="#888" stroke-width="1" opacity="1"/></g><g class="mark-text role-axis-label" pointer-events="none"><text text-anchor="end" transform="translate(-7,303)" font-family="sans-serif" font-size="10px" fill="#000" opacity="1">0</text><text text-anchor="end" transform="translate(-7,265.5)" font-family="sans-serif" font-size="10px" fill="#000" opacity="1">100,000</text><text text-anchor="end" transform="translate(-7,228)" font-family="sans-serif" font-size="10px" fill="#000" opacity="1">200,000</text><text text-anchor="end" transform="translate(-7,190.5)" font-family="sans-serif" font-size="10px" fill="#000" opacity="1">300,000</text><text text-anchor="end" transform="translate(-7,153)" font-family="sans-serif" font-size="10px" fill="#000" opacity="1">400,000</text><text text-anchor="end" transform="translate(-7,115.5)" font-family="sans-serif" font-size="10px" fill="#000" opacity="1">500,000</text><text text-anchor="end" transform="translate(-7,78)" font-family="sans-serif" font-size="10px" fill="#000" opacity="1">600,000</text><text text-anchor="end" transform="translate(-7,40.5)" font-family="sans-serif" font-size="10px" fill="#000" opacity="1">700,000</text><text text-anchor="end" transform="translate(-7,3)" font-family="sans-serif" font-size="10px" fill="#000" opacity="1">800,000</text></g><g class="mark-rule role-axis-domain" pointer-events="none"><line transform="translate(0,300)" x2="0" y2="-300" stroke="#888" stroke-width="1" opacity="1"/></g><g class="mark-text role-axis-title" pointer-events="none"><text text-anchor="middle" transform="translate(-47.1474609375,150) rotate(-90) translate(0,-2)" font-family="sans-serif" font-size="11px" font-weight="bold" fill="#000" opacity="1">AVG(Amount_Payment)</text></g></g><path class="foreground" aria-hidden="true" d="" pointer-events="none" display="none"/></g></g><g class="mark-rect role-mark marks" role="graphics-object" aria-roledescription="rect mark container"><path aria-label="Date_Payment_Made: Mon; AVG(Amount_Payment): 0; classify: American Express" role="graphics-symbol" aria-roledescription="bar" d="M101,141.31725h18v0h-18Z" fill="#4c78a8"/><path aria-label="Date_Payment_Made: Tue; AVG(Amount_Payment): 0; classify: American Express" role="graphics-symbol" aria-roledescription="bar" d="M21,300h18v0h-18Z" fill="#4c78a8"/><path aria-label="Date_Payment_Made: Wed; AVG(Amount_Payment): 0; classify: American Express" role="graphics-symbol" aria-roledescription="bar" d="M1,82.67099999999999h18v0h-18Z" fill="#4c78a8"/><path aria-label="Date_Payment_Made: Thur; AVG(Amount_Payment): 0; classify: American Express" role="graphics-symbol" aria-roledescription="bar" d="M41,253.77937500000002h18v0h-18Z" fill="#4c78a8"/><path aria-label="Date_Payment_Made: Fri; AVG(Amount_Payment): 177130; classify: American Express" role="graphics-symbol" aria-roledescription="bar" d="M121,142.9275h18v66.42374999999998h-18Z" fill="#4c78a8"/><path aria-label="Date_Payment_Made: Sat; AVG(Amount_Payment): 0; classify: American Express" role="graphics-symbol" aria-roledescription="bar" d="M81,14.730374999999995h18v0h-18Z" fill="#4c78a8"/><path aria-label="Date_Payment_Made: Sun; AVG(Amount_Payment): 0; classify: American Express" role="graphics-symbol" aria-roledescription="bar" d="M61,101.80225000000003h18v0h-18Z" fill="#4c78a8"/><path aria-label="Date_Payment_Made: Mon; AVG(Amount_Payment): 0; classify: Discover Card" role="graphics-symbol" aria-roledescription="bar" d="M101,141.31725h18v0h-18Z" fill="#f58518"/><path aria-label="Date_Payment_Made: Tue; AVG(Amount_Payment): 0; classify: Discover Card" role="graphics-symbol" aria-roledescription="bar" d="M21,300h18v0h-18Z" fill="#f58518"/><path aria-label="Date_Payment_Made: Wed; AVG(Amount_Payment): 0; classify: Discover Card" role="graphics-symbol" aria-roledescription="bar" d="M1,82.67099999999999h18v0h-18Z" fill="#f58518"/><path aria-label="Date_Payment_Made: Thur; AVG(Amount_Payment): 123255; classify: Discover Card" role="graphics-symbol" aria-roledescription="bar" d="M41,253.77937500000002h18v46.220624999999984h-18Z" fill="#f58518"/><path aria-label="Date_Payment_Made: Fri; AVG(Amount_Payment): 0; classify: Discover Card" role="graphics-symbol" aria-roledescription="bar" d="M121,209.35125h18v0h-18Z" fill="#f58518"/><path aria-label="Date_Payment_Made: Sat; AVG(Amount_Payment): 71246; classify: Discover Card" role="graphics-symbol" aria-roledescription="bar" d="M81,14.730374999999995h18v26.717250000000007h-18Z" fill="#f58518"/><path aria-label="Date_Payment_Made: Sun; AVG(Amount_Payment): 38324; classify: Discover Card" role="graphics-symbol" aria-roledescription="bar" d="M61,101.80225000000003h18v14.371499999999997h-18Z" fill="#f58518"/><path aria-label="Date_Payment_Made: Mon; AVG(Amount_Payment): 423154; classify: MasterCard" role="graphics-symbol" aria-roledescription="bar" d="M101,141.31725h18v158.68275h-18Z" fill="#e45756"/><path aria-label="Date_Payment_Made: Tue; AVG(Amount_Payment): 0; classify: MasterCard" role="graphics-symbol" aria-roledescription="bar" d="M21,300h18v0h-18Z" fill="#e45756"/><path aria-label="Date_Payment_Made: Wed; AVG(Amount_Payment): 407235; classify: MasterCard" role="graphics-symbol" aria-roledescription="bar" d="M1,82.67099999999999h18v152.71312500000002h-18Z" fill="#e45756"/><path aria-label="Date_Payment_Made: Thur; AVG(Amount_Payment): 0; classify: MasterCard" role="graphics-symbol" aria-roledescription="bar" d="M41,300h18v0h-18Z" fill="#e45756"/><path aria-label="Date_Payment_Made: Fri; AVG(Amount_Payment): 241730; classify: MasterCard" role="graphics-symbol" aria-roledescription="bar" d="M121,209.35125h18v90.64875h-18Z" fill="#e45756"/><path aria-label="Date_Payment_Made: Sat; AVG(Amount_Payment): 456098; classify: MasterCard" role="graphics-symbol" aria-roledescription="bar" d="M81,41.447625h18v171.03674999999998h-18Z" fill="#e45756"/><path aria-label="Date_Payment_Made: Sun; AVG(Amount_Payment): 334549.333333; classify: MasterCard" role="graphics-symbol" aria-roledescription="bar" d="M61,116.17375000000003h18v125.45599999999997h-18Z" fill="#e45756"/><path aria-label="Date_Payment_Made: Mon; AVG(Amount_Payment): 0; classify: Visa" role="graphics-symbol" aria-roledescription="bar" d="M101,300h18v0h-18Z" fill="#72b7b2"/><path aria-label="Date_Payment_Made: Tue; AVG(Amount_Payment): 0; classify: Visa" role="graphics-symbol" aria-roledescription="bar" d="M21,300h18v0h-18Z" fill="#72b7b2"/><path aria-label="Date_Payment_Made: Wed; AVG(Amount_Payment): 172309; classify: Visa" role="graphics-symbol" aria-roledescription="bar" d="M1,235.384125h18v64.61587499999999h-18Z" fill="#72b7b2"/><path aria-label="Date_Payment_Made: Thur; AVG(Amount_Payment): 0; classify: Visa" role="graphics-symbol" aria-roledescription="bar" d="M41,300h18v0h-18Z" fill="#72b7b2"/><path aria-label="Date_Payment_Made: Fri; AVG(Amount_Payment): 0; classify: Visa" role="graphics-symbol" aria-roledescription="bar" d="M121,300h18v0h-18Z" fill="#72b7b2"/><path aria-label="Date_Payment_Made: Sat; AVG(Amount_Payment): 233375; classify: Visa" role="graphics-symbol" aria-roledescription="bar" d="M81,212.484375h18v87.515625h-18Z" fill="#72b7b2"/><path aria-label="Date_Payment_Made: Sun; AVG(Amount_Payment): 155654; classify: Visa" role="graphics-symbol" aria-roledescription="bar" d="M61,241.62975h18v58.37025h-18Z" fill="#72b7b2"/></g><g class="mark-group role-legend" role="graphics-symbol" aria-roledescription="legend" aria-label="Symbol legend titled 'classify' for fill color with 4 values: American Express, Discover Card, MasterCard, Visa"><g transform="translate(158,0)"><path class="background" aria-hidden="true" d="M0,0h98v66h-98Z" pointer-events="none"/><g><g class="mark-group role-legend-entry"><g transform="translate(0,16)"><path class="background" aria-hidden="true" d="M0,0h0v0h0Z" pointer-events="none"/><g><g class="mark-group role-scope" role="graphics-object" aria-roledescription="group mark container"><g transform="translate(0,0)"><path class="background" aria-hidden="true" d="M0,0h97.1376953125v11h-97.1376953125Z" pointer-events="none" opacity="1"/><g><g class="mark-symbol role-legend-symbol" pointer-events="none"><path transform="translate(6,6)" d="M-5,-5h10v10h-10Z" fill="#4c78a8" stroke-width="1.5" opacity="1"/></g><g class="mark-text role-legend-label" pointer-events="none"><text text-anchor="start" transform="translate(16,9)" font-family="sans-serif" font-size="10px" fill="#000" opacity="1">American Express</text></g></g><path class="foreground" aria-hidden="true" d="" pointer-events="none" display="none"/></g><g transform="translate(0,13)"><path class="background" aria-hidden="true" d="M0,0h97.1376953125v11h-97.1376953125Z" pointer-events="none" opacity="1"/><g><g class="mark-symbol role-legend-symbol" pointer-events="none"><path transform="translate(6,6)" d="M-5,-5h10v10h-10Z" fill="#f58518" stroke-width="1.5" opacity="1"/></g><g class="mark-text role-legend-label" pointer-events="none"><text text-anchor="start" transform="translate(16,9)" font-family="sans-serif" font-size="10px" fill="#000" opacity="1">Discover Card</text></g></g><path class="foreground" aria-hidden="true" d="" pointer-events="none" display="none"/></g><g transform="translate(0,26)"><path class="background" aria-hidden="true" d="M0,0h97.1376953125v11h-97.1376953125Z" pointer-events="none" opacity="1"/><g><g class="mark-symbol role-legend-symbol" pointer-events="none"><path transform="translate(6,6)" d="M-5,-5h10v10h-10Z" fill="#e45756" stroke-width="1.5" opacity="1"/></g><g class="mark-text role-legend-label" pointer-events="none"><text text-anchor="start" transform="translate(16,9)" font-family="sans-serif" font-size="10px" fill="#000" opacity="1">MasterCard</text></g></g><path class="foreground" aria-hidden="true" d="" pointer-events="none" display="none"/></g><g transform="translate(0,39)"><path class="background" aria-hidden="true" d="M0,0h97.1376953125v11h-97.1376953125Z" pointer-events="none" opacity="1"/><g><g class="mark-symbol role-legend-symbol" pointer-events="none"><path transform="translate(6,6)" d="M-5,-5h10v10h-10Z" fill="#72b7b2" stroke-width="1.5" opacity="1"/></g><g class="mark-text role-legend-label" pointer-events="none"><text text-anchor="start" transform="translate(16,9)" font-family="sans-serif" font-size="10px" fill="#000" opacity="1">Visa</text></g></g><path class="foreground" aria-hidden="true" d="" pointer-events="none" display="none"/></g></g></g><path class="foreground" aria-hidden="true" d="" pointer-events="none" display="none"/></g></g><g class="mark-text role-legend-title" pointer-events="none"><text text-anchor="start" transform="translate(0,9)" font-family="sans-serif" font-size="11px" font-weight="bold" fill="#000" opacity="1">classify</text></g></g><path class="foreground" aria-hidden="true" d="" pointer-events="none" display="none"/></g></g></g><path class="foreground" aria-hidden="true" d="" display="none"/></g></g></g></svg>