<svg xmlns="http://www.w3.org/2000/svg" xmlns:xlink="http://www.w3.org/1999/xlink" version="1.1" class="marks" width="352" height="404" viewBox="0 0 352 404"><rect width="352" height="404" fill="white"/><g fill="none" stroke-miterlimit="10" transform="translate(39,10)"><g class="mark-group role-frame root" role="graphics-object" aria-roledescription="group mark container"><g transform="translate(0,0)"><path class="background" aria-hidden="true" d="M0.5,0.5h200v300h-200Z" stroke="#ddd"/><g><g class="mark-group role-axis" aria-hidden="true"><g transform="translate(0.5,0.5)"><path class="background" aria-hidden="true" d="M0,0h0v0h0Z" pointer-events="none"/><g><g class="mark-rule role-axis-grid" pointer-events="none"><line transform="translate(0,300)" x2="200" y2="0" stroke="#ddd" stroke-width="1" opacity="1"/><line transform="translate(0,267)" x2="200" y2="0" stroke="#ddd" stroke-width="1" opacity="1"/><line transform="translate(0,233)" x2="200" y2="0" stroke="#ddd" stroke-width="1" opacity="1"/><line transform="translate(0,200)" x2="200" y2="0" stroke="#ddd" stroke-width="1" opacity="1"/><line transform="translate(0,167)" x2="200" y2="0" stroke="#ddd" stroke-width="1" opacity="1"/><line transform="translate(0,133)" x2="200" y2="0" stroke="#ddd" stroke-width="1" opacity="1"/><line transform="translate(0,100)" x2="200" y2="0" stroke="#ddd" stroke-width="1" opacity="1"/><line transform="translate(0,67)" x2="200" y2="0" stroke="#ddd" stroke-width="1" opacity="1"/><line transform="translate(0,33)" x2="200" y2="0" stroke="#ddd" stroke-width="1" opacity="1"/><line transform="translate(0,0)" x2="200" y2="0" stroke="#ddd" stroke-width="1" opacity="1"/></g></g><path class="foreground" aria-hidden="true" d="" pointer-events="none" display="none"/></g></g><g class="mark-group role-axis" role="graphics-symbol" aria-roledescription="axis" aria-label="X-axis titled 'Name' for a discrete scale with 10 values: DVD drive, DVD burner, Toner cartridge, Printer, CD drive, ending with Hard drive"><g transform="translate(0.5,300.5)"><path class="background" aria-hidden="true" d="M0,0h0v0h0Z" pointer-events="none"/><g><g class="mark-rule role-axis-tick" pointer-events="none"><line transform="translate(10,0)" x2="0" y2="5" stroke="#888" stroke-width="1" opacity="1"/><line transform="translate(30,0)" x2="0" y2="5" stroke="#888" stroke-width="1" opacity="1"/><line transform="translate(50,0)" x2="0" y2="5" stroke="#888" stroke-width="1" opacity="1"/><line transform="translate(70,0)" x2="0" y2="5" stroke="#888" stroke-width="1" opacity="1"/><line transform="translate(90,0)" x2="0" y2="5" stroke="#888" stroke-width="1" opacity="1"/><line transform="translate(110,0)" x2="0" y2="5" stroke="#888" stroke-width="1" opacity="1"/><line transform="translate(130,0)" x2="0" y2="5" stroke="#888" stroke-width="1" opacity="1"/><line transform="translate(150,0)" x2="0" y2="5" stroke="#888" stroke-width="1" opacity="1"/><line transform="translate(170,0)" x2="0" y2="5" stroke="#888" stroke-width="1" opacity="1"/><line transform="translate(190,0)" x2="0" y2="5" stroke="#888" stroke-width="1" opacity="1"/></g><g class="mark-text role-axis-label" pointer-events="none"><text text-anchor="end" transform="translate(9.5,7) rotate(270) translate(0,3)" font-family="sans-serif" font-size="10px" fill="#000" opacity="1">DVD drive</text><text text-anchor="end" transform="translate(29.5,7) rotate(270) translate(0,3)" font-family="sans-serif" font-size="10px" fill="#000" opacity="1">DVD burner</text><text text-anchor="end" transform="translate(49.5,7) rotate(270) translate(0,3)" font-family="sans-serif" font-size="10px" fill="#000" opacity="1">Toner cartridge</text><text text-anchor="end" transform="translate(69.5,7) rotate(270) translate(0,3)" font-family="sans-serif" font-size="10px" fill="#000" opacity="1">Printer</text><text text-anchor="end" transform="translate(89.5,7) rotate(270) translate(0,3)" font-family="sans-serif" font-size="10px" fill="#000" opacity="1">CD drive</text><text text-anchor="end" transform="translate(109.5,7) rotate(270) translate(0,3)" font-family="sans-serif" font-size="10px" fill="#000" opacity="1">Monitor</text><text text-anchor="end" transform="translate(129.5,7) rotate(270) translate(0,3)" font-family="sans-serif" font-size="10px" fill="#000" opacity="1">Floppy disk</text><text text-anchor="end" transform="translate(149.5,7) rotate(270) translate(0,3)" font-family="sans-serif" font-size="10px" fill="#000" opacity="1">ZIP drive</text><text text-anchor="end" transform="translate(169.5,7) rotate(270) translate(0,3)" font-family="sans-serif" font-size="10px" fill="#000" opacity="1">Memory</text><text text-anchor="end" transform="translate(189.5,7) rotate(270) translate(0,3)" font-family="sans-serif" font-size="10px" fill="#000" opacity="1">Hard drive</text></g><g class="mark-rule role-axis-domain" pointer-events="none"><line transform="translate(0,0)" x2="200" y2="0" stroke="#888" stroke-width="1" opacity="1"/></g><g class="mark-text role-axis-title" pointer-events="none"><text text-anchor="middle" transform="translate(100,86.69921875)" font-family="sans-serif" font-size="11px" font-weight="bold" fill="#000" opacity="1">Name</text></g></g><path class="foreground" aria-hidden="true" d="" pointer-events="none" display="none"/></g></g><g class="mark-group role-axis" role="graphics-symbol" aria-roledescription="axis" aria-label="Y-axis titled 'Code' for a linear scale with values from 0 to 18"><g transform="translate(0.5,0.5)"><path class="background" aria-hidden="true" d="M0,0h0v0h0Z" pointer-events="none"/><g><g class="mark-rule role-axis-tick" pointer-events="none"><line transform="translate(0,300)" x2="-5" y2="0" stroke="#888" stroke-width="1" opacity="1"/><line transform="translate(0,267)" x2="-5" y2="0" stroke="#888" stroke-width="1" opacity="1"/><line transform="translate(0,233)" x2="-5" y2="0" stroke="#888" stroke-width="1" opacity="1"/><line transform="translate(0,200)" x2="-5" y2="0" stroke="#888" stroke-width="1" opacity="1"/><line transform="translate(0,167)" x2="-5" y2="0" stroke="#888" stroke-width="1" opacity="1"/><line transform="translate(0,133)" x2="-5" y2="0" stroke="#888" stroke-width="1" opacity="1"/><line transform="translate(0,100)" x2="-5" y2="0" stroke="#888" stroke-width="1" opacity="1"/><line transform="translate(0,67)" x2="-5" y2="0" stroke="#888" stroke-width="1" opacity="1"/><line transform="translate(0,33)" x2="-5" y2="0" stroke="#888" stroke-width="1" opacity="1"/><line transform="translate(0,0)" x2="-5" y2="0" stroke="#888" stroke-width="1" opacity="1"/></g><g class="mark-text role-axis-label" pointer-events="none"><text text-anchor="end" transform="translate(-7,303)" font-family="sans-serif" font-size="10px" fill="#000" opacity="1">0</text><text text-anchor="end" transform="translate(-7,269.66666666666663)" font-family="sans-serif" font-size="10px" fill="#000" opacity="1">2</text><text text-anchor="end" transform="translate(-7,236.33333333333334)" font-family="sans-serif" font-size="10px" fill="#000" opacity="1">4</text><text text-anchor="end" transform="translate(-7,203.00000000000003)" font-family="sans-serif" font-size="10px" fill="#000" opacity="1">6</text><text text-anchor="end" transform="translate(-7,169.66666666666669)" font-family="sans-serif" font-size="10px" fill="#000" opacity="1">8</text><text text-anchor="end" transform="translate(-7,136.33333333333331)" font-family="sans-serif" font-size="10px" fill="#000" opacity="1">10</text><text text-anchor="end" transform="translate(-7,103.00000000000001)" font-family="sans-serif" font-size="10px" fill="#000" opacity="1">12</text><text text-anchor="end" transform="translate(-7,69.66666666666666)" font-family="sans-serif" font-size="10px" fill="#000" opacity="1">14</text><text text-anchor="end" transform="translate(-7,36.33333333333335)" font-family="sans-serif" font-size="10px" fill="#000" opacity="1">16</text><text text-anchor="end" transform="translate(-7,3)" font-family="sans-serif" font-size="10px" fill="#000" opacity="1">18</text></g><g class="mark-rule role-axis-domain" pointer-events="none"><line transform="translate(0,300)" x2="0" y2="-300" stroke="#888" stroke-width="1" opacity="1"/></g><g class="mark-text role-axis-title" pointer-events="none"><text text-anchor="middle" transform="translate(-22.123046875,150) rotate(-90) translate(0,-2)" font-family="sans-serif" font-size="11px" font-weight="bold" fill="#000" opacity="1">Code</text></g></g><path class="foreground" aria-hidden="true" d="" pointer-events="none" display="none"/></g></g><g class="mark-rect role-mark marks" role="graphics-object" aria-roledescription="rect mark container"><path aria-label="Name: DVD drive; Code: 6; classify: Creative Labs" role="graphics-symbol" aria-roledescription="bar" d="M1,16.666666666666675h18v99.99999999999999h-18Z" fill="#4c78a8"/><path aria-label="Name: DVD burner; Code: 10; classify: Creative Labs" role="graphics-symbol" aria-roledescription="bar" d="M21,133.33333333333331h18v166.66666666666669h-18Z" fill="#4c78a8"/><path aria-label="Name: Toner cartridge; Code: 0; classify: Creative Labs" role="graphics-symbol" aria-roledescription="bar" d="M41,150h18v0h-18Z" fill="#4c78a8"/><path aria-label="Name: Printer; Code: 0; classify: Creative Labs" role="graphics-symbol" aria-roledescription="bar" d="M61,166.66666666666669h18v0h-18Z" fill="#4c78a8"/><path aria-label="Name: CD drive; Code: 7; classify: Creative Labs" role="graphics-symbol" aria-roledescription="bar" d="M81,183.33333333333334h18v116.66666666666666h-18Z" fill="#4c78a8"/><path aria-label="Name: Monitor; Code: 0; classify: Creative Labs" role="graphics-symbol" aria-roledescription="bar" d="M101,216.66666666666666h18v0h-18Z" fill="#4c78a8"/><path aria-label="Name: Floppy disk; Code: 0; classify: Creative Labs" role="graphics-symbol" aria-roledescription="bar" d="M121,233.33333333333334h18v0h-18Z" fill="#4c78a8"/><path aria-label="Name: ZIP drive; Code: 0; classify: Creative Labs" role="graphics-symbol" aria-roledescription="bar" d="M141,250h18v0h-18Z" fill="#4c78a8"/><path aria-label="Name: Memory; Code: 0; classify: Creative Labs" role="graphics-symbol" aria-roledescription="bar" d="M161,266.66666666666663h18v0h-18Z" fill="#4c78a8"/><path aria-label="Name: Hard drive; Code: 0; classify: Creative Labs" role="graphics-symbol" aria-roledescription="bar" d="M181,283.3333333333333h18v0h-18Z" fill="#4c78a8"/><path aria-label="Name: DVD drive; Code: 0; classify: Fujits" role="graphics-symbol" aria-roledescription="bar" d="M1,116.66666666666666h18v0h-18Z" fill="#f58518"/><path aria-label="Name: DVD burner; Code: 0; classify: Fujits" role="graphics-symbol" aria-roledescription="bar" d="M21,300h18v0h-18Z" fill="#f58518"/><path aria-label="Name: Toner cartridge; Code: 0; classify: Fujits" role="graphics-symbol" aria-roledescription="bar" d="M41,150h18v0h-18Z" fill="#f58518"/><path aria-label="Name: Printer; Code: 0; classify: Fujits" role="graphics-symbol" aria-roledescription="bar" d="M61,166.66666666666669h18v0h-18Z" fill="#f58518"/><path aria-label="Name: CD drive; Code: 0; classify: Fujits" role="graphics-symbol" aria-roledescription="bar" d="M81,300h18v0h-18Z" fill="#f58518"/><path aria-label="Name: Monitor; Code: 0; classify: Fujits" role="graphics-symbol" aria-roledescription="bar" d="M101,216.66666666666666h18v0h-18Z" fill="#f58518"/><path aria-label="Name: Floppy disk; Code: 0; classify: Fujits" role="graphics-symbol" aria-roledescription="bar" d="M121,233.33333333333334h18v0h-18Z" fill="#f58518"/><path aria-label="Name: ZIP drive; Code: 0; classify: Fujits" role="graphics-symbol" aria-roledescription="bar" d="M141,250h18v0h-18Z" fill="#f58518"/><path aria-label="Name: Memory; Code: 0; classify: Fujits" role="graphics-symbol" aria-roledescription="bar" d="M161,266.66666666666663h18v0h-18Z" fill="#f58518"/><path aria-label="Name: Hard drive; Code: 1; classify: Fujits" role="graphics-symbol" aria-roledescription="bar" d="M181,283.3333333333333h18v16.666666666666686h-18Z" fill="#f58518"/><path aria-label="Name: DVD drive; Code: 11; classify: Hewlett-Packard" role="graphics-symbol" aria-roledescription="bar" d="M1,116.66666666666666h18v183.33333333333334h-18Z" fill="#e45756"/><path aria-label="Name: DVD burner; Code: 0; classify: Hewlett-Packard" role="graphics-symbol" aria-roledescription="bar" d="M21,300h18v0h-18Z" fill="#e45756"/><path aria-label="Name: Toner cartridge; Code: 9; classify: Hewlett-Packard" role="graphics-symbol" aria-roledescription="bar" d="M41,150h18v150h-18Z" fill="#e45756"/><path aria-label="Name: Printer; Code: 8; classify: Hewlett-Packard" role="graphics-symbol" aria-roledescription="bar" d="M61,166.66666666666669h18v133.33333333333331h-18Z" fill="#e45756"/><path aria-label="Name: CD drive; Code: 0; classify: Hewlett-Packard" role="graphics-symbol" aria-roledescription="bar" d="M81,300h18v0h-18Z" fill="#e45756"/><path aria-label="Name: Monitor; Code: 0; classify: Hewlett-Packard" role="graphics-symbol" aria-roledescription="bar" d="M101,216.66666666666666h18v0h-18Z" fill="#e45756"/><path aria-label="Name: Floppy disk; Code: 0; classify: Hewlett-Packard" role="graphics-symbol" aria-roledescription="bar" d="M121,233.33333333333334h18v0h-18Z" fill="#e45756"/><path aria-label="Name: ZIP drive; Code: 0; classify: Hewlett-Packard" role="graphics-symbol" aria-roledescription="bar" d="M141,250h18v0h-18Z" fill="#e45756"/><path aria-label="Name: Memory; Code: 0; classify: Hewlett-Packard" role="graphics-symbol" aria-roledescription="bar" d="M161,266.66666666666663h18v0h-18Z" fill="#e45756"/><path aria-label="Name: Hard drive; Code: 0; classify: Hewlett-Packard" role="graphics-symbol" aria-roledescription="bar" d="M181,300h18v0h-18Z" fill="#e45756"/><path aria-label="Name: DVD drive; Code: 0; classify: Iomega" role="graphics-symbol" aria-roledescription="bar" d="M1,300h18v0h-18Z" fill="#72b7b2"/><path aria-label="Name: DVD burner; Code: 0; classify: Iomega" role="graphics-symbol" aria-roledescription="bar" d="M21,300h18v0h-18Z" fill="#72b7b2"/><path aria-label="Name: Toner cartridge; Code: 0; classify: Iomega" role="graphics-symbol" aria-roledescription="bar" d="M41,300h18v0h-18Z" fill="#72b7b2"/><path aria-label="Name: Printer; Code: 0; classify: Iomega" role="graphics-symbol" aria-roledescription="bar" d="M61,300h18v0h-18Z" fill="#72b7b2"/><path aria-label="Name: CD drive; Code: 0; classify: Iomega" role="graphics-symbol" aria-roledescription="bar" d="M81,300h18v0h-18Z" fill="#72b7b2"/><path aria-label="Name: Monitor; Code: 0; classify: Iomega" role="graphics-symbol" aria-roledescription="bar" d="M101,216.66666666666666h18v0h-18Z" fill="#72b7b2"/><path aria-label="Name: Floppy disk; Code: 0; classify: Iomega" role="graphics-symbol" aria-roledescription="bar" d="M121,233.33333333333334h18v0h-18Z" fill="#72b7b2"/><path aria-label="Name: ZIP drive; Code: 3; classify: Iomega" role="graphics-symbol" aria-roledescription="bar" d="M141,250h18v50h-18Z" fill="#72b7b2"/><path aria-label="Name: Memory; Code: 0; classify: Iomega" role="graphics-symbol" aria-roledescription="bar" d="M161,266.66666666666663h18v0h-18Z" fill="#72b7b2"/><path aria-label="Name: Hard drive; Code: 0; classify: Iomega" role="graphics-symbol" aria-roledescription="bar" d="M181,300h18v0h-18Z" fill="#72b7b2"/><path aria-label="Name: DVD drive; Code: 0; classify: Sony" role="graphics-symbol" aria-roledescription="bar" d="M1,300h18v0h-18Z" fill="#54a24b"/><path aria-label="Name: DVD burner; Code: 0; classify: Sony" role="graphics-symbol" aria-roledescription="bar" d="M21,300h18v0h-18Z" fill="#54a24b"/><path aria-label="Name: Toner cartridge; Code: 0; classify: Sony" role="graphics-symbol" aria-roledescription="bar" d="M41,300h18v0h-18Z" fill="#54a24b"/><path aria-label="Name: Printer; Code: 0; classify: Sony" role="graphics-symbol" aria-roledescription="bar" d="M61,300h18v0h-18Z" fill="#54a24b"/><path aria-label="Name: CD drive; Code: 0; classify: Sony" role="graphics-symbol" aria-roledescription="bar" d="M81,300h18v0h-18Z" fill="#54a24b"/><path aria-label="Name: Monitor; Code: 5; classify: Sony" role="graphics-symbol" aria-roledescription="bar" d="M101,216.66666666666666h18v83.33333333333334h-18Z" fill="#54a24b"/><path aria-label="Name: Floppy disk; Code: 0; classify: Sony" role="graphics-symbol" aria-roledescription="bar" d="M121,233.33333333333334h18v0h-18Z" fill="#54a24b"/><path aria-label="Name: ZIP drive; Code: 0; classify: Sony" role="graphics-symbol" aria-roledescription="bar" d="M141,300h18v0h-18Z" fill="#54a24b"/><path aria-label="Name: Memory; Code: 0; classify: Sony" role="graphics-symbol" aria-roledescription="bar" d="M161,266.66666666666663h18v0h-18Z" fill="#54a24b"/><path aria-label="Name: Hard drive; Code: 0; classify: Sony" role="graphics-symbol" aria-roledescription="bar" d="M181,300h18v0h-18Z" fill="#54a24b"/><path aria-label="Name: DVD drive; Code: 0; classify: Winchester" role="graphics-symbol" aria-roledescription="bar" d="M1,300h18v0h-18Z" fill="#eeca3b"/><path aria-label="Name: DVD burner; Code: 0; classify: Winchester" role="graphics-symbol" aria-roledescription="bar" d="M21,300h18v0h-18Z" fill="#eeca3b"/><path aria-label="Name: Toner cartridge; Code: 0; classify: Winchester" role="graphics-symbol" aria-roledescription="bar" d="M41,300h18v0h-18Z" fill="#eeca3b"/><path aria-label="Name: Printer; Code: 0; classify: Winchester" role="graphics-symbol" aria-roledescription="bar" d="M61,300h18v0h-18Z" fill="#eeca3b"/><path aria-label="Name: CD drive; Code: 0; classify: Winchester" role="graphics-symbol" aria-roledescription="bar" d="M81,300h18v0h-18Z" fill="#eeca3b"/><path aria-label="Name: Monitor; Code: 0; classify: Winchester" role="graphics-symbol" aria-roledescription="bar" d="M101,300h18v0h-18Z" fill="#eeca3b"/><path aria-label="Name: Floppy disk; Code: 4; classify: Winchester" role="graphics-symbol" aria-roledescription="bar" d="M121,233.33333333333334h18v66.66666666666666h-18Z" fill="#eeca3b"/><path aria-label="Name: ZIP drive; Code: 0; classify: Winchester" role="graphics-symbol" aria-roledescription="bar" d="M141,300h18v0h-18Z" fill="#eeca3b"/><path aria-label="Name: Memory; Code: 2; classify: Winchester" role="graphics-symbol" aria-roledescription="bar" d="M161,266.66666666666663h18v33.33333333333337h-18Z" fill="#eeca3b"/><path aria-label="Name: Hard drive; Code: 0; classify: Winchester" role="graphics-symbol" aria-roledescription="bar" d="M181,300h18v0h-18Z" fill="#eeca3b"/></g><g class="mark-group role-legend" role="graphics-symbol" aria-roledescription="legend" aria-label="Symbol legend titled 'classify' for fill color with 6 values: Creative Labs, Fujits, Hewlett-Packard, Iomega, Sony, Winchester"><g transform="translate(218,0)"><path class="background" aria-hidden="true" d="M0,0h90v92h-90Z" pointer-events="none"/><g><g class="mark-group role-legend-entry"><g transform="translate(0,16)"><path class="background" aria-hidden="true" d="M0,0h0v0h0Z" pointer-events="none"/><g><g class="mark-group role-scope" role="graphics-object" aria-roledescription="group mark container"><g transform="translate(0,0)"><path class="background" aria-hidden="true" d="M0,0h89.359375v11h-89.359375Z" pointer-events="none" opacity="1"/><g><g class="mark-symbol role-legend-symbol" pointer-events="none"><path transform="translate(6,6)" d="M-5,-5h10v10h-10Z" fill="#4c78a8" stroke-width="1.5" opacity="1"/></g><g class="mark-text role-legend-label" pointer-events="none"><text text-anchor="start" transform="translate(16,9)" font-family="sans-serif" font-size="10px" fill="#000" opacity="1">Creative Labs</text></g></g><path class="foreground" aria-hidden="true" d="" pointer-events="none" display="none"/></g><g transform="translate(0,13)"><path class="background" aria-hidden="true" d="M0,0h89.359375v11h-89.359375Z" pointer-events="none" opacity="1"/><g><g class="mark-symbol role-legend-symbol" pointer-events="none"><path transform="translate(6,6)" d="M-5,-5h10v10h-10Z" fill="#f58518" stroke-width="1.5" opacity="1"/></g><g class="mark-text role-legend-label" pointer-events="none"><text text-anchor="start" transform="translate(16,9)" font-family="sans-serif" font-size="10px" fill="#000" opacity="1">Fujits</text></g></g><path class="foreground" aria-hidden="true" d="" pointer-events="none" display="none"/></g><g transform="translate(0,26)"><path class="background" aria-hidden="true" d="M0,0h89.359375v11h-89.359375Z" pointer-events="none" opacity="1"/><g><g class="mark-symbol role-legend-symbol" pointer-events="none"><path transform="translate(6,6)" d="M-5,-5h10v10h-10Z" fill="#e45756" stroke-width="1.5" opacity="1"/></g><g class="mark-text role-legend-label" pointer-events="none"><text text-anchor="start" transform="translate(16,9)" font-family="sans-serif" font-size="10px" fill="#000" opacity="1">Hewlett-Packard</text></g></g><path class="foreground" aria-hidden="true" d="" pointer-events="none" display="none"/></g><g transform="translate(0,39)"><path class="background" aria-hidden="true" d="M0,0h89.359375v11h-89.359375Z" pointer-events="none" opacity="1"/><g><g class="mark-symbol role-legend-symbol" pointer-events="none"><path transform="translate(6,6)" d="M-5,-5h10v10h-10Z" fill="#72b7b2" stroke-width="1.5" opacity="1"/></g><g class="mark-text role-legend-label" pointer-events="none"><text text-anchor="start" transform="translate(16,9)" font-family="sans-serif" font-size="10px" fill="#000" opacity="1">Iomega</text></g></g><path class="foreground" aria-hidden="true" d="" pointer-events="none" display="none"/></g><g transform="translate(0,52)"><path class="background" aria-hidden="true" d="M0,0h89.359375v11h-89.359375Z" pointer-events="none" opacity="1"/><g><g class="mark-symbol role-legend-symbol" pointer-events="none"><path transform="translate(6,6)" d="M-5,-5h10v10h-10Z" fill="#54a24b" stroke-width="1.5" opacity="1"/></g><g class="mark-text role-legend-label" pointer-events="none"><text text-anchor="start" transform="translate(16,9)" font-family="sans-serif" font-size="10px" fill="#000" opacity="1">Sony</text></g></g><path class="foreground" aria-hidden="true" d="" pointer-events="none" display="none"/></g><g transform="translate(0,65)"><path class="background" aria-hidden="true" d="M0,0h89.359375v11h-89.359375Z" pointer-events="none" opacity="1"/><g><g class="mark-symbol role-legend-symbol" pointer-events="none"><path transform="translate(6,6)" d="M-5,-5h10v10h-10Z" fill="#eeca3b" stroke-width="1.5" opacity="1"/></g><g class="mark-text role-legend-label" pointer-events="none"><text text-anchor="start" transform="translate(16,9)" font-family="sans-serif" font-size="10px" fill="#000" opacity="1">Winchester</text></g></g><path class="foreground" aria-hidden="true" d="" pointer-events="none" display="none"/></g></g></g><path class="foreground" aria-hidden="true" d="" pointer-events="none" display="none"/></g></g><g class="mark-text role-legend-title" pointer-events="none"><text text-anchor="start" transform="translate(0,9)" font-family="sans-serif" font-size="11px" font-weight="bold" fill="#000" opacity="1">classify</text></g></g><path class="foreground" aria-hidden="true" d="" pointer-events="none" display="none"/></g></g></g><path class="foreground" aria-hidden="true" d="" display="none"/></g></g></g></svg>