<svg xmlns="http://www.w3.org/2000/svg" xmlns:xlink="http://www.w3.org/1999/xlink" version="1.1" class="marks" width="357" height="404" viewBox="0 0 357 404"><rect width="357" height="404" fill="white"/><g fill="none" stroke-miterlimit="10" transform="translate(44,10)"><g class="mark-group role-frame root" role="graphics-object" aria-roledescription="group mark container"><g transform="translate(0,0)"><path class="background" aria-hidden="true" d="M0.5,0.5h200v300h-200Z" stroke="#ddd"/><g><g class="mark-group role-axis" aria-hidden="true"><g transform="translate(0.5,0.5)"><path class="background" aria-hidden="true" d="M0,0h0v0h0Z" pointer-events="none"/><g><g class="mark-rule role-axis-grid" pointer-events="none"><line transform="translate(0,300)" x2="200" y2="0" stroke="#ddd" stroke-width="1" opacity="1"/><line transform="translate(0,270)" x2="200" y2="0" stroke="#ddd" stroke-width="1" opacity="1"/><line transform="translate(0,240)" x2="200" y2="0" stroke="#ddd" stroke-width="1" opacity="1"/><line transform="translate(0,210)" x2="200" y2="0" stroke="#ddd" stroke-width="1" opacity="1"/><line transform="translate(0,180)" x2="200" y2="0" stroke="#ddd" stroke-width="1" opacity="1"/><line transform="translate(0,150)" x2="200" y2="0" stroke="#ddd" stroke-width="1" opacity="1"/><line transform="translate(0,120)" x2="200" y2="0" stroke="#ddd" stroke-width="1" opacity="1"/><line transform="translate(0,90)" x2="200" y2="0" stroke="#ddd" stroke-width="1" opacity="1"/><line transform="translate(0,60)" x2="200" y2="0" stroke="#ddd" stroke-width="1" opacity="1"/><line transform="translate(0,30)" x2="200" y2="0" stroke="#ddd" stroke-width="1" opacity="1"/><line transform="translate(0,0)" x2="200" y2="0" stroke="#ddd" stroke-width="1" opacity="1"/></g></g><path class="foreground" aria-hidden="true" d="" pointer-events="none" display="none"/></g></g><g class="mark-group role-axis" role="graphics-symbol" aria-roledescription="axis" aria-label="X-axis titled 'Name' for a discrete scale with 10 values: Floppy disk, Memory, Printer, Toner cartridge, CD drive, ending with ZIP drive"><g transform="translate(0.5,300.5)"><path class="background" aria-hidden="true" d="M0,0h0v0h0Z" pointer-events="none"/><g><g class="mark-rule role-axis-tick" pointer-events="none"><line transform="translate(10,0)" x2="0" y2="5" stroke="#888" stroke-width="1" opacity="1"/><line transform="translate(30,0)" x2="0" y2="5" stroke="#888" stroke-width="1" opacity="1"/><line transform="translate(50,0)" x2="0" y2="5" stroke="#888" stroke-width="1" opacity="1"/><line transform="translate(70,0)" x2="0" y2="5" stroke="#888" stroke-width="1" opacity="1"/><line transform="translate(90,0)" x2="0" y2="5" stroke="#888" stroke-width="1" opacity="1"/><line transform="translate(110,0)" x2="0" y2="5" stroke="#888" stroke-width="1" opacity="1"/><line transform="translate(130,0)" x2="0" y2="5" stroke="#888" stroke-width="1" opacity="1"/><line transform="translate(150,0)" x2="0" y2="5" stroke="#888" stroke-width="1" opacity="1"/><line transform="translate(170,0)" x2="0" y2="5" stroke="#888" stroke-width="1" opacity="1"/><line transform="translate(190,0)" x2="0" y2="5" stroke="#888" stroke-width="1" opacity="1"/></g><g class="mark-text role-axis-label" pointer-events="none"><text text-anchor="end" transform="translate(9.5,7) rotate(270) translate(0,3)" font-family="sans-serif" font-size="10px" fill="#000" opacity="1">Floppy disk</text><text text-anchor="end" transform="translate(29.5,7) rotate(270) translate(0,3)" font-family="sans-serif" font-size="10px" fill="#000" opacity="1">Memory</text><text text-anchor="end" transform="translate(49.5,7) rotate(270) translate(0,3)" font-family="sans-serif" font-size="10px" fill="#000" opacity="1">Printer</text><text text-anchor="end" transform="translate(69.5,7) rotate(270) translate(0,3)" font-family="sans-serif" font-size="10px" fill="#000" opacity="1">Toner cartridge</text><text text-anchor="end" transform="translate(89.5,7) rotate(270) translate(0,3)" font-family="sans-serif" font-size="10px" fill="#000" opacity="1">CD drive</text><text text-anchor="end" transform="translate(109.5,7) rotate(270) translate(0,3)" font-family="sans-serif" font-size="10px" fill="#000" opacity="1">DVD burner</text><text text-anchor="end" transform="translate(129.5,7) rotate(270) translate(0,3)" font-family="sans-serif" font-size="10px" fill="#000" opacity="1">Monitor</text><text text-anchor="end" transform="translate(149.5,7) rotate(270) translate(0,3)" font-family="sans-serif" font-size="10px" fill="#000" opacity="1">Hard drive</text><text text-anchor="end" transform="translate(169.5,7) rotate(270) translate(0,3)" font-family="sans-serif" font-size="10px" fill="#000" opacity="1">DVD drive</text><text text-anchor="end" transform="translate(189.5,7) rotate(270) translate(0,3)" font-family="sans-serif" font-size="10px" fill="#000" opacity="1">ZIP drive</text></g><g class="mark-rule role-axis-domain" pointer-events="none"><line transform="translate(0,0)" x2="200" y2="0" stroke="#888" stroke-width="1" opacity="1"/></g><g class="mark-text role-axis-title" pointer-events="none"><text text-anchor="middle" transform="translate(100,86.69921875)" font-family="sans-serif" font-size="11px" font-weight="bold" fill="#000" opacity="1">Name</text></g></g><path class="foreground" aria-hidden="true" d="" pointer-events="none" display="none"/></g></g><g class="mark-group role-axis" role="graphics-symbol" aria-roledescription="axis" aria-label="Y-axis titled 'Revenue' for a linear scale with values from 0 to 200"><g transform="translate(0.5,0.5)"><path class="background" aria-hidden="true" d="M0,0h0v0h0Z" pointer-events="none"/><g><g class="mark-rule role-axis-tick" pointer-events="none"><line transform="translate(0,300)" x2="-5" y2="0" stroke="#888" stroke-width="1" opacity="1"/><line transform="translate(0,270)" x2="-5" y2="0" stroke="#888" stroke-width="1" opacity="1"/><line transform="translate(0,240)" x2="-5" y2="0" stroke="#888" stroke-width="1" opacity="1"/><line transform="translate(0,210)" x2="-5" y2="0" stroke="#888" stroke-width="1" opacity="1"/><line transform="translate(0,180)" x2="-5" y2="0" stroke="#888" stroke-width="1" opacity="1"/><line transform="translate(0,150)" x2="-5" y2="0" stroke="#888" stroke-width="1" opacity="1"/><line transform="translate(0,120)" x2="-5" y2="0" stroke="#888" stroke-width="1" opacity="1"/><line transform="translate(0,90)" x2="-5" y2="0" stroke="#888" stroke-width="1" opacity="1"/><line transform="translate(0,60)" x2="-5" y2="0" stroke="#888" stroke-width="1" opacity="1"/><line transform="translate(0,30)" x2="-5" y2="0" stroke="#888" stroke-width="1" opacity="1"/><line transform="translate(0,0)" x2="-5" y2="0" stroke="#888" stroke-width="1" opacity="1"/></g><g class="mark-text role-axis-label" pointer-events="none"><text text-anchor="end" transform="translate(-7,303)" font-family="sans-serif" font-size="10px" fill="#000" opacity="1">0</text><text text-anchor="end" transform="translate(-7,273)" font-family="sans-serif" font-size="10px" fill="#000" opacity="1">20</text><text text-anchor="end" transform="translate(-7,243)" font-family="sans-serif" font-size="10px" fill="#000" opacity="1">40</text><text text-anchor="end" transform="translate(-7,213)" font-family="sans-serif" font-size="10px" fill="#000" opacity="1">60</text><text text-anchor="end" transform="translate(-7,183)" font-family="sans-serif" font-size="10px" fill="#000" opacity="1">80</text><text text-anchor="end" transform="translate(-7,153)" font-family="sans-serif" font-size="10px" fill="#000" opacity="1">100</text><text text-anchor="end" transform="translate(-7,123)" font-family="sans-serif" font-size="10px" fill="#000" opacity="1">120</text><text text-anchor="end" transform="translate(-7,93.00000000000001)" font-family="sans-serif" font-size="10px" fill="#000" opacity="1">140</text><text text-anchor="end" transform="translate(-7,62.999999999999986)" font-family="sans-serif" font-size="10px" fill="#000" opacity="1">160</text><text text-anchor="end" transform="translate(-7,32.99999999999999)" font-family="sans-serif" font-size="10px" fill="#000" opacity="1">180</text><text text-anchor="end" transform="translate(-7,3)" font-family="sans-serif" font-size="10px" fill="#000" opacity="1">200</text></g><g class="mark-rule role-axis-domain" pointer-events="none"><line transform="translate(0,300)" x2="0" y2="-300" stroke="#888" stroke-width="1" opacity="1"/></g><g class="mark-text role-axis-title" pointer-events="none"><text text-anchor="middle" transform="translate(-27.6845703125,150) rotate(-90) translate(0,-2)" font-family="sans-serif" font-size="11px" font-weight="bold" fill="#000" opacity="1">Revenue</text></g></g><path class="foreground" aria-hidden="true" d="" pointer-events="none" display="none"/></g></g><g class="mark-rect role-mark marks" role="graphics-object" aria-roledescription="rect mark container"><path aria-label="Name: CD drive; Revenue: 100; classify: Creative Labs" role="graphics-symbol" aria-roledescription="bar" d="M81,150h18v150h-18Z" fill="#4c78a8"/><path aria-label="Name: DVD burner; Revenue: 100; classify: Creative Labs" role="graphics-symbol" aria-roledescription="bar" d="M101,150h18v150h-18Z" fill="#4c78a8"/><path aria-label="Name: DVD drive; Revenue: 100; classify: Creative Labs" role="graphics-symbol" aria-roledescription="bar" d="M161,75h18v150h-18Z" fill="#4c78a8"/><path aria-label="Name: Floppy disk; Revenue: 0; classify: Creative Labs" role="graphics-symbol" aria-roledescription="bar" d="M1,255h18v0h-18Z" fill="#4c78a8"/><path aria-label="Name: Hard drive; Revenue: 0; classify: Creative Labs" role="graphics-symbol" aria-roledescription="bar" d="M141,105h18v0h-18Z" fill="#4c78a8"/><path aria-label="Name: Memory; Revenue: 0; classify: Creative Labs" role="graphics-symbol" aria-roledescription="bar" d="M21,255h18v0h-18Z" fill="#4c78a8"/><path aria-label="Name: Monitor; Revenue: 0; classify: Creative Labs" role="graphics-symbol" aria-roledescription="bar" d="M121,120h18v0h-18Z" fill="#4c78a8"/><path aria-label="Name: Printer; Revenue: 0; classify: Creative Labs" role="graphics-symbol" aria-roledescription="bar" d="M41,225h18v0h-18Z" fill="#4c78a8"/><path aria-label="Name: Toner cartridge; Revenue: 0; classify: Creative Labs" role="graphics-symbol" aria-roledescription="bar" d="M61,225h18v0h-18Z" fill="#4c78a8"/><path aria-label="Name: ZIP drive; Revenue: 0; classify: Creative Labs" role="graphics-symbol" aria-roledescription="bar" d="M181,0h18v0h-18Z" fill="#4c78a8"/><path aria-label="Name: CD drive; Revenue: 0; classify: Fujits" role="graphics-symbol" aria-roledescription="bar" d="M81,300h18v0h-18Z" fill="#f58518"/><path aria-label="Name: DVD burner; Revenue: 0; classify: Fujits" role="graphics-symbol" aria-roledescription="bar" d="M101,300h18v0h-18Z" fill="#f58518"/><path aria-label="Name: DVD drive; Revenue: 0; classify: Fujits" role="graphics-symbol" aria-roledescription="bar" d="M161,225h18v0h-18Z" fill="#f58518"/><path aria-label="Name: Floppy disk; Revenue: 0; classify: Fujits" role="graphics-symbol" aria-roledescription="bar" d="M1,255h18v0h-18Z" fill="#f58518"/><path aria-label="Name: Hard drive; Revenue: 130; classify: Fujits" role="graphics-symbol" aria-roledescription="bar" d="M141,105h18v195h-18Z" fill="#f58518"/><path aria-label="Name: Memory; Revenue: 0; classify: Fujits" role="graphics-symbol" aria-roledescription="bar" d="M21,255h18v0h-18Z" fill="#f58518"/><path aria-label="Name: Monitor; Revenue: 0; classify: Fujits" role="graphics-symbol" aria-roledescription="bar" d="M121,120h18v0h-18Z" fill="#f58518"/><path aria-label="Name: Printer; Revenue: 0; classify: Fujits" role="graphics-symbol" aria-roledescription="bar" d="M41,225h18v0h-18Z" fill="#f58518"/><path aria-label="Name: Toner cartridge; Revenue: 0; classify: Fujits" role="graphics-symbol" aria-roledescription="bar" d="M61,225h18v0h-18Z" fill="#f58518"/><path aria-label="Name: ZIP drive; Revenue: 0; classify: Fujits" role="graphics-symbol" aria-roledescription="bar" d="M181,0h18v0h-18Z" fill="#f58518"/><path aria-label="Name: CD drive; Revenue: 0; classify: Hewlett-Packard" role="graphics-symbol" aria-roledescription="bar" d="M81,300h18v0h-18Z" fill="#e45756"/><path aria-label="Name: DVD burner; Revenue: 0; classify: Hewlett-Packard" role="graphics-symbol" aria-roledescription="bar" d="M101,300h18v0h-18Z" fill="#e45756"/><path aria-label="Name: DVD drive; Revenue: 50; classify: Hewlett-Packard" role="graphics-symbol" aria-roledescription="bar" d="M161,225h18v75h-18Z" fill="#e45756"/><path aria-label="Name: Floppy disk; Revenue: 0; classify: Hewlett-Packard" role="graphics-symbol" aria-roledescription="bar" d="M1,255h18v0h-18Z" fill="#e45756"/><path aria-label="Name: Hard drive; Revenue: 0; classify: Hewlett-Packard" role="graphics-symbol" aria-roledescription="bar" d="M141,300h18v0h-18Z" fill="#e45756"/><path aria-label="Name: Memory; Revenue: 0; classify: Hewlett-Packard" role="graphics-symbol" aria-roledescription="bar" d="M21,255h18v0h-18Z" fill="#e45756"/><path aria-label="Name: Monitor; Revenue: 0; classify: Hewlett-Packard" role="graphics-symbol" aria-roledescription="bar" d="M121,120h18v0h-18Z" fill="#e45756"/><path aria-label="Name: Printer; Revenue: 50; classify: Hewlett-Packard" role="graphics-symbol" aria-roledescription="bar" d="M41,225h18v75h-18Z" fill="#e45756"/><path aria-label="Name: Toner cartridge; Revenue: 50; classify: Hewlett-Packard" role="graphics-symbol" aria-roledescription="bar" d="M61,225h18v75h-18Z" fill="#e45756"/><path aria-label="Name: ZIP drive; Revenue: 0; classify: Hewlett-Packard" role="graphics-symbol" aria-roledescription="bar" d="M181,0h18v0h-18Z" fill="#e45756"/><path aria-label="Name: CD drive; Revenue: 0; classify: Iomega" role="graphics-symbol" aria-roledescription="bar" d="M81,300h18v0h-18Z" fill="#72b7b2"/><path aria-label="Name: DVD burner; Revenue: 0; classify: Iomega" role="graphics-symbol" aria-roledescription="bar" d="M101,300h18v0h-18Z" fill="#72b7b2"/><path aria-label="Name: DVD drive; Revenue: 0; classify: Iomega" role="graphics-symbol" aria-roledescription="bar" d="M161,300h18v0h-18Z" fill="#72b7b2"/><path aria-label="Name: Floppy disk; Revenue: 0; classify: Iomega" role="graphics-symbol" aria-roledescription="bar" d="M1,255h18v0h-18Z" fill="#72b7b2"/><path aria-label="Name: Hard drive; Revenue: 0; classify: Iomega" role="graphics-symbol" aria-roledescription="bar" d="M141,300h18v0h-18Z" fill="#72b7b2"/><path aria-label="Name: Memory; Revenue: 0; classify: Iomega" role="graphics-symbol" aria-roledescription="bar" d="M21,255h18v0h-18Z" fill="#72b7b2"/><path aria-label="Name: Monitor; Revenue: 0; classify: Iomega" role="graphics-symbol" aria-roledescription="bar" d="M121,120h18v0h-18Z" fill="#72b7b2"/><path aria-label="Name: Printer; Revenue: 0; classify: Iomega" role="graphics-symbol" aria-roledescription="bar" d="M41,300h18v0h-18Z" fill="#72b7b2"/><path aria-label="Name: Toner cartridge; Revenue: 0; classify: Iomega" role="graphics-symbol" aria-roledescription="bar" d="M61,300h18v0h-18Z" fill="#72b7b2"/><path aria-label="Name: ZIP drive; Revenue: 200; classify: Iomega" role="graphics-symbol" aria-roledescription="bar" d="M181,0h18v300h-18Z" fill="#72b7b2"/><path aria-label="Name: CD drive; Revenue: 0; classify: Sony" role="graphics-symbol" aria-roledescription="bar" d="M81,300h18v0h-18Z" fill="#54a24b"/><path aria-label="Name: DVD burner; Revenue: 0; classify: Sony" role="graphics-symbol" aria-roledescription="bar" d="M101,300h18v0h-18Z" fill="#54a24b"/><path aria-label="Name: DVD drive; Revenue: 0; classify: Sony" role="graphics-symbol" aria-roledescription="bar" d="M161,300h18v0h-18Z" fill="#54a24b"/><path aria-label="Name: Floppy disk; Revenue: 0; classify: Sony" role="graphics-symbol" aria-roledescription="bar" d="M1,255h18v0h-18Z" fill="#54a24b"/><path aria-label="Name: Hard drive; Revenue: 0; classify: Sony" role="graphics-symbol" aria-roledescription="bar" d="M141,300h18v0h-18Z" fill="#54a24b"/><path aria-label="Name: Memory; Revenue: 0; classify: Sony" role="graphics-symbol" aria-roledescription="bar" d="M21,255h18v0h-18Z" fill="#54a24b"/><path aria-label="Name: Monitor; Revenue: 120; classify: Sony" role="graphics-symbol" aria-roledescription="bar" d="M121,120h18v180h-18Z" fill="#54a24b"/><path aria-label="Name: Printer; Revenue: 0; classify: Sony" role="graphics-symbol" aria-roledescription="bar" d="M41,300h18v0h-18Z" fill="#54a24b"/><path aria-label="Name: Toner cartridge; Revenue: 0; classify: Sony" role="graphics-symbol" aria-roledescription="bar" d="M61,300h18v0h-18Z" fill="#54a24b"/><path aria-label="Name: ZIP drive; Revenue: 0; classify: Sony" role="graphics-symbol" aria-roledescription="bar" d="M181,300h18v0h-18Z" fill="#54a24b"/><path aria-label="Name: CD drive; Revenue: 0; classify: Winchester" role="graphics-symbol" aria-roledescription="bar" d="M81,300h18v0h-18Z" fill="#eeca3b"/><path aria-label="Name: DVD burner; Revenue: 0; classify: Winchester" role="graphics-symbol" aria-roledescription="bar" d="M101,300h18v0h-18Z" fill="#eeca3b"/><path aria-label="Name: DVD drive; Revenue: 0; classify: Winchester" role="graphics-symbol" aria-roledescription="bar" d="M161,300h18v0h-18Z" fill="#eeca3b"/><path aria-label="Name: Floppy disk; Revenue: 30; classify: Winchester" role="graphics-symbol" aria-roledescription="bar" d="M1,255h18v45h-18Z" fill="#eeca3b"/><path aria-label="Name: Hard drive; Revenue: 0; classify: Winchester" role="graphics-symbol" aria-roledescription="bar" d="M141,300h18v0h-18Z" fill="#eeca3b"/><path aria-label="Name: Memory; Revenue: 30; classify: Winchester" role="graphics-symbol" aria-roledescription="bar" d="M21,255h18v45h-18Z" fill="#eeca3b"/><path aria-label="Name: Monitor; Revenue: 0; classify: Winchester" role="graphics-symbol" aria-roledescription="bar" d="M121,300h18v0h-18Z" fill="#eeca3b"/><path aria-label="Name: Printer; Revenue: 0; classify: Winchester" role="graphics-symbol" aria-roledescription="bar" d="M41,300h18v0h-18Z" fill="#eeca3b"/><path aria-label="Name: Toner cartridge; Revenue: 0; classify: Winchester" role="graphics-symbol" aria-roledescription="bar" d="M61,300h18v0h-18Z" fill="#eeca3b"/><path aria-label="Name: ZIP drive; Revenue: 0; classify: Winchester" role="graphics-symbol" aria-roledescription="bar" d="M181,300h18v0h-18Z" fill="#eeca3b"/></g><g class="mark-group role-legend" role="graphics-symbol" aria-roledescription="legend" aria-label="Symbol legend titled 'classify' for fill color with 6 values: Creative Labs, Fujits, Hewlett-Packard, Iomega, Sony, Winchester"><g transform="translate(218,0)"><path class="background" aria-hidden="true" d="M0,0h90v92h-90Z" pointer-events="none"/><g><g class="mark-group role-legend-entry"><g transform="translate(0,16)"><path class="background" aria-hidden="true" d="M0,0h0v0h0Z" pointer-events="none"/><g><g class="mark-group role-scope" role="graphics-object" aria-roledescription="group mark container"><g transform="translate(0,0)"><path class="background" aria-hidden="true" d="M0,0h89.359375v11h-89.359375Z" pointer-events="none" opacity="1"/><g><g class="mark-symbol role-legend-symbol" pointer-events="none"><path transform="translate(6,6)" d="M-5,-5h10v10h-10Z" fill="#4c78a8" stroke-width="1.5" opacity="1"/></g><g class="mark-text role-legend-label" pointer-events="none"><text text-anchor="start" transform="translate(16,9)" font-family="sans-serif" font-size="10px" fill="#000" opacity="1">Creative Labs</text></g></g><path class="foreground" aria-hidden="true" d="" pointer-events="none" display="none"/></g><g transform="translate(0,13)"><path class="background" aria-hidden="true" d="M0,0h89.359375v11h-89.359375Z" pointer-events="none" opacity="1"/><g><g class="mark-symbol role-legend-symbol" pointer-events="none"><path transform="translate(6,6)" d="M-5,-5h10v10h-10Z" fill="#f58518" stroke-width="1.5" opacity="1"/></g><g class="mark-text role-legend-label" pointer-events="none"><text text-anchor="start" transform="translate(16,9)" font-family="sans-serif" font-size="10px" fill="#000" opacity="1">Fujits</text></g></g><path class="foreground" aria-hidden="true" d="" pointer-events="none" display="none"/></g><g transform="translate(0,26)"><path class="background" aria-hidden="true" d="M0,0h89.359375v11h-89.359375Z" pointer-events="none" opacity="1"/><g><g class="mark-symbol role-legend-symbol" pointer-events="none"><path transform="translate(6,6)" d="M-5,-5h10v10h-10Z" fill="#e45756" stroke-width="1.5" opacity="1"/></g><g class="mark-text role-legend-label" pointer-events="none"><text text-anchor="start" transform="translate(16,9)" font-family="sans-serif" font-size="10px" fill="#000" opacity="1">Hewlett-Packard</text></g></g><path class="foreground" aria-hidden="true" d="" pointer-events="none" display="none"/></g><g transform="translate(0,39)"><path class="background" aria-hidden="true" d="M0,0h89.359375v11h-89.359375Z" pointer-events="none" opacity="1"/><g><g class="mark-symbol role-legend-symbol" pointer-events="none"><path transform="translate(6,6)" d="M-5,-5h10v10h-10Z" fill="#72b7b2" stroke-width="1.5" opacity="1"/></g><g class="mark-text role-legend-label" pointer-events="none"><text text-anchor="start" transform="translate(16,9)" font-family="sans-serif" font-size="10px" fill="#000" opacity="1">Iomega</text></g></g><path class="foreground" aria-hidden="true" d="" pointer-events="none" display="none"/></g><g transform="translate(0,52)"><path class="background" aria-hidden="true" d="M0,0h89.359375v11h-89.359375Z" pointer-events="none" opacity="1"/><g><g class="mark-symbol role-legend-symbol" pointer-events="none"><path transform="translate(6,6)" d="M-5,-5h10v10h-10Z" fill="#54a24b" stroke-width="1.5" opacity="1"/></g><g class="mark-text role-legend-label" pointer-events="none"><text text-anchor="start" transform="translate(16,9)" font-family="sans-serif" font-size="10px" fill="#000" opacity="1">Sony</text></g></g><path class="foreground" aria-hidden="true" d="" pointer-events="none" display="none"/></g><g transform="translate(0,65)"><path class="background" aria-hidden="true" d="M0,0h89.359375v11h-89.359375Z" pointer-events="none" opacity="1"/><g><g class="mark-symbol role-legend-symbol" pointer-events="none"><path transform="translate(6,6)" d="M-5,-5h10v10h-10Z" fill="#eeca3b" stroke-width="1.5" opacity="1"/></g><g class="mark-text role-legend-label" pointer-events="none"><text text-anchor="start" transform="translate(16,9)" font-family="sans-serif" font-size="10px" fill="#000" opacity="1">Winchester</text></g></g><path class="foreground" aria-hidden="true" d="" pointer-events="none" display="none"/></g></g></g><path class="foreground" aria-hidden="true" d="" pointer-events="none" display="none"/></g></g><g class="mark-text role-legend-title" pointer-events="none"><text text-anchor="start" transform="translate(0,9)" font-family="sans-serif" font-size="11px" font-weight="bold" fill="#000" opacity="1">classify</text></g></g><path class="foreground" aria-hidden="true" d="" pointer-events="none" display="none"/></g></g></g><path class="foreground" aria-hidden="true" d="" display="none"/></g></g></g></svg>