<svg xmlns="http://www.w3.org/2000/svg" xmlns:xlink="http://www.w3.org/1999/xlink" version="1.1" class="marks" width="258" height="520" viewBox="0 0 258 520"><rect width="258" height="520" fill="white"/><g fill="none" stroke-miterlimit="10" transform="translate(41,10)"><g class="mark-group role-frame root" role="graphics-object" aria-roledescription="group mark container"><g transform="translate(0,0)"><path class="background" aria-hidden="true" d="M0.5,0.5h120v300h-120Z" stroke="#ddd"/><g><g class="mark-group role-axis" aria-hidden="true"><g transform="translate(0.5,0.5)"><path class="background" aria-hidden="true" d="M0,0h0v0h0Z" pointer-events="none"/><g><g class="mark-rule role-axis-grid" pointer-events="none"><line transform="translate(0,300)" x2="120" y2="0" stroke="#ddd" stroke-width="1" opacity="1"/><line transform="translate(0,250)" x2="120" y2="0" stroke="#ddd" stroke-width="1" opacity="1"/><line transform="translate(0,200)" x2="120" y2="0" stroke="#ddd" stroke-width="1" opacity="1"/><line transform="translate(0,150)" x2="120" y2="0" stroke="#ddd" stroke-width="1" opacity="1"/><line transform="translate(0,100)" x2="120" y2="0" stroke="#ddd" stroke-width="1" opacity="1"/><line transform="translate(0,50)" x2="120" y2="0" stroke="#ddd" stroke-width="1" opacity="1"/><line transform="translate(0,0)" x2="120" y2="0" stroke="#ddd" stroke-width="1" opacity="1"/></g></g><path class="foreground" aria-hidden="true" d="" pointer-events="none" display="none"/></g></g><g class="mark-group role-axis" role="graphics-symbol" aria-roledescription="axis" aria-label="X-axis titled 'services' for a discrete scale with 6 values: c2c, Metropolitan line and Chiltern Railways, Metropolitan line, London Overground and London Midland, London Overground, Greater Anglia"><g transform="translate(0.5,300.5)"><path class="background" aria-hidden="true" d="M0,0h0v0h0Z" pointer-events="none"/><g><g class="mark-rule role-axis-tick" pointer-events="none"><line transform="translate(10,0)" x2="0" y2="5" stroke="#888" stroke-width="1" opacity="1"/><line transform="translate(30,0)" x2="0" y2="5" stroke="#888" stroke-width="1" opacity="1"/><line transform="translate(50,0)" x2="0" y2="5" stroke="#888" stroke-width="1" opacity="1"/><line transform="translate(70,0)" x2="0" y2="5" stroke="#888" stroke-width="1" opacity="1"/><line transform="translate(90,0)" x2="0" y2="5" stroke="#888" stroke-width="1" opacity="1"/><line transform="translate(110,0)" x2="0" y2="5" stroke="#888" stroke-width="1" opacity="1"/></g><g class="mark-text role-axis-label" pointer-events="none"><text text-anchor="end" transform="translate(9.5,7) rotate(270) translate(0,3)" font-family="sans-serif" font-size="10px" fill="#000" opacity="1">c2c</text><text text-anchor="end" transform="translate(29.5,7) rotate(270) translate(0,3)" font-family="sans-serif" font-size="10px" fill="#000" opacity="1">Metropolitan line and…</text><text text-anchor="end" transform="translate(49.5,7) rotate(270) translate(0,3)" font-family="sans-serif" font-size="10px" fill="#000" opacity="1">Metropolitan line</text><text text-anchor="end" transform="translate(69.5,7) rotate(270) translate(0,3)" font-family="sans-serif" font-size="10px" fill="#000" opacity="1">London Overground and…</text><text text-anchor="end" transform="translate(89.5,7) rotate(270) translate(0,3)" font-family="sans-serif" font-size="10px" fill="#000" opacity="1">London Overground</text><text text-anchor="end" transform="translate(109.5,7) rotate(270) translate(0,3)" font-family="sans-serif" font-size="10px" fill="#000" opacity="1">Greater Anglia</text></g><g class="mark-rule role-axis-domain" pointer-events="none"><line transform="translate(0,0)" x2="120" y2="0" stroke="#888" stroke-width="1" opacity="1"/></g><g class="mark-text role-axis-title" pointer-events="none"><text text-anchor="middle" transform="translate(60,202.36328125)" font-family="sans-serif" font-size="11px" font-weight="bold" fill="#000" opacity="1">services</text></g></g><path class="foreground" aria-hidden="true" d="" pointer-events="none" display="none"/></g></g><g class="mark-group role-axis" role="graphics-symbol" aria-roledescription="axis" aria-label="Y-axis titled 'COUNT(services)' for a linear scale with values from 0.0 to 3.0"><g transform="translate(0.5,0.5)"><path class="background" aria-hidden="true" d="M0,0h0v0h0Z" pointer-events="none"/><g><g class="mark-rule role-axis-tick" pointer-events="none"><line transform="translate(0,300)" x2="-5" y2="0" stroke="#888" stroke-width="1" opacity="1"/><line transform="translate(0,250)" x2="-5" y2="0" stroke="#888" stroke-width="1" opacity="1"/><line transform="translate(0,200)" x2="-5" y2="0" stroke="#888" stroke-width="1" opacity="1"/><line transform="translate(0,150)" x2="-5" y2="0" stroke="#888" stroke-width="1" opacity="1"/><line transform="translate(0,100)" x2="-5" y2="0" stroke="#888" stroke-width="1" opacity="1"/><line transform="translate(0,50)" x2="-5" y2="0" stroke="#888" stroke-width="1" opacity="1"/><line transform="translate(0,0)" x2="-5" y2="0" stroke="#888" stroke-width="1" opacity="1"/></g><g class="mark-text role-axis-label" pointer-events="none"><text text-anchor="end" transform="translate(-7,303)" font-family="sans-serif" font-size="10px" fill="#000" opacity="1">0.0</text><text text-anchor="end" transform="translate(-7,253)" font-family="sans-serif" font-size="10px" fill="#000" opacity="1">0.5</text><text text-anchor="end" transform="translate(-7,203.00000000000003)" font-family="sans-serif" font-size="10px" fill="#000" opacity="1">1.0</text><text text-anchor="end" transform="translate(-7,153)" font-family="sans-serif" font-size="10px" fill="#000" opacity="1">1.5</text><text text-anchor="end" transform="translate(-7,103.00000000000001)" font-family="sans-serif" font-size="10px" fill="#000" opacity="1">2.0</text><text text-anchor="end" transform="translate(-7,52.999999999999986)" font-family="sans-serif" font-size="10px" fill="#000" opacity="1">2.5</text><text text-anchor="end" transform="translate(-7,3)" font-family="sans-serif" font-size="10px" fill="#000" opacity="1">3.0</text></g><g class="mark-rule role-axis-domain" pointer-events="none"><line transform="translate(0,300)" x2="0" y2="-300" stroke="#888" stroke-width="1" opacity="1"/></g><g class="mark-text role-axis-title" pointer-events="none"><text text-anchor="middle" transform="translate(-24.9013671875,150) rotate(-90) translate(0,-2)" font-family="sans-serif" font-size="11px" font-weight="bold" fill="#000" opacity="1">COUNT(services)</text></g></g><path class="foreground" aria-hidden="true" d="" pointer-events="none" display="none"/></g></g><g class="mark-rect role-mark marks" role="graphics-object" aria-roledescription="rect mark container"><path aria-label="services: c2c; COUNT(services): 0; classify: Brentwood" role="graphics-symbol" aria-roledescription="bar" d="M1,200.00000000000003h18v0h-18Z" fill="#4c78a8"/><path aria-label="services: Metropolitan line and Chiltern Railways; COUNT(services): 0; classify: Brentwood" role="graphics-symbol" aria-roledescription="bar" d="M21,0h18v0h-18Z" fill="#4c78a8"/><path aria-label="services: Metropolitan line; COUNT(services): 0; classify: Brentwood" role="graphics-symbol" aria-roledescription="bar" d="M41,100.00000000000001h18v0h-18Z" fill="#4c78a8"/><path aria-label="services: London Overground and London Midland; COUNT(services): 0; classify: Brentwood" role="graphics-symbol" aria-roledescription="bar" d="M61,200.00000000000003h18v0h-18Z" fill="#4c78a8"/><path aria-label="services: London Overground; COUNT(services): 0; classify: Brentwood" role="graphics-symbol" aria-roledescription="bar" d="M81,200.00000000000003h18v0h-18Z" fill="#4c78a8"/><path aria-label="services: Greater Anglia; COUNT(services): 1; classify: Brentwood" role="graphics-symbol" aria-roledescription="bar" d="M101,0h18v100.00000000000001h-18Z" fill="#4c78a8"/><path aria-label="services: c2c; COUNT(services): 0; classify: Broxbourne" role="graphics-symbol" aria-roledescription="bar" d="M1,200.00000000000003h18v0h-18Z" fill="#f58518"/><path aria-label="services: Metropolitan line and Chiltern Railways; COUNT(services): 0; classify: Broxbourne" role="graphics-symbol" aria-roledescription="bar" d="M21,0h18v0h-18Z" fill="#f58518"/><path aria-label="services: Metropolitan line; COUNT(services): 0; classify: Broxbourne" role="graphics-symbol" aria-roledescription="bar" d="M41,100.00000000000001h18v0h-18Z" fill="#f58518"/><path aria-label="services: London Overground and London Midland; COUNT(services): 0; classify: Broxbourne" role="graphics-symbol" aria-roledescription="bar" d="M61,200.00000000000003h18v0h-18Z" fill="#f58518"/><path aria-label="services: London Overground; COUNT(services): 0; classify: Broxbourne" role="graphics-symbol" aria-roledescription="bar" d="M81,200.00000000000003h18v0h-18Z" fill="#f58518"/><path aria-label="services: Greater Anglia; COUNT(services): 2; classify: Broxbourne" role="graphics-symbol" aria-roledescription="bar" d="M101,100.00000000000001h18v200h-18Z" fill="#f58518"/><path aria-label="services: c2c; COUNT(services): 0; classify: Chiltern" role="graphics-symbol" aria-roledescription="bar" d="M1,200.00000000000003h18v0h-18Z" fill="#e45756"/><path aria-label="services: Metropolitan line and Chiltern Railways; COUNT(services): 2; classify: Chiltern" role="graphics-symbol" aria-roledescription="bar" d="M21,0h18v200.00000000000003h-18Z" fill="#e45756"/><path aria-label="services: Metropolitan line; COUNT(services): 1; classify: Chiltern" role="graphics-symbol" aria-roledescription="bar" d="M41,100.00000000000001h18v100.00000000000001h-18Z" fill="#e45756"/><path aria-label="services: London Overground and London Midland; COUNT(services): 0; classify: Chiltern" role="graphics-symbol" aria-roledescription="bar" d="M61,200.00000000000003h18v0h-18Z" fill="#e45756"/><path aria-label="services: London Overground; COUNT(services): 0; classify: Chiltern" role="graphics-symbol" aria-roledescription="bar" d="M81,200.00000000000003h18v0h-18Z" fill="#e45756"/><path aria-label="services: Greater Anglia; COUNT(services): 0; classify: Chiltern" role="graphics-symbol" aria-roledescription="bar" d="M101,300h18v0h-18Z" fill="#e45756"/><path aria-label="services: c2c; COUNT(services): 0; classify: Three Rivers" role="graphics-symbol" aria-roledescription="bar" d="M1,200.00000000000003h18v0h-18Z" fill="#72b7b2"/><path aria-label="services: Metropolitan line and Chiltern Railways; COUNT(services): 1; classify: Three Rivers" role="graphics-symbol" aria-roledescription="bar" d="M21,200.00000000000003h18v99.99999999999997h-18Z" fill="#72b7b2"/><path aria-label="services: Metropolitan line; COUNT(services): 1; classify: Three Rivers" role="graphics-symbol" aria-roledescription="bar" d="M41,200.00000000000003h18v99.99999999999997h-18Z" fill="#72b7b2"/><path aria-label="services: London Overground and London Midland; COUNT(services): 0; classify: Three Rivers" role="graphics-symbol" aria-roledescription="bar" d="M61,200.00000000000003h18v0h-18Z" fill="#72b7b2"/><path aria-label="services: London Overground; COUNT(services): 1; classify: Three Rivers" role="graphics-symbol" aria-roledescription="bar" d="M81,200.00000000000003h18v99.99999999999997h-18Z" fill="#72b7b2"/><path aria-label="services: Greater Anglia; COUNT(services): 0; classify: Three Rivers" role="graphics-symbol" aria-roledescription="bar" d="M101,300h18v0h-18Z" fill="#72b7b2"/><path aria-label="services: c2c; COUNT(services): 1; classify: Thurrock" role="graphics-symbol" aria-roledescription="bar" d="M1,200.00000000000003h18v99.99999999999997h-18Z" fill="#54a24b"/><path aria-label="services: Metropolitan line and Chiltern Railways; COUNT(services): 0; classify: Thurrock" role="graphics-symbol" aria-roledescription="bar" d="M21,300h18v0h-18Z" fill="#54a24b"/><path aria-label="services: Metropolitan line; COUNT(services): 0; classify: Thurrock" role="graphics-symbol" aria-roledescription="bar" d="M41,300h18v0h-18Z" fill="#54a24b"/><path aria-label="services: London Overground and London Midland; COUNT(services): 0; classify: Thurrock" role="graphics-symbol" aria-roledescription="bar" d="M61,200.00000000000003h18v0h-18Z" fill="#54a24b"/><path aria-label="services: London Overground; COUNT(services): 0; classify: Thurrock" role="graphics-symbol" aria-roledescription="bar" d="M81,300h18v0h-18Z" fill="#54a24b"/><path aria-label="services: Greater Anglia; COUNT(services): 0; classify: Thurrock" role="graphics-symbol" aria-roledescription="bar" d="M101,300h18v0h-18Z" fill="#54a24b"/><path aria-label="services: c2c; COUNT(services): 0; classify: Watford" role="graphics-symbol" aria-roledescription="bar" d="M1,300h18v0h-18Z" fill="#eeca3b"/><path aria-label="services: Metropolitan line and Chiltern Railways; COUNT(services): 0; classify: Watford" role="graphics-symbol" aria-roledescription="bar" d="M21,300h18v0h-18Z" fill="#eeca3b"/><path aria-label="services: Metropolitan line; COUNT(services): 0; classify: Watford" role="graphics-symbol" aria-roledescription="bar" d="M41,300h18v0h-18Z" fill="#eeca3b"/><path aria-label="services: London Overground and London Midland; COUNT(services): 1; classify: Watford" role="graphics-symbol" aria-roledescription="bar" d="M61,200.00000000000003h18v99.99999999999997h-18Z" fill="#eeca3b"/><path aria-label="services: London Overground; COUNT(services): 0; classify: Watford" role="graphics-symbol" aria-roledescription="bar" d="M81,300h18v0h-18Z" fill="#eeca3b"/><path aria-label="services: Greater Anglia; COUNT(services): 0; classify: Watford" role="graphics-symbol" aria-roledescription="bar" d="M101,300h18v0h-18Z" fill="#eeca3b"/></g><g class="mark-group role-legend" role="graphics-symbol" aria-roledescription="legend" aria-label="Symbol legend titled 'classify' for fill color with 6 values: Brentwood, Broxbourne, Chiltern, Three Rivers, Thurrock, Watford"><g transform="translate(138,0)"><path class="background" aria-hidden="true" d="M0,0h74v92h-74Z" pointer-events="none"/><g><g class="mark-group role-legend-entry"><g transform="translate(0,16)"><path class="background" aria-hidden="true" d="M0,0h0v0h0Z" pointer-events="none"/><g><g class="mark-group role-scope" role="graphics-object" aria-roledescription="group mark container"><g transform="translate(0,0)"><path class="background" aria-hidden="true" d="M0,0h73.236328125v11h-73.236328125Z" pointer-events="none" opacity="1"/><g><g class="mark-symbol role-legend-symbol" pointer-events="none"><path transform="translate(6,6)" d="M-5,-5h10v10h-10Z" fill="#4c78a8" stroke-width="1.5" opacity="1"/></g><g class="mark-text role-legend-label" pointer-events="none"><text text-anchor="start" transform="translate(16,9)" font-family="sans-serif" font-size="10px" fill="#000" opacity="1">Brentwood</text></g></g><path class="foreground" aria-hidden="true" d="" pointer-events="none" display="none"/></g><g transform="translate(0,13)"><path class="background" aria-hidden="true" d="M0,0h73.236328125v11h-73.236328125Z" pointer-events="none" opacity="1"/><g><g class="mark-symbol role-legend-symbol" pointer-events="none"><path transform="translate(6,6)" d="M-5,-5h10v10h-10Z" fill="#f58518" stroke-width="1.5" opacity="1"/></g><g class="mark-text role-legend-label" pointer-events="none"><text text-anchor="start" transform="translate(16,9)" font-family="sans-serif" font-size="10px" fill="#000" opacity="1">Broxbourne</text></g></g><path class="foreground" aria-hidden="true" d="" pointer-events="none" display="none"/></g><g transform="translate(0,26)"><path class="background" aria-hidden="true" d="M0,0h73.236328125v11h-73.236328125Z" pointer-events="none" opacity="1"/><g><g class="mark-symbol role-legend-symbol" pointer-events="none"><path transform="translate(6,6)" d="M-5,-5h10v10h-10Z" fill="#e45756" stroke-width="1.5" opacity="1"/></g><g class="mark-text role-legend-label" pointer-events="none"><text text-anchor="start" transform="translate(16,9)" font-family="sans-serif" font-size="10px" fill="#000" opacity="1">Chiltern</text></g></g><path class="foreground" aria-hidden="true" d="" pointer-events="none" display="none"/></g><g transform="translate(0,39)"><path class="background" aria-hidden="true" d="M0,0h73.236328125v11h-73.236328125Z" pointer-events="none" opacity="1"/><g><g class="mark-symbol role-legend-symbol" pointer-events="none"><path transform="translate(6,6)" d="M-5,-5h10v10h-10Z" fill="#72b7b2" stroke-width="1.5" opacity="1"/></g><g class="mark-text role-legend-label" pointer-events="none"><text text-anchor="start" transform="translate(16,9)" font-family="sans-serif" font-size="10px" fill="#000" opacity="1">Three Rivers</text></g></g><path class="foreground" aria-hidden="true" d="" pointer-events="none" display="none"/></g><g transform="translate(0,52)"><path class="background" aria-hidden="true" d="M0,0h73.236328125v11h-73.236328125Z" pointer-events="none" opacity="1"/><g><g class="mark-symbol role-legend-symbol" pointer-events="none"><path transform="translate(6,6)" d="M-5,-5h10v10h-10Z" fill="#54a24b" stroke-width="1.5" opacity="1"/></g><g class="mark-text role-legend-label" pointer-events="none"><text text-anchor="start" transform="translate(16,9)" font-family="sans-serif" font-size="10px" fill="#000" opacity="1">Thurrock</text></g></g><path class="foreground" aria-hidden="true" d="" pointer-events="none" display="none"/></g><g transform="translate(0,65)"><path class="background" aria-hidden="true" d="M0,0h73.236328125v11h-73.236328125Z" pointer-events="none" opacity="1"/><g><g class="mark-symbol role-legend-symbol" pointer-events="none"><path transform="translate(6,6)" d="M-5,-5h10v10h-10Z" fill="#eeca3b" stroke-width="1.5" opacity="1"/></g><g class="mark-text role-legend-label" pointer-events="none"><text text-anchor="start" transform="translate(16,9)" font-family="sans-serif" font-size="10px" fill="#000" opacity="1">Watford</text></g></g><path class="foreground" aria-hidden="true" d="" pointer-events="none" display="none"/></g></g></g><path class="foreground" aria-hidden="true" d="" pointer-events="none" display="none"/></g></g><g class="mark-text role-legend-title" pointer-events="none"><text text-anchor="start" transform="translate(0,9)" font-family="sans-serif" font-size="11px" font-weight="bold" fill="#000" opacity="1">classify</text></g></g><path class="foreground" aria-hidden="true" d="" pointer-events="none" display="none"/></g></g></g><path class="foreground" aria-hidden="true" d="" display="none"/></g></g></g></svg>