<svg xmlns="http://www.w3.org/2000/svg" xmlns:xlink="http://www.w3.org/1999/xlink" version="1.1" class="marks" width="143" height="345" viewBox="0 0 143 345"><rect width="143" height="345" fill="white"/><g fill="none" stroke-miterlimit="10" transform="translate(58,10)"><g class="mark-group role-frame root" role="graphics-object" aria-roledescription="group mark container"><g transform="translate(0,0)"><path class="background" aria-hidden="true" d="M0.5,0.5h80v300h-80Z" stroke="#ddd"/><g><g class="mark-group role-axis" aria-hidden="true"><g transform="translate(0.5,0.5)"><path class="background" aria-hidden="true" d="M0,0h0v0h0Z" pointer-events="none"/><g><g class="mark-rule role-axis-grid" pointer-events="none"><line transform="translate(0,300)" x2="80" y2="0" stroke="#ddd" stroke-width="1" opacity="1"/><line transform="translate(0,263)" x2="80" y2="0" stroke="#ddd" stroke-width="1" opacity="1"/><line transform="translate(0,225)" x2="80" y2="0" stroke="#ddd" stroke-width="1" opacity="1"/><line transform="translate(0,188)" x2="80" y2="0" stroke="#ddd" stroke-width="1" opacity="1"/><line transform="translate(0,150)" x2="80" y2="0" stroke="#ddd" stroke-width="1" opacity="1"/><line transform="translate(0,113)" x2="80" y2="0" stroke="#ddd" stroke-width="1" opacity="1"/><line transform="translate(0,75)" x2="80" y2="0" stroke="#ddd" stroke-width="1" opacity="1"/><line transform="translate(0,38)" x2="80" y2="0" stroke="#ddd" stroke-width="1" opacity="1"/><line transform="translate(0,0)" x2="80" y2="0" stroke="#ddd" stroke-width="1" opacity="1"/></g></g><path class="foreground" aria-hidden="true" d="" pointer-events="none" display="none"/></g></g><g class="mark-group role-axis" role="graphics-symbol" aria-roledescription="axis" aria-label="X-axis titled 'hand' for a discrete scale with 4 values: U, R, L, "><g transform="translate(0.5,300.5)"><path class="background" aria-hidden="true" d="M0,0h0v0h0Z" pointer-events="none"/><g><g class="mark-rule role-axis-tick" pointer-events="none"><line transform="translate(10,0)" x2="0" y2="5" stroke="#888" stroke-width="1" opacity="1"/><line transform="translate(30,0)" x2="0" y2="5" stroke="#888" stroke-width="1" opacity="1"/><line transform="translate(50,0)" x2="0" y2="5" stroke="#888" stroke-width="1" opacity="1"/><line transform="translate(70,0)" x2="0" y2="5" stroke="#888" stroke-width="1" opacity="1"/></g><g class="mark-text role-axis-label" pointer-events="none"><text text-anchor="end" transform="translate(9.5,7) rotate(270) translate(0,3)" font-family="sans-serif" font-size="10px" fill="#000" opacity="1">U</text><text text-anchor="end" transform="translate(29.5,7) rotate(270) translate(0,3)" font-family="sans-serif" font-size="10px" fill="#000" opacity="1">R</text><text text-anchor="end" transform="translate(49.5,7) rotate(270) translate(0,3)" font-family="sans-serif" font-size="10px" fill="#000" opacity="1">L</text><text text-anchor="end" transform="translate(69.5,7) rotate(270) translate(0,3)" font-family="sans-serif" font-size="10px" fill="#000" opacity="1"/></g><g class="mark-rule role-axis-domain" pointer-events="none"><line transform="translate(0,0)" x2="80" y2="0" stroke="#888" stroke-width="1" opacity="1"/></g><g class="mark-text role-axis-title" pointer-events="none"><text text-anchor="middle" transform="translate(40,27.2216796875)" font-family="sans-serif" font-size="11px" font-weight="bold" fill="#000" opacity="1">hand</text></g></g><path class="foreground" aria-hidden="true" d="" pointer-events="none" display="none"/></g></g><g class="mark-group role-axis" role="graphics-symbol" aria-roledescription="axis" aria-label="Y-axis titled 'count(*)' for a linear scale with values from 0 to 16,000"><g transform="translate(0.5,0.5)"><path class="background" aria-hidden="true" d="M0,0h0v0h0Z" pointer-events="none"/><g><g class="mark-rule role-axis-tick" pointer-events="none"><line transform="translate(0,300)" x2="-5" y2="0" stroke="#888" stroke-width="1" opacity="1"/><line transform="translate(0,263)" x2="-5" y2="0" stroke="#888" stroke-width="1" opacity="1"/><line transform="translate(0,225)" x2="-5" y2="0" stroke="#888" stroke-width="1" opacity="1"/><line transform="translate(0,188)" x2="-5" y2="0" stroke="#888" stroke-width="1" opacity="1"/><line transform="translate(0,150)" x2="-5" y2="0" stroke="#888" stroke-width="1" opacity="1"/><line transform="translate(0,113)" x2="-5" y2="0" stroke="#888" stroke-width="1" opacity="1"/><line transform="translate(0,75)" x2="-5" y2="0" stroke="#888" stroke-width="1" opacity="1"/><line transform="translate(0,38)" x2="-5" y2="0" stroke="#888" stroke-width="1" opacity="1"/><line transform="translate(0,0)" x2="-5" y2="0" stroke="#888" stroke-width="1" opacity="1"/></g><g class="mark-text role-axis-label" pointer-events="none"><text text-anchor="end" transform="translate(-7,303)" font-family="sans-serif" font-size="10px" fill="#000" opacity="1">0</text><text text-anchor="end" transform="translate(-7,265.5)" font-family="sans-serif" font-size="10px" fill="#000" opacity="1">2,000</text><text text-anchor="end" transform="translate(-7,228)" font-family="sans-serif" font-size="10px" fill="#000" opacity="1">4,000</text><text text-anchor="end" transform="translate(-7,190.5)" font-family="sans-serif" font-size="10px" fill="#000" opacity="1">6,000</text><text text-anchor="end" transform="translate(-7,153)" font-family="sans-serif" font-size="10px" fill="#000" opacity="1">8,000</text><text text-anchor="end" transform="translate(-7,115.5)" font-family="sans-serif" font-size="10px" fill="#000" opacity="1">10,000</text><text text-anchor="end" transform="translate(-7,78)" font-family="sans-serif" font-size="10px" fill="#000" opacity="1">12,000</text><text text-anchor="end" transform="translate(-7,40.5)" font-family="sans-serif" font-size="10px" fill="#000" opacity="1">14,000</text><text text-anchor="end" transform="translate(-7,3)" font-family="sans-serif" font-size="10px" fill="#000" opacity="1">16,000</text></g><g class="mark-rule role-axis-domain" pointer-events="none"><line transform="translate(0,300)" x2="0" y2="-300" stroke="#888" stroke-width="1" opacity="1"/></g><g class="mark-text role-axis-title" pointer-events="none"><text text-anchor="middle" transform="translate(-41.5859375,150) rotate(-90) translate(0,-2)" font-family="sans-serif" font-size="11px" font-weight="bold" fill="#000" opacity="1">count(*)</text></g></g><path class="foreground" aria-hidden="true" d="" pointer-events="none" display="none"/></g></g><g class="mark-rect role-mark marks" role="graphics-object" aria-roledescription="rect mark container"><path aria-label="hand: U; count(*): 14193" role="graphics-symbol" aria-roledescription="bar" d="M1,33.88125000000001h18v266.11875h-18Z" fill="#4c78a8"/><path aria-label="hand: R; count(*): 5028" role="graphics-symbol" aria-roledescription="bar" d="M21,205.72500000000002h18v94.27499999999998h-18Z" fill="#4c78a8"/><path aria-label="hand: L; count(*): 487" role="graphics-symbol" aria-roledescription="bar" d="M41,290.86875h18v9.131250000000023h-18Z" fill="#4c78a8"/><path aria-label="hand: ; count(*): 954" role="graphics-symbol" aria-roledescription="bar" d="M61,282.1125h18v17.88749999999999h-18Z" fill="#4c78a8"/></g></g><path class="foreground" aria-hidden="true" d="" display="none"/></g></g></g></svg>