<svg xmlns="http://www.w3.org/2000/svg" xmlns:xlink="http://www.w3.org/1999/xlink" version="1.1" class="marks" width="295" height="391" viewBox="0 0 295 391"><rect width="295" height="391" fill="white"/><g fill="none" stroke-miterlimit="10" transform="translate(33,10)"><g class="mark-group role-frame root" role="graphics-object" aria-roledescription="group mark container"><g transform="translate(0,0)"><path class="background" aria-hidden="true" d="M0.5,0.5h160v300h-160Z" stroke="#ddd"/><g><g class="mark-group role-axis" aria-hidden="true"><g transform="translate(0.5,0.5)"><path class="background" aria-hidden="true" d="M0,0h0v0h0Z" pointer-events="none"/><g><g class="mark-rule role-axis-grid" pointer-events="none"><line transform="translate(0,300)" x2="160" y2="0" stroke="#ddd" stroke-width="1" opacity="1"/><line transform="translate(0,263)" x2="160" y2="0" stroke="#ddd" stroke-width="1" opacity="1"/><line transform="translate(0,225)" x2="160" y2="0" stroke="#ddd" stroke-width="1" opacity="1"/><line transform="translate(0,188)" x2="160" y2="0" stroke="#ddd" stroke-width="1" opacity="1"/><line transform="translate(0,150)" x2="160" y2="0" stroke="#ddd" stroke-width="1" opacity="1"/><line transform="translate(0,113)" x2="160" y2="0" stroke="#ddd" stroke-width="1" opacity="1"/><line transform="translate(0,75)" x2="160" y2="0" stroke="#ddd" stroke-width="1" opacity="1"/><line transform="translate(0,38)" x2="160" y2="0" stroke="#ddd" stroke-width="1" opacity="1"/><line transform="translate(0,0)" x2="160" y2="0" stroke="#ddd" stroke-width="1" opacity="1"/></g></g><path class="foreground" aria-hidden="true" d="" pointer-events="none" display="none"/></g></g><g class="mark-group role-axis" role="graphics-symbol" aria-roledescription="axis" aria-label="X-axis titled 'Headquarters' for a discrete scale with 8 values: Brazil, France, Germany, Netherlands, Russia, ending with USA"><g transform="translate(0.5,300.5)"><path class="background" aria-hidden="true" d="M0,0h0v0h0Z" pointer-events="none"/><g><g class="mark-rule role-axis-tick" pointer-events="none"><line transform="translate(10,0)" x2="0" y2="5" stroke="#888" stroke-width="1" opacity="1"/><line transform="translate(30,0)" x2="0" y2="5" stroke="#888" stroke-width="1" opacity="1"/><line transform="translate(50,0)" x2="0" y2="5" stroke="#888" stroke-width="1" opacity="1"/><line transform="translate(70,0)" x2="0" y2="5" stroke="#888" stroke-width="1" opacity="1"/><line transform="translate(90,0)" x2="0" y2="5" stroke="#888" stroke-width="1" opacity="1"/><line transform="translate(110,0)" x2="0" y2="5" stroke="#888" stroke-width="1" opacity="1"/><line transform="translate(130,0)" x2="0" y2="5" stroke="#888" stroke-width="1" opacity="1"/><line transform="translate(150,0)" x2="0" y2="5" stroke="#888" stroke-width="1" opacity="1"/></g><g class="mark-text role-axis-label" pointer-events="none"><text text-anchor="end" transform="translate(9.5,7) rotate(270) translate(0,3)" font-family="sans-serif" font-size="10px" fill="#000" opacity="1">Brazil</text><text text-anchor="end" transform="translate(29.5,7) rotate(270) translate(0,3)" font-family="sans-serif" font-size="10px" fill="#000" opacity="1">France</text><text text-anchor="end" transform="translate(49.5,7) rotate(270) translate(0,3)" font-family="sans-serif" font-size="10px" fill="#000" opacity="1">Germany</text><text text-anchor="end" transform="translate(69.5,7) rotate(270) translate(0,3)" font-family="sans-serif" font-size="10px" fill="#000" opacity="1">Netherlands</text><text text-anchor="end" transform="translate(89.5,7) rotate(270) translate(0,3)" font-family="sans-serif" font-size="10px" fill="#000" opacity="1">Russia</text><text text-anchor="end" transform="translate(109.5,7) rotate(270) translate(0,3)" font-family="sans-serif" font-size="10px" fill="#000" opacity="1">UK</text><text text-anchor="end" transform="translate(129.5,7) rotate(270) translate(0,3)" font-family="sans-serif" font-size="10px" fill="#000" opacity="1">China</text><text text-anchor="end" transform="translate(149.5,7) rotate(270) translate(0,3)" font-family="sans-serif" font-size="10px" fill="#000" opacity="1">USA</text></g><g class="mark-rule role-axis-domain" pointer-events="none"><line transform="translate(0,0)" x2="160" y2="0" stroke="#888" stroke-width="1" opacity="1"/></g><g class="mark-text role-axis-title" pointer-events="none"><text text-anchor="middle" transform="translate(80,73.9208984375)" font-family="sans-serif" font-size="11px" font-weight="bold" fill="#000" opacity="1">Headquarters</text></g></g><path class="foreground" aria-hidden="true" d="" pointer-events="none" display="none"/></g></g><g class="mark-group role-axis" role="graphics-symbol" aria-roledescription="axis" aria-label="Y-axis titled 'COUNT(Headquarters)' for a linear scale with values from 0 to 8"><g transform="translate(0.5,0.5)"><path class="background" aria-hidden="true" d="M0,0h0v0h0Z" pointer-events="none"/><g><g class="mark-rule role-axis-tick" pointer-events="none"><line transform="translate(0,300)" x2="-5" y2="0" stroke="#888" stroke-width="1" opacity="1"/><line transform="translate(0,263)" x2="-5" y2="0" stroke="#888" stroke-width="1" opacity="1"/><line transform="translate(0,225)" x2="-5" y2="0" stroke="#888" stroke-width="1" opacity="1"/><line transform="translate(0,188)" x2="-5" y2="0" stroke="#888" stroke-width="1" opacity="1"/><line transform="translate(0,150)" x2="-5" y2="0" stroke="#888" stroke-width="1" opacity="1"/><line transform="translate(0,113)" x2="-5" y2="0" stroke="#888" stroke-width="1" opacity="1"/><line transform="translate(0,75)" x2="-5" y2="0" stroke="#888" stroke-width="1" opacity="1"/><line transform="translate(0,38)" x2="-5" y2="0" stroke="#888" stroke-width="1" opacity="1"/><line transform="translate(0,0)" x2="-5" y2="0" stroke="#888" stroke-width="1" opacity="1"/></g><g class="mark-text role-axis-label" pointer-events="none"><text text-anchor="end" transform="translate(-7,303)" font-family="sans-serif" font-size="10px" fill="#000" opacity="1">0</text><text text-anchor="end" transform="translate(-7,265.5)" font-family="sans-serif" font-size="10px" fill="#000" opacity="1">1</text><text text-anchor="end" transform="translate(-7,228)" font-family="sans-serif" font-size="10px" fill="#000" opacity="1">2</text><text text-anchor="end" transform="translate(-7,190.5)" font-family="sans-serif" font-size="10px" fill="#000" opacity="1">3</text><text text-anchor="end" transform="translate(-7,153)" font-family="sans-serif" font-size="10px" fill="#000" opacity="1">4</text><text text-anchor="end" transform="translate(-7,115.5)" font-family="sans-serif" font-size="10px" fill="#000" opacity="1">5</text><text text-anchor="end" transform="translate(-7,78)" font-family="sans-serif" font-size="10px" fill="#000" opacity="1">6</text><text text-anchor="end" transform="translate(-7,40.5)" font-family="sans-serif" font-size="10px" fill="#000" opacity="1">7</text><text text-anchor="end" transform="translate(-7,3)" font-family="sans-serif" font-size="10px" fill="#000" opacity="1">8</text></g><g class="mark-rule role-axis-domain" pointer-events="none"><line transform="translate(0,300)" x2="0" y2="-300" stroke="#888" stroke-width="1" opacity="1"/></g><g class="mark-text role-axis-title" pointer-events="none"><text text-anchor="middle" transform="translate(-16.5615234375,150) rotate(-90) translate(0,-2)" font-family="sans-serif" font-size="11px" font-weight="bold" fill="#000" opacity="1">COUNT(Headquarters)</text></g></g><path class="foreground" aria-hidden="true" d="" pointer-events="none" display="none"/></g></g><g class="mark-rect role-mark marks" role="graphics-object" aria-roledescription="rect mark container"><path aria-label="Headquarters: Brazil; COUNT(Headquarters): 0; classify: Automotive" role="graphics-symbol" aria-roledescription="bar" d="M1,300h18v0h-18Z" fill="#4c78a8"/><path aria-label="Headquarters: France; COUNT(Headquarters): 0; classify: Automotive" role="graphics-symbol" aria-roledescription="bar" d="M21,262.5h18v0h-18Z" fill="#4c78a8"/><path aria-label="Headquarters: Germany; COUNT(Headquarters): 0; classify: Automotive" role="graphics-symbol" aria-roledescription="bar" d="M41,262.5h18v0h-18Z" fill="#4c78a8"/><path aria-label="Headquarters: Netherlands; COUNT(Headquarters): 0; classify: Automotive" role="graphics-symbol" aria-roledescription="bar" d="M61,262.5h18v0h-18Z" fill="#4c78a8"/><path aria-label="Headquarters: Russia; COUNT(Headquarters): 1; classify: Automotive" role="graphics-symbol" aria-roledescription="bar" d="M81,225h18v37.5h-18Z" fill="#4c78a8"/><path aria-label="Headquarters: UK; COUNT(Headquarters): 0; classify: Automotive" role="graphics-symbol" aria-roledescription="bar" d="M101,225h18v0h-18Z" fill="#4c78a8"/><path aria-label="Headquarters: China; COUNT(Headquarters): 0; classify: Automotive" role="graphics-symbol" aria-roledescription="bar" d="M121,150h18v0h-18Z" fill="#4c78a8"/><path aria-label="Headquarters: USA; COUNT(Headquarters): 0; classify: Automotive" role="graphics-symbol" aria-roledescription="bar" d="M141,0h18v0h-18Z" fill="#4c78a8"/><path aria-label="Headquarters: Brazil; COUNT(Headquarters): 0; classify: Banking" role="graphics-symbol" aria-roledescription="bar" d="M1,300h18v0h-18Z" fill="#f58518"/><path aria-label="Headquarters: France; COUNT(Headquarters): 0; classify: Banking" role="graphics-symbol" aria-roledescription="bar" d="M21,262.5h18v0h-18Z" fill="#f58518"/><path aria-label="Headquarters: Germany; COUNT(Headquarters): 0; classify: Banking" role="graphics-symbol" aria-roledescription="bar" d="M41,262.5h18v0h-18Z" fill="#f58518"/><path aria-label="Headquarters: Netherlands; COUNT(Headquarters): 0; classify: Banking" role="graphics-symbol" aria-roledescription="bar" d="M61,262.5h18v0h-18Z" fill="#f58518"/><path aria-label="Headquarters: Russia; COUNT(Headquarters): 0; classify: Banking" role="graphics-symbol" aria-roledescription="bar" d="M81,262.5h18v0h-18Z" fill="#f58518"/><path aria-label="Headquarters: UK; COUNT(Headquarters): 1; classify: Banking" role="graphics-symbol" aria-roledescription="bar" d="M101,225h18v37.5h-18Z" fill="#f58518"/><path aria-label="Headquarters: China; COUNT(Headquarters): 3; classify: Banking" role="graphics-symbol" aria-roledescription="bar" d="M121,150h18v112.5h-18Z" fill="#f58518"/><path aria-label="Headquarters: USA; COUNT(Headquarters): 3; classify: Banking" role="graphics-symbol" aria-roledescription="bar" d="M141,0h18v112.5h-18Z" fill="#f58518"/><path aria-label="Headquarters: Brazil; COUNT(Headquarters): 0; classify: Conglomerate" role="graphics-symbol" aria-roledescription="bar" d="M1,300h18v0h-18Z" fill="#e45756"/><path aria-label="Headquarters: France; COUNT(Headquarters): 0; classify: Conglomerate" role="graphics-symbol" aria-roledescription="bar" d="M21,262.5h18v0h-18Z" fill="#e45756"/><path aria-label="Headquarters: Germany; COUNT(Headquarters): 0; classify: Conglomerate" role="graphics-symbol" aria-roledescription="bar" d="M41,262.5h18v0h-18Z" fill="#e45756"/><path aria-label="Headquarters: Netherlands; COUNT(Headquarters): 0; classify: Conglomerate" role="graphics-symbol" aria-roledescription="bar" d="M61,262.5h18v0h-18Z" fill="#e45756"/><path aria-label="Headquarters: Russia; COUNT(Headquarters): 0; classify: Conglomerate" role="graphics-symbol" aria-roledescription="bar" d="M81,262.5h18v0h-18Z" fill="#e45756"/><path aria-label="Headquarters: UK; COUNT(Headquarters): 0; classify: Conglomerate" role="graphics-symbol" aria-roledescription="bar" d="M101,262.5h18v0h-18Z" fill="#e45756"/><path aria-label="Headquarters: China; COUNT(Headquarters): 0; classify: Conglomerate" role="graphics-symbol" aria-roledescription="bar" d="M121,262.5h18v0h-18Z" fill="#e45756"/><path aria-label="Headquarters: USA; COUNT(Headquarters): 2; classify: Conglomerate" role="graphics-symbol" aria-roledescription="bar" d="M141,112.5h18v75h-18Z" fill="#e45756"/><path aria-label="Headquarters: Brazil; COUNT(Headquarters): 0; classify: Oil and gas" role="graphics-symbol" aria-roledescription="bar" d="M1,300h18v0h-18Z" fill="#72b7b2"/><path aria-label="Headquarters: France; COUNT(Headquarters): 1; classify: Oil and gas" role="graphics-symbol" aria-roledescription="bar" d="M21,262.5h18v37.5h-18Z" fill="#72b7b2"/><path aria-label="Headquarters: Germany; COUNT(Headquarters): 1; classify: Oil and gas" role="graphics-symbol" aria-roledescription="bar" d="M41,262.5h18v37.5h-18Z" fill="#72b7b2"/><path aria-label="Headquarters: Netherlands; COUNT(Headquarters): 1; classify: Oil and gas" role="graphics-symbol" aria-roledescription="bar" d="M61,262.5h18v37.5h-18Z" fill="#72b7b2"/><path aria-label="Headquarters: Russia; COUNT(Headquarters): 1; classify: Oil and gas" role="graphics-symbol" aria-roledescription="bar" d="M81,262.5h18v37.5h-18Z" fill="#72b7b2"/><path aria-label="Headquarters: UK; COUNT(Headquarters): 1; classify: Oil and gas" role="graphics-symbol" aria-roledescription="bar" d="M101,262.5h18v37.5h-18Z" fill="#72b7b2"/><path aria-label="Headquarters: China; COUNT(Headquarters): 1; classify: Oil and gas" role="graphics-symbol" aria-roledescription="bar" d="M121,262.5h18v37.5h-18Z" fill="#72b7b2"/><path aria-label="Headquarters: USA; COUNT(Headquarters): 2; classify: Oil and gas" role="graphics-symbol" aria-roledescription="bar" d="M141,187.5h18v75h-18Z" fill="#72b7b2"/><path aria-label="Headquarters: Brazil; COUNT(Headquarters): 0; classify: Retailing" role="graphics-symbol" aria-roledescription="bar" d="M1,300h18v0h-18Z" fill="#54a24b"/><path aria-label="Headquarters: France; COUNT(Headquarters): 0; classify: Retailing" role="graphics-symbol" aria-roledescription="bar" d="M21,300h18v0h-18Z" fill="#54a24b"/><path aria-label="Headquarters: Germany; COUNT(Headquarters): 0; classify: Retailing" role="graphics-symbol" aria-roledescription="bar" d="M41,300h18v0h-18Z" fill="#54a24b"/><path aria-label="Headquarters: Netherlands; COUNT(Headquarters): 0; classify: Retailing" role="graphics-symbol" aria-roledescription="bar" d="M61,300h18v0h-18Z" fill="#54a24b"/><path aria-label="Headquarters: Russia; COUNT(Headquarters): 0; classify: Retailing" role="graphics-symbol" aria-roledescription="bar" d="M81,300h18v0h-18Z" fill="#54a24b"/><path aria-label="Headquarters: UK; COUNT(Headquarters): 0; classify: Retailing" role="graphics-symbol" aria-roledescription="bar" d="M101,300h18v0h-18Z" fill="#54a24b"/><path aria-label="Headquarters: China; COUNT(Headquarters): 0; classify: Retailing" role="graphics-symbol" aria-roledescription="bar" d="M121,300h18v0h-18Z" fill="#54a24b"/><path aria-label="Headquarters: USA; COUNT(Headquarters): 1; classify: Retailing" role="graphics-symbol" aria-roledescription="bar" d="M141,262.5h18v37.5h-18Z" fill="#54a24b"/></g><g class="mark-group role-legend" role="graphics-symbol" aria-roledescription="legend" aria-label="Symbol legend titled 'classify' for fill color with 5 values: Automotive, Banking, Conglomerate, Oil and gas, Retailing"><g transform="translate(178,0)"><path class="background" aria-hidden="true" d="M0,0h79v79h-79Z" pointer-events="none"/><g><g class="mark-group role-legend-entry"><g transform="translate(0,16)"><path class="background" aria-hidden="true" d="M0,0h0v0h0Z" pointer-events="none"/><g><g class="mark-group role-scope" role="graphics-object" aria-roledescription="group mark container"><g transform="translate(0,0)"><path class="background" aria-hidden="true" d="M0,0h78.8125v11h-78.8125Z" pointer-events="none" opacity="1"/><g><g class="mark-symbol role-legend-symbol" pointer-events="none"><path transform="translate(6,6)" d="M-5,-5h10v10h-10Z" fill="#4c78a8" stroke-width="1.5" opacity="1"/></g><g class="mark-text role-legend-label" pointer-events="none"><text text-anchor="start" transform="translate(16,9)" font-family="sans-serif" font-size="10px" fill="#000" opacity="1">Automotive</text></g></g><path class="foreground" aria-hidden="true" d="" pointer-events="none" display="none"/></g><g transform="translate(0,13)"><path class="background" aria-hidden="true" d="M0,0h78.8125v11h-78.8125Z" pointer-events="none" opacity="1"/><g><g class="mark-symbol role-legend-symbol" pointer-events="none"><path transform="translate(6,6)" d="M-5,-5h10v10h-10Z" fill="#f58518" stroke-width="1.5" opacity="1"/></g><g class="mark-text role-legend-label" pointer-events="none"><text text-anchor="start" transform="translate(16,9)" font-family="sans-serif" font-size="10px" fill="#000" opacity="1">Banking</text></g></g><path class="foreground" aria-hidden="true" d="" pointer-events="none" display="none"/></g><g transform="translate(0,26)"><path class="background" aria-hidden="true" d="M0,0h78.8125v11h-78.8125Z" pointer-events="none" opacity="1"/><g><g class="mark-symbol role-legend-symbol" pointer-events="none"><path transform="translate(6,6)" d="M-5,-5h10v10h-10Z" fill="#e45756" stroke-width="1.5" opacity="1"/></g><g class="mark-text role-legend-label" pointer-events="none"><text text-anchor="start" transform="translate(16,9)" font-family="sans-serif" font-size="10px" fill="#000" opacity="1">Conglomerate</text></g></g><path class="foreground" aria-hidden="true" d="" pointer-events="none" display="none"/></g><g transform="translate(0,39)"><path class="background" aria-hidden="true" d="M0,0h78.8125v11h-78.8125Z" pointer-events="none" opacity="1"/><g><g class="mark-symbol role-legend-symbol" pointer-events="none"><path transform="translate(6,6)" d="M-5,-5h10v10h-10Z" fill="#72b7b2" stroke-width="1.5" opacity="1"/></g><g class="mark-text role-legend-label" pointer-events="none"><text text-anchor="start" transform="translate(16,9)" font-family="sans-serif" font-size="10px" fill="#000" opacity="1">Oil and gas</text></g></g><path class="foreground" aria-hidden="true" d="" pointer-events="none" display="none"/></g><g transform="translate(0,52)"><path class="background" aria-hidden="true" d="M0,0h78.8125v11h-78.8125Z" pointer-events="none" opacity="1"/><g><g class="mark-symbol role-legend-symbol" pointer-events="none"><path transform="translate(6,6)" d="M-5,-5h10v10h-10Z" fill="#54a24b" stroke-width="1.5" opacity="1"/></g><g class="mark-text role-legend-label" pointer-events="none"><text text-anchor="start" transform="translate(16,9)" font-family="sans-serif" font-size="10px" fill="#000" opacity="1">Retailing</text></g></g><path class="foreground" aria-hidden="true" d="" pointer-events="none" display="none"/></g></g></g><path class="foreground" aria-hidden="true" d="" pointer-events="none" display="none"/></g></g><g class="mark-text role-legend-title" pointer-events="none"><text text-anchor="start" transform="translate(0,9)" font-family="sans-serif" font-size="11px" font-weight="bold" fill="#000" opacity="1">classify</text></g></g><path class="foreground" aria-hidden="true" d="" pointer-events="none" display="none"/></g></g></g><path class="foreground" aria-hidden="true" d="" display="none"/></g></g></g></svg>