<svg xmlns="http://www.w3.org/2000/svg" xmlns:xlink="http://www.w3.org/1999/xlink" version="1.1" class="marks" width="438" height="514" viewBox="0 0 438 514"><rect width="438" height="514" fill="white"/><g fill="none" stroke-miterlimit="10" transform="translate(53,5)"><g class="mark-group role-frame root" role="graphics-object" aria-roledescription="group mark container"><g transform="translate(0,0)"><path class="background" aria-hidden="true" d="M0.5,0.5h380v300h-380Z" stroke="#ddd"/><g><g class="mark-group role-axis" aria-hidden="true"><g transform="translate(0.5,0.5)"><path class="background" aria-hidden="true" d="M0,0h0v0h0Z" pointer-events="none"/><g><g class="mark-rule role-axis-grid" pointer-events="none"><line transform="translate(0,300)" x2="380" y2="0" stroke="#ddd" stroke-width="1" opacity="1"/><line transform="translate(0,246)" x2="380" y2="0" stroke="#ddd" stroke-width="1" opacity="1"/><line transform="translate(0,193)" x2="380" y2="0" stroke="#ddd" stroke-width="1" opacity="1"/><line transform="translate(0,139)" x2="380" y2="0" stroke="#ddd" stroke-width="1" opacity="1"/><line transform="translate(0,86)" x2="380" y2="0" stroke="#ddd" stroke-width="1" opacity="1"/><line transform="translate(0,32)" x2="380" y2="0" stroke="#ddd" stroke-width="1" opacity="1"/></g></g><path class="foreground" aria-hidden="true" d="" pointer-events="none" display="none"/></g></g><g class="mark-group role-axis" role="graphics-symbol" aria-roledescription="axis" aria-label="X-axis titled 'name' for a discrete scale with 19 values: Wells Fargo, Walmart, Total, Santander Group, Royal Dutch Shell, ending with AT&amp;T Inc."><g transform="translate(0.5,300.5)"><path class="background" aria-hidden="true" d="M0,0h0v0h0Z" pointer-events="none"/><g><g class="mark-rule role-axis-tick" pointer-events="none"><line transform="translate(10,0)" x2="0" y2="5" stroke="#888" stroke-width="1" opacity="1"/><line transform="translate(30,0)" x2="0" y2="5" stroke="#888" stroke-width="1" opacity="1"/><line transform="translate(50,0)" x2="0" y2="5" stroke="#888" stroke-width="1" opacity="1"/><line transform="translate(70,0)" x2="0" y2="5" stroke="#888" stroke-width="1" opacity="1"/><line transform="translate(90,0)" x2="0" y2="5" stroke="#888" stroke-width="1" opacity="1"/><line transform="translate(110,0)" x2="0" y2="5" stroke="#888" stroke-width="1" opacity="1"/><line transform="translate(130,0)" x2="0" y2="5" stroke="#888" stroke-width="1" opacity="1"/><line transform="translate(150,0)" x2="0" y2="5" stroke="#888" stroke-width="1" opacity="1"/><line transform="translate(170,0)" x2="0" y2="5" stroke="#888" stroke-width="1" opacity="1"/><line transform="translate(190,0)" x2="0" y2="5" stroke="#888" stroke-width="1" opacity="1"/><line transform="translate(210,0)" x2="0" y2="5" stroke="#888" stroke-width="1" opacity="1"/><line transform="translate(230,0)" x2="0" y2="5" stroke="#888" stroke-width="1" opacity="1"/><line transform="translate(250,0)" x2="0" y2="5" stroke="#888" stroke-width="1" opacity="1"/><line transform="translate(270,0)" x2="0" y2="5" stroke="#888" stroke-width="1" opacity="1"/><line transform="translate(290,0)" x2="0" y2="5" stroke="#888" stroke-width="1" opacity="1"/><line transform="translate(310,0)" x2="0" y2="5" stroke="#888" stroke-width="1" opacity="1"/><line transform="translate(330,0)" x2="0" y2="5" stroke="#888" stroke-width="1" opacity="1"/><line transform="translate(350,0)" x2="0" y2="5" stroke="#888" stroke-width="1" opacity="1"/><line transform="translate(370,0)" x2="0" y2="5" stroke="#888" stroke-width="1" opacity="1"/></g><g class="mark-text role-axis-label" pointer-events="none"><text text-anchor="end" transform="translate(9.5,7) rotate(270) translate(0,3)" font-family="sans-serif" font-size="10px" fill="#000" opacity="1">Wells Fargo</text><text text-anchor="end" transform="translate(29.5,7) rotate(270) translate(0,3)" font-family="sans-serif" font-size="10px" fill="#000" opacity="1">Walmart</text><text text-anchor="end" transform="translate(49.5,7) rotate(270) translate(0,3)" font-family="sans-serif" font-size="10px" fill="#000" opacity="1">Total</text><text text-anchor="end" transform="translate(69.5,7) rotate(270) translate(0,3)" font-family="sans-serif" font-size="10px" fill="#000" opacity="1">Santander Group</text><text text-anchor="end" transform="translate(89.5,7) rotate(270) translate(0,3)" font-family="sans-serif" font-size="10px" fill="#000" opacity="1">Royal Dutch Shell</text><text text-anchor="end" transform="translate(109.5,7) rotate(270) translate(0,3)" font-family="sans-serif" font-size="10px" fill="#000" opacity="1">Petrobras</text><text text-anchor="end" transform="translate(129.5,7) rotate(270) translate(0,3)" font-family="sans-serif" font-size="10px" fill="#000" opacity="1">PetroChina</text><text text-anchor="end" transform="translate(149.5,7) rotate(270) translate(0,3)" font-family="sans-serif" font-size="10px" fill="#000" opacity="1">JPMorgan Chase</text><text text-anchor="end" transform="translate(169.5,7) rotate(270) translate(0,3)" font-family="sans-serif" font-size="10px" fill="#000" opacity="1">Industrial and Commer…</text><text text-anchor="end" transform="translate(189.5,7) rotate(270) translate(0,3)" font-family="sans-serif" font-size="10px" fill="#000" opacity="1">HSBC</text><text text-anchor="end" transform="translate(209.5,7) rotate(270) translate(0,3)" font-family="sans-serif" font-size="10px" fill="#000" opacity="1">General Electric</text><text text-anchor="end" transform="translate(229.5,7) rotate(270) translate(0,3)" font-family="sans-serif" font-size="10px" fill="#000" opacity="1">Gazprom</text><text text-anchor="end" transform="translate(249.5,7) rotate(270) translate(0,3)" font-family="sans-serif" font-size="10px" fill="#000" opacity="1">ExxonMobil</text><text text-anchor="end" transform="translate(269.5,7) rotate(270) translate(0,3)" font-family="sans-serif" font-size="10px" fill="#000" opacity="1">Citigroup</text><text text-anchor="end" transform="translate(289.5,7) rotate(270) translate(0,3)" font-family="sans-serif" font-size="10px" fill="#000" opacity="1">China Construction Ba…</text><text text-anchor="end" transform="translate(309.5,7) rotate(270) translate(0,3)" font-family="sans-serif" font-size="10px" fill="#000" opacity="1">Chevron</text><text text-anchor="end" transform="translate(329.5,7) rotate(270) translate(0,3)" font-family="sans-serif" font-size="10px" fill="#000" opacity="1">Berkshire Hathaway</text><text text-anchor="end" transform="translate(349.5,7) rotate(270) translate(0,3)" font-family="sans-serif" font-size="10px" fill="#000" opacity="1">BNP Paribas</text><text text-anchor="end" transform="translate(369.5,7) rotate(270) translate(0,3)" font-family="sans-serif" font-size="10px" fill="#000" opacity="1">AT&amp;T Inc.</text></g><g class="mark-rule role-axis-domain" pointer-events="none"><line transform="translate(0,0)" x2="380" y2="0" stroke="#888" stroke-width="1" opacity="1"/></g><g class="mark-text role-axis-title" pointer-events="none"><text text-anchor="middle" transform="translate(190,201.7529296875)" font-family="sans-serif" font-size="11px" font-weight="bold" fill="#000" opacity="1">name</text></g></g><path class="foreground" aria-hidden="true" d="" pointer-events="none" display="none"/></g></g><g class="mark-group role-axis" role="graphics-symbol" aria-roledescription="axis" aria-label="Y-axis titled 'Assets_billion' for a linear scale with values from 0 to 2,800"><g transform="translate(0.5,0.5)"><path class="background" aria-hidden="true" d="M0,0h0v0h0Z" pointer-events="none"/><g><g class="mark-rule role-axis-tick" pointer-events="none"><line transform="translate(0,300)" x2="-5" y2="0" stroke="#888" stroke-width="1" opacity="1"/><line transform="translate(0,246)" x2="-5" y2="0" stroke="#888" stroke-width="1" opacity="1"/><line transform="translate(0,193)" x2="-5" y2="0" stroke="#888" stroke-width="1" opacity="1"/><line transform="translate(0,139)" x2="-5" y2="0" stroke="#888" stroke-width="1" opacity="1"/><line transform="translate(0,86)" x2="-5" y2="0" stroke="#888" stroke-width="1" opacity="1"/><line transform="translate(0,32)" x2="-5" y2="0" stroke="#888" stroke-width="1" opacity="1"/></g><g class="mark-text role-axis-label" pointer-events="none"><text text-anchor="end" transform="translate(-7,303)" font-family="sans-serif" font-size="10px" fill="#000" opacity="1">0</text><text text-anchor="end" transform="translate(-7,249.42857142857142)" font-family="sans-serif" font-size="10px" fill="#000" opacity="1">500</text><text text-anchor="end" transform="translate(-7,195.85714285714283)" font-family="sans-serif" font-size="10px" fill="#000" opacity="1">1,000</text><text text-anchor="end" transform="translate(-7,142.28571428571428)" font-family="sans-serif" font-size="10px" fill="#000" opacity="1">1,500</text><text text-anchor="end" transform="translate(-7,88.71428571428571)" font-family="sans-serif" font-size="10px" fill="#000" opacity="1">2,000</text><text text-anchor="end" transform="translate(-7,35.14285714285713)" font-family="sans-serif" font-size="10px" fill="#000" opacity="1">2,500</text></g><g class="mark-rule role-axis-domain" pointer-events="none"><line transform="translate(0,300)" x2="0" y2="-300" stroke="#888" stroke-width="1" opacity="1"/></g><g class="mark-text role-axis-title" pointer-events="none"><text text-anchor="middle" transform="translate(-36.0244140625,150) rotate(-90) translate(0,-2)" font-family="sans-serif" font-size="11px" font-weight="bold" fill="#000" opacity="1">Assets_billion</text></g></g><path class="foreground" aria-hidden="true" d="" pointer-events="none" display="none"/></g></g><g class="mark-rect role-mark marks" role="graphics-object" aria-roledescription="rect mark container"><path aria-label="name: AT&amp;T Inc.; Assets_billion: 268.5" role="graphics-symbol" aria-roledescription="bar" d="M361,271.2321428571429h18v28.76785714285711h-18Z" fill="#4c78a8"/><path aria-label="name: BNP Paribas; Assets_billion: 2680.7" role="graphics-symbol" aria-roledescription="bar" d="M341,12.782142857142887h18v287.2178571428571h-18Z" fill="#4c78a8"/><path aria-label="name: Berkshire Hathaway; Assets_billion: 372.2" role="graphics-symbol" aria-roledescription="bar" d="M321,260.12142857142857h18v39.87857142857143h-18Z" fill="#4c78a8"/><path aria-label="name: Chevron; Assets_billion: 184.8" role="graphics-symbol" aria-roledescription="bar" d="M301,280.2h18v19.80000000000001h-18Z" fill="#4c78a8"/><path aria-label="name: China Construction Bank; Assets_billion: 1408" role="graphics-symbol" aria-roledescription="bar" d="M281,149.14285714285714h18v150.85714285714286h-18Z" fill="#4c78a8"/><path aria-label="name: Citigroup; Assets_billion: 1913.9" role="graphics-symbol" aria-roledescription="bar" d="M261,94.93928571428569h18v205.0607142857143h-18Z" fill="#4c78a8"/><path aria-label="name: ExxonMobil; Assets_billion: 302.5" role="graphics-symbol" aria-roledescription="bar" d="M241,267.5892857142857h18v32.41071428571428h-18Z" fill="#4c78a8"/><path aria-label="name: Gazprom; Assets_billion: 275.9" role="graphics-symbol" aria-roledescription="bar" d="M221,270.4392857142857h18v29.56071428571431h-18Z" fill="#4c78a8"/><path aria-label="name: General Electric; Assets_billion: 751.2" role="graphics-symbol" aria-roledescription="bar" d="M201,219.51428571428573h18v80.48571428571427h-18Z" fill="#4c78a8"/><path aria-label="name: HSBC; Assets_billion: 2467.9" role="graphics-symbol" aria-roledescription="bar" d="M181,35.58214285714284h18v264.41785714285714h-18Z" fill="#4c78a8"/><path aria-label="name: Industrial and Commercial Bank of China; Assets_billion: 1723.5" role="graphics-symbol" aria-roledescription="bar" d="M161,115.33928571428571h18v184.66071428571428h-18Z" fill="#4c78a8"/><path aria-label="name: JPMorgan Chase; Assets_billion: 2117.6" role="graphics-symbol" aria-roledescription="bar" d="M141,73.11428571428573h18v226.88571428571427h-18Z" fill="#4c78a8"/><path aria-label="name: PetroChina; Assets_billion: 251.3" role="graphics-symbol" aria-roledescription="bar" d="M121,273.075h18v26.92500000000001h-18Z" fill="#4c78a8"/><path aria-label="name: Petrobras; Assets_billion: 313.2" role="graphics-symbol" aria-roledescription="bar" d="M101,266.4428571428571h18v33.55714285714288h-18Z" fill="#4c78a8"/><path aria-label="name: Royal Dutch Shell; Assets_billion: 317.2" role="graphics-symbol" aria-roledescription="bar" d="M81,266.0142857142857h18v33.98571428571432h-18Z" fill="#4c78a8"/><path aria-label="name: Santander Group; Assets_billion: 1570.6" role="graphics-symbol" aria-roledescription="bar" d="M61,131.72142857142856h18v168.27857142857144h-18Z" fill="#4c78a8"/><path aria-label="name: Total; Assets_billion: 192.8" role="graphics-symbol" aria-roledescription="bar" d="M41,279.34285714285716h18v20.657142857142844h-18Z" fill="#4c78a8"/><path aria-label="name: Walmart; Assets_billion: 180.7" role="graphics-symbol" aria-roledescription="bar" d="M21,280.63928571428573h18v19.360714285714266h-18Z" fill="#4c78a8"/><path aria-label="name: Wells Fargo; Assets_billion: 1258.1" role="graphics-symbol" aria-roledescription="bar" d="M1,165.20357142857145h18v134.79642857142855h-18Z" fill="#4c78a8"/></g></g><path class="foreground" aria-hidden="true" d="" display="none"/></g></g></g></svg>