<svg xmlns="http://www.w3.org/2000/svg" xmlns:xlink="http://www.w3.org/1999/xlink" version="1.1" class="marks" width="247" height="358" viewBox="0 0 247 358"><rect width="247" height="358" fill="white"/><g fill="none" stroke-miterlimit="10" transform="translate(41,10)"><g class="mark-group role-frame root" role="graphics-object" aria-roledescription="group mark container"><g transform="translate(0,0)"><path class="background" aria-hidden="true" d="M0.5,0.5h140v300h-140Z" stroke="#ddd"/><g><g class="mark-group role-axis" aria-hidden="true"><g transform="translate(0.5,0.5)"><path class="background" aria-hidden="true" d="M0,0h0v0h0Z" pointer-events="none"/><g><g class="mark-rule role-axis-grid" pointer-events="none"><line transform="translate(0,300)" x2="140" y2="0" stroke="#ddd" stroke-width="1" opacity="1"/><line transform="translate(0,270)" x2="140" y2="0" stroke="#ddd" stroke-width="1" opacity="1"/><line transform="translate(0,240)" x2="140" y2="0" stroke="#ddd" stroke-width="1" opacity="1"/><line transform="translate(0,210)" x2="140" y2="0" stroke="#ddd" stroke-width="1" opacity="1"/><line transform="translate(0,180)" x2="140" y2="0" stroke="#ddd" stroke-width="1" opacity="1"/><line transform="translate(0,150)" x2="140" y2="0" stroke="#ddd" stroke-width="1" opacity="1"/><line transform="translate(0,120)" x2="140" y2="0" stroke="#ddd" stroke-width="1" opacity="1"/><line transform="translate(0,90)" x2="140" y2="0" stroke="#ddd" stroke-width="1" opacity="1"/><line transform="translate(0,60)" x2="140" y2="0" stroke="#ddd" stroke-width="1" opacity="1"/><line transform="translate(0,30)" x2="140" y2="0" stroke="#ddd" stroke-width="1" opacity="1"/><line transform="translate(0,0)" x2="140" y2="0" stroke="#ddd" stroke-width="1" opacity="1"/></g></g><path class="foreground" aria-hidden="true" d="" pointer-events="none" display="none"/></g></g><g class="mark-group role-axis" role="graphics-symbol" aria-roledescription="axis" aria-label="X-axis titled 'Document_Date' for a discrete scale with 7 values: Tue, Sun, Mon, Sat, Fri, Thur, Wed"><g transform="translate(0.5,300.5)"><path class="background" aria-hidden="true" d="M0,0h0v0h0Z" pointer-events="none"/><g><g class="mark-rule role-axis-tick" pointer-events="none"><line transform="translate(10,0)" x2="0" y2="5" stroke="#888" stroke-width="1" opacity="1"/><line transform="translate(30,0)" x2="0" y2="5" stroke="#888" stroke-width="1" opacity="1"/><line transform="translate(50,0)" x2="0" y2="5" stroke="#888" stroke-width="1" opacity="1"/><line transform="translate(70,0)" x2="0" y2="5" stroke="#888" stroke-width="1" opacity="1"/><line transform="translate(90,0)" x2="0" y2="5" stroke="#888" stroke-width="1" opacity="1"/><line transform="translate(110,0)" x2="0" y2="5" stroke="#888" stroke-width="1" opacity="1"/><line transform="translate(130,0)" x2="0" y2="5" stroke="#888" stroke-width="1" opacity="1"/></g><g class="mark-text role-axis-label" pointer-events="none"><text text-anchor="end" transform="translate(9.5,7) rotate(270) translate(0,3)" font-family="sans-serif" font-size="10px" fill="#000" opacity="1">Tue</text><text text-anchor="end" transform="translate(29.5,7) rotate(270) translate(0,3)" font-family="sans-serif" font-size="10px" fill="#000" opacity="1">Sun</text><text text-anchor="end" transform="translate(49.5,7) rotate(270) translate(0,3)" font-family="sans-serif" font-size="10px" fill="#000" opacity="1">Mon</text><text text-anchor="end" transform="translate(69.5,7) rotate(270) translate(0,3)" font-family="sans-serif" font-size="10px" fill="#000" opacity="1">Sat</text><text text-anchor="end" transform="translate(89.5,7) rotate(270) translate(0,3)" font-family="sans-serif" font-size="10px" fill="#000" opacity="1">Fri</text><text text-anchor="end" transform="translate(109.5,7) rotate(270) translate(0,3)" font-family="sans-serif" font-size="10px" fill="#000" opacity="1">Thur</text><text text-anchor="end" transform="translate(129.5,7) rotate(270) translate(0,3)" font-family="sans-serif" font-size="10px" fill="#000" opacity="1">Wed</text></g><g class="mark-rule role-axis-domain" pointer-events="none"><line transform="translate(0,0)" x2="140" y2="0" stroke="#888" stroke-width="1" opacity="1"/></g><g class="mark-text role-axis-title" pointer-events="none"><text text-anchor="middle" transform="translate(70,40.5615234375)" font-family="sans-serif" font-size="11px" font-weight="bold" fill="#000" opacity="1">Document_Date</text></g></g><path class="foreground" aria-hidden="true" d="" pointer-events="none" display="none"/></g></g><g class="mark-group role-axis" role="graphics-symbol" aria-roledescription="axis" aria-label="Y-axis titled 'COUNT(Document_Date)' for a linear scale with values from 0 to 5"><g transform="translate(0.5,0.5)"><path class="background" aria-hidden="true" d="M0,0h0v0h0Z" pointer-events="none"/><g><g class="mark-rule role-axis-tick" pointer-events="none"><line transform="translate(0,300)" x2="-5" y2="0" stroke="#888" stroke-width="1" opacity="1"/><line transform="translate(0,270)" x2="-5" y2="0" stroke="#888" stroke-width="1" opacity="1"/><line transform="translate(0,240)" x2="-5" y2="0" stroke="#888" stroke-width="1" opacity="1"/><line transform="translate(0,210)" x2="-5" y2="0" stroke="#888" stroke-width="1" opacity="1"/><line transform="translate(0,180)" x2="-5" y2="0" stroke="#888" stroke-width="1" opacity="1"/><line transform="translate(0,150)" x2="-5" y2="0" stroke="#888" stroke-width="1" opacity="1"/><line transform="translate(0,120)" x2="-5" y2="0" stroke="#888" stroke-width="1" opacity="1"/><line transform="translate(0,90)" x2="-5" y2="0" stroke="#888" stroke-width="1" opacity="1"/><line transform="translate(0,60)" x2="-5" y2="0" stroke="#888" stroke-width="1" opacity="1"/><line transform="translate(0,30)" x2="-5" y2="0" stroke="#888" stroke-width="1" opacity="1"/><line transform="translate(0,0)" x2="-5" y2="0" stroke="#888" stroke-width="1" opacity="1"/></g><g class="mark-text role-axis-label" pointer-events="none"><text text-anchor="end" transform="translate(-7,303)" font-family="sans-serif" font-size="10px" fill="#000" opacity="1">0.0</text><text text-anchor="end" transform="translate(-7,273)" font-family="sans-serif" font-size="10px" fill="#000" opacity="1">0.5</text><text text-anchor="end" transform="translate(-7,243)" font-family="sans-serif" font-size="10px" fill="#000" opacity="1">1.0</text><text text-anchor="end" transform="translate(-7,213)" font-family="sans-serif" font-size="10px" fill="#000" opacity="1">1.5</text><text text-anchor="end" transform="translate(-7,183)" font-family="sans-serif" font-size="10px" fill="#000" opacity="1">2.0</text><text text-anchor="end" transform="translate(-7,153)" font-family="sans-serif" font-size="10px" fill="#000" opacity="1">2.5</text><text text-anchor="end" transform="translate(-7,123)" font-family="sans-serif" font-size="10px" fill="#000" opacity="1">3.0</text><text text-anchor="end" transform="translate(-7,93.00000000000001)" font-family="sans-serif" font-size="10px" fill="#000" opacity="1">3.5</text><text text-anchor="end" transform="translate(-7,62.999999999999986)" font-family="sans-serif" font-size="10px" fill="#000" opacity="1">4.0</text><text text-anchor="end" transform="translate(-7,32.99999999999999)" font-family="sans-serif" font-size="10px" fill="#000" opacity="1">4.5</text><text text-anchor="end" transform="translate(-7,3)" font-family="sans-serif" font-size="10px" fill="#000" opacity="1">5.0</text></g><g class="mark-rule role-axis-domain" pointer-events="none"><line transform="translate(0,300)" x2="0" y2="-300" stroke="#888" stroke-width="1" opacity="1"/></g><g class="mark-text role-axis-title" pointer-events="none"><text text-anchor="middle" transform="translate(-24.9013671875,150) rotate(-90) translate(0,-2)" font-family="sans-serif" font-size="11px" font-weight="bold" fill="#000" opacity="1">COUNT(Document_Date)</text></g></g><path class="foreground" aria-hidden="true" d="" pointer-events="none" display="none"/></g></g><g class="mark-rect role-mark marks" role="graphics-object" aria-roledescription="rect mark container"><path aria-label="Document_Date: Tue; COUNT(Document_Date): 0; classify: Book" role="graphics-symbol" aria-roledescription="bar" d="M1,300h18v0h-18Z" fill="#4c78a8"/><path aria-label="Document_Date: Mon; COUNT(Document_Date): 1; classify: Book" role="graphics-symbol" aria-roledescription="bar" d="M41,240h18v60h-18Z" fill="#4c78a8"/><path aria-label="Document_Date: Sun; COUNT(Document_Date): 0; classify: Book" role="graphics-symbol" aria-roledescription="bar" d="M21,300h18v0h-18Z" fill="#4c78a8"/><path aria-label="Document_Date: Sat; COUNT(Document_Date): 1; classify: Book" role="graphics-symbol" aria-roledescription="bar" d="M61,180h18v60h-18Z" fill="#4c78a8"/><path aria-label="Document_Date: Thur; COUNT(Document_Date): 2; classify: Book" role="graphics-symbol" aria-roledescription="bar" d="M101,59.999999999999986h18v120.00000000000001h-18Z" fill="#4c78a8"/><path aria-label="Document_Date: Fri; COUNT(Document_Date): 1; classify: Book" role="graphics-symbol" aria-roledescription="bar" d="M81,120h18v60h-18Z" fill="#4c78a8"/><path aria-label="Document_Date: Wed; COUNT(Document_Date): 1; classify: Book" role="graphics-symbol" aria-roledescription="bar" d="M121,0h18v59.999999999999986h-18Z" fill="#4c78a8"/><path aria-label="Document_Date: Tue; COUNT(Document_Date): 0; classify: CV" role="graphics-symbol" aria-roledescription="bar" d="M1,300h18v0h-18Z" fill="#f58518"/><path aria-label="Document_Date: Mon; COUNT(Document_Date): 0; classify: CV" role="graphics-symbol" aria-roledescription="bar" d="M41,300h18v0h-18Z" fill="#f58518"/><path aria-label="Document_Date: Sun; COUNT(Document_Date): 0; classify: CV" role="graphics-symbol" aria-roledescription="bar" d="M21,300h18v0h-18Z" fill="#f58518"/><path aria-label="Document_Date: Sat; COUNT(Document_Date): 0; classify: CV" role="graphics-symbol" aria-roledescription="bar" d="M61,240h18v0h-18Z" fill="#f58518"/><path aria-label="Document_Date: Thur; COUNT(Document_Date): 1; classify: CV" role="graphics-symbol" aria-roledescription="bar" d="M101,180h18v60h-18Z" fill="#f58518"/><path aria-label="Document_Date: Fri; COUNT(Document_Date): 0; classify: CV" role="graphics-symbol" aria-roledescription="bar" d="M81,180h18v0h-18Z" fill="#f58518"/><path aria-label="Document_Date: Wed; COUNT(Document_Date): 2; classify: CV" role="graphics-symbol" aria-roledescription="bar" d="M121,59.999999999999986h18v120.00000000000001h-18Z" fill="#f58518"/><path aria-label="Document_Date: Tue; COUNT(Document_Date): 0; classify: Film" role="graphics-symbol" aria-roledescription="bar" d="M1,300h18v0h-18Z" fill="#e45756"/><path aria-label="Document_Date: Mon; COUNT(Document_Date): 0; classify: Film" role="graphics-symbol" aria-roledescription="bar" d="M41,300h18v0h-18Z" fill="#e45756"/><path aria-label="Document_Date: Sun; COUNT(Document_Date): 0; classify: Film" role="graphics-symbol" aria-roledescription="bar" d="M21,300h18v0h-18Z" fill="#e45756"/><path aria-label="Document_Date: Sat; COUNT(Document_Date): 0; classify: Film" role="graphics-symbol" aria-roledescription="bar" d="M61,240h18v0h-18Z" fill="#e45756"/><path aria-label="Document_Date: Thur; COUNT(Document_Date): 0; classify: Film" role="graphics-symbol" aria-roledescription="bar" d="M101,240h18v0h-18Z" fill="#e45756"/><path aria-label="Document_Date: Fri; COUNT(Document_Date): 0; classify: Film" role="graphics-symbol" aria-roledescription="bar" d="M81,180h18v0h-18Z" fill="#e45756"/><path aria-label="Document_Date: Wed; COUNT(Document_Date): 1; classify: Film" role="graphics-symbol" aria-roledescription="bar" d="M121,180h18v60h-18Z" fill="#e45756"/><path aria-label="Document_Date: Tue; COUNT(Document_Date): 0; classify: Paper" role="graphics-symbol" aria-roledescription="bar" d="M1,300h18v0h-18Z" fill="#72b7b2"/><path aria-label="Document_Date: Mon; COUNT(Document_Date): 0; classify: Paper" role="graphics-symbol" aria-roledescription="bar" d="M41,300h18v0h-18Z" fill="#72b7b2"/><path aria-label="Document_Date: Sun; COUNT(Document_Date): 0; classify: Paper" role="graphics-symbol" aria-roledescription="bar" d="M21,300h18v0h-18Z" fill="#72b7b2"/><path aria-label="Document_Date: Sat; COUNT(Document_Date): 1; classify: Paper" role="graphics-symbol" aria-roledescription="bar" d="M61,240h18v60h-18Z" fill="#72b7b2"/><path aria-label="Document_Date: Thur; COUNT(Document_Date): 1; classify: Paper" role="graphics-symbol" aria-roledescription="bar" d="M101,240h18v60h-18Z" fill="#72b7b2"/><path aria-label="Document_Date: Fri; COUNT(Document_Date): 2; classify: Paper" role="graphics-symbol" aria-roledescription="bar" d="M81,180h18v120h-18Z" fill="#72b7b2"/><path aria-label="Document_Date: Wed; COUNT(Document_Date): 1; classify: Paper" role="graphics-symbol" aria-roledescription="bar" d="M121,240h18v60h-18Z" fill="#72b7b2"/></g><g class="mark-group role-legend" role="graphics-symbol" aria-roledescription="legend" aria-label="Symbol legend titled 'classify' for fill color with 4 values: Book, CV, Film, Paper"><g transform="translate(158,0)"><path class="background" aria-hidden="true" d="M0,0h43v66h-43Z" pointer-events="none"/><g><g class="mark-group role-legend-entry"><g transform="translate(0,16)"><path class="background" aria-hidden="true" d="M0,0h0v0h0Z" pointer-events="none"/><g><g class="mark-group role-scope" role="graphics-object" aria-roledescription="group mark container"><g transform="translate(0,0)"><path class="background" aria-hidden="true" d="M0,0h42.6845703125v11h-42.6845703125Z" pointer-events="none" opacity="1"/><g><g class="mark-symbol role-legend-symbol" pointer-events="none"><path transform="translate(6,6)" d="M-5,-5h10v10h-10Z" fill="#4c78a8" stroke-width="1.5" opacity="1"/></g><g class="mark-text role-legend-label" pointer-events="none"><text text-anchor="start" transform="translate(16,9)" font-family="sans-serif" font-size="10px" fill="#000" opacity="1">Book</text></g></g><path class="foreground" aria-hidden="true" d="" pointer-events="none" display="none"/></g><g transform="translate(0,13)"><path class="background" aria-hidden="true" d="M0,0h42.6845703125v11h-42.6845703125Z" pointer-events="none" opacity="1"/><g><g class="mark-symbol role-legend-symbol" pointer-events="none"><path transform="translate(6,6)" d="M-5,-5h10v10h-10Z" fill="#f58518" stroke-width="1.5" opacity="1"/></g><g class="mark-text role-legend-label" pointer-events="none"><text text-anchor="start" transform="translate(16,9)" font-family="sans-serif" font-size="10px" fill="#000" opacity="1">CV</text></g></g><path class="foreground" aria-hidden="true" d="" pointer-events="none" display="none"/></g><g transform="translate(0,26)"><path class="background" aria-hidden="true" d="M0,0h42.6845703125v11h-42.6845703125Z" pointer-events="none" opacity="1"/><g><g class="mark-symbol role-legend-symbol" pointer-events="none"><path transform="translate(6,6)" d="M-5,-5h10v10h-10Z" fill="#e45756" stroke-width="1.5" opacity="1"/></g><g class="mark-text role-legend-label" pointer-events="none"><text text-anchor="start" transform="translate(16,9)" font-family="sans-serif" font-size="10px" fill="#000" opacity="1">Film</text></g></g><path class="foreground" aria-hidden="true" d="" pointer-events="none" display="none"/></g><g transform="translate(0,39)"><path class="background" aria-hidden="true" d="M0,0h42.6845703125v11h-42.6845703125Z" pointer-events="none" opacity="1"/><g><g class="mark-symbol role-legend-symbol" pointer-events="none"><path transform="translate(6,6)" d="M-5,-5h10v10h-10Z" fill="#72b7b2" stroke-width="1.5" opacity="1"/></g><g class="mark-text role-legend-label" pointer-events="none"><text text-anchor="start" transform="translate(16,9)" font-family="sans-serif" font-size="10px" fill="#000" opacity="1">Paper</text></g></g><path class="foreground" aria-hidden="true" d="" pointer-events="none" display="none"/></g></g></g><path class="foreground" aria-hidden="true" d="" pointer-events="none" display="none"/></g></g><g class="mark-text role-legend-title" pointer-events="none"><text text-anchor="start" transform="translate(0,9)" font-family="sans-serif" font-size="11px" font-weight="bold" fill="#000" opacity="1">classify</text></g></g><path class="foreground" aria-hidden="true" d="" pointer-events="none" display="none"/></g></g></g><path class="foreground" aria-hidden="true" d="" display="none"/></g></g></g></svg>